<svg width="32" height="32" viewBox="0 0 32 32" fill="none" xmlns="http://www.w3.org/2000/svg">
<path fill-rule="evenodd" clip-rule="evenodd" d="M23.6365 17.0453C23.6792 16.704 23.7112 16.3627 23.7112 16C23.7112 15.6373 23.6792 15.296 23.6365 14.9547L25.8872 13.1947C26.0899 13.0347 26.1432 12.7467 26.0152 12.512L23.8819 8.82134C23.7539 8.58668 23.4659 8.50134 23.2312 8.58668L20.5752 9.65334C20.0205 9.22668 19.4232 8.87468 18.7725 8.60801L18.3672 5.78134C18.3352 5.52534 18.1112 5.33334 17.8445 5.33334H13.5779C13.3112 5.33334 13.0872 5.52534 13.0552 5.78134L12.6499 8.60801C11.9992 8.87468 11.4019 9.23734 10.8472 9.65334L8.19121 8.58668C7.94587 8.49068 7.66854 8.58668 7.54054 8.82134L5.40721 12.512C5.26854 12.7467 5.33254 13.0347 5.53521 13.1947L7.78587 14.9547C7.74321 15.296 7.71121 15.648 7.71121 16C7.71121 16.352 7.74321 16.704 7.78587 17.0453L5.53521 18.8053C5.33254 18.9653 5.27921 19.2533 5.40721 19.488L7.54054 23.1787C7.66854 23.4133 7.95654 23.4987 8.19121 23.4133L10.8472 22.3467C11.4019 22.7733 11.9992 23.1253 12.6499 23.392L13.0552 26.2187C13.0872 26.4747 13.3112 26.6667 13.5779 26.6667H17.8445C18.1112 26.6667 18.3352 26.4747 18.3672 26.2187L18.7725 23.392C19.4232 23.1253 20.0205 22.7627 20.5752 22.3467L23.2312 23.4133C23.4765 23.5093 23.7539 23.4133 23.8819 23.1787L26.0152 19.488C26.1432 19.2533 26.0899 18.9653 25.8872 18.8053L23.6365 17.0453ZM15.7112 19.7333C13.6525 19.7333 11.9779 18.0587 11.9779 16C11.9779 13.9413 13.6525 12.2667 15.7112 12.2667C17.7699 12.2667 19.4445 13.9413 19.4445 16C19.4445 18.0587 17.7699 19.7333 15.7112 19.7333Z" fill="#6B7A99"/>
</svg>
