<svg width="32" height="32" viewBox="0 0 32 32" fill="none" xmlns="http://www.w3.org/2000/svg">
<path fill-rule="evenodd" clip-rule="evenodd" d="M15.9999 5.33331C10.1119 5.33331 5.33325 10.112 5.33325 16C5.33325 21.888 10.1119 26.6666 15.9999 26.6666C21.8879 26.6666 26.6666 21.888 26.6666 16C26.6666 10.112 21.8879 5.33331 15.9999 5.33331ZM15.9999 8.53331C17.7706 8.53331 19.1999 9.96265 19.1999 11.7333C19.1999 13.504 17.7706 14.9333 15.9999 14.9333C14.2293 14.9333 12.7999 13.504 12.7999 11.7333C12.7999 9.96265 14.2293 8.53331 15.9999 8.53331ZM15.9999 23.68C13.3333 23.68 10.9759 22.3146 9.59992 20.2453C9.63192 18.1226 13.8666 16.96 15.9999 16.96C18.1226 16.96 22.3679 18.1226 22.3999 20.2453C21.0239 22.3146 18.6666 23.68 15.9999 23.68Z" fill="#6B7A99"/>
</svg>
