<svg width="40" height="40" viewBox="0 0 40 40" fill="none" xmlns="http://www.w3.org/2000/svg">
<path fill-rule="evenodd" clip-rule="evenodd" d="M16.4169 7.60384C17.3726 6.76039 18.6249 6.25 19.9995 6.25C22.991 6.25 25.4162 8.67512 25.4162 11.6667L10.666 11.6667C8.45688 11.6667 6.66602 13.4575 6.66602 15.6667V31C6.66602 33.2091 8.45687 35 10.666 35H29.3327C31.5418 35 33.3327 33.2091 33.3327 31V15.6667C33.3327 13.4575 31.5418 11.6667 29.3327 11.6667L27.9161 11.6667C27.9161 7.29441 24.3717 3.75 19.9995 3.75C17.9926 3.75 16.1574 4.4984 14.7626 5.72949C14.245 6.18632 14.1958 6.97625 14.6526 7.49383C15.1094 8.01142 15.8994 8.06067 16.4169 7.60384ZM23.3327 23.3333C23.3327 25.1743 21.8403 26.6667 19.9993 26.6667C18.1584 26.6667 16.666 25.1743 16.666 23.3333C16.666 21.4924 18.1584 20 19.9993 20C21.8403 20 23.3327 21.4924 23.3327 23.3333Z" fill="#2C5DFE"/>
</svg>
