<svg width="32" height="32" viewBox="0 0 32 32" fill="none" xmlns="http://www.w3.org/2000/svg">
<path fill-rule="evenodd" clip-rule="evenodd" d="M16 5.33337C10.112 5.33337 5.33331 10.112 5.33331 16C5.33331 21.888 10.112 26.6667 16 26.6667C21.888 26.6667 26.6666 21.888 26.6666 16C26.6666 10.112 21.888 5.33337 16 5.33337ZM16 8.53337C17.7706 8.53337 19.2 9.96271 19.2 11.7334C19.2 13.504 17.7706 14.9334 16 14.9334C14.2293 14.9334 12.8 13.504 12.8 11.7334C12.8 9.96271 14.2293 8.53337 16 8.53337ZM16 23.68C13.3333 23.68 10.976 22.3147 9.59998 20.2454C9.63198 18.1227 13.8666 16.96 16 16.96C18.1226 16.96 22.368 18.1227 22.4 20.2454C21.024 22.3147 18.6666 23.68 16 23.68Z" fill="white"/>
</svg>
