<svg width="32" height="32" viewBox="0 0 32 32" fill="none" xmlns="http://www.w3.org/2000/svg">
<path fill-rule="evenodd" clip-rule="evenodd" d="M20.5414 8.03759C20.36 8.03759 20.2 8.13359 20.104 8.28292L20.0294 8.44292L14.504 20.8696C14.3334 21.1789 14.2267 21.5203 14.2267 21.8936C14.2267 23.0776 15.1867 24.0376 16.3707 24.0376C17.3947 24.0376 18.2587 23.3123 18.4614 22.3416L18.472 22.3096L21.0747 8.57092C21.0747 8.27225 20.84 8.03759 20.5414 8.03759ZM5.77869 13.4349C6.32269 13.9789 7.19735 14.0216 7.79469 13.5309C10.7387 11.1203 14.4507 10.1389 18.0134 10.5869L19.2827 7.72825C14.6427 6.89625 9.72535 8.04825 5.87469 11.1949C5.19202 11.7603 5.14935 12.8056 5.77869 13.4349ZM26.984 13.4349C27.6134 12.8056 27.5707 11.7603 26.8774 11.1949C25.4267 10.0109 23.8267 9.11492 22.1414 8.49625L21.576 11.5043C22.7814 12.0056 23.912 12.6669 24.9574 13.5203C25.576 14.0109 26.44 13.9789 26.984 13.4349ZM22.6854 17.7336C23.3254 17.0936 23.2827 15.9949 22.536 15.4723C22.0454 15.1203 21.5334 14.8216 21 14.5549L20.4134 17.6696C20.5307 17.7443 20.648 17.8189 20.7547 17.9043C21.3627 18.3309 22.1734 18.2456 22.6854 17.7336ZM10.0667 17.7229C10.6 18.2563 11.4214 18.2989 12.04 17.8616C13.0427 17.1576 14.184 16.7309 15.3467 16.5603L16.712 13.4883C14.44 13.4243 12.1467 14.0643 10.216 15.4509C9.48002 15.9949 9.42669 17.0829 10.0667 17.7229Z" fill="white"/>
</svg>
