<svg width="386" height="386" viewBox="0 0 386 386" fill="none" xmlns="http://www.w3.org/2000/svg">
<path d="M365.357 170.587L364.766 170.26C318.306 143.86 203.529 132.783 108.804 145.528L108.35 145.592V145.138C108.476 76.5507 125.962 23.8354 153.975 7.57307C166.097 0.529575 179.75 0.909734 193.466 8.62906C237.54 2.76829 279.364 14.9967 311.453 43.1284C328.512 58.1519 342.003 76.7925 350.944 97.6918C360.585 119.868 365.442 144.156 365.4 169.964L365.357 170.587ZM191.534 139.456C262.428 139.456 330.914 150.428 364.565 169.235C364.565 143.797 359.687 119.815 350.184 97.9558C341.277 77.1654 327.852 58.6201 310.883 43.667C278.984 15.7148 237.276 3.53916 193.435 9.4633H193.308L193.192 9.38938C179.465 1.61725 166.435 1.22653 154.366 8.22778C126.67 24.3423 109.353 76.5929 109.142 144.684C136.462 141.138 163.985 139.392 191.534 139.456Z" fill="#2C5DFE"/>
<path d="M279.85 22.9061C256.472 9.6217 198.608 4.0566 150.881 10.4559L150.776 9.6745C198.651 3.23293 256.726 8.86138 280.241 22.2197L279.85 22.9061Z" fill="#2C5DFE"/>
<path d="M341.43 80.6374C301.369 57.9124 202.262 48.3028 120.503 59.2957L120.397 58.5143C202.294 47.5002 301.633 57.1204 341.821 79.951L341.43 80.6374Z" fill="#2C5DFE"/>
<path d="M299.342 148.897H298.55C298.666 85.1465 280.145 34.6699 248.996 13.8562C232.387 2.76827 213.211 1.18427 193.54 9.4316L193.191 8.70297C213.127 0.40284 232.556 1.95516 249.397 13.2015C280.832 34.1525 299.458 84.8825 299.342 148.897Z" fill="#2C5DFE"/>
<path d="M207.425 140.005H206.633C206.792 50.2458 202.072 2.57816 197.31 1.96568C196.845 1.90233 195.536 2.47256 193.772 9.16757L193.001 8.96694C194.459 3.44408 195.863 0.962489 197.415 1.17369C204.5 2.10296 207.552 71.5664 207.425 140.005Z" fill="#2C5DFE"/>
<path d="M21.5224 216.829L20.9311 216.502C6.39125 208.233 -0.35599 199.004 1.41793 189.817C3.09683 181.2 12.1354 172.995 27.1398 165.803C42.1971 106.636 82.3215 55.209 133.955 27.9326C139.795 18.8194 146.51 11.9026 154.018 7.57303C166.171 0.508413 179.866 0.909688 193.625 8.72406L194.681 9.30486L193.508 9.46326C172.894 12.3132 152.942 18.7725 134.568 28.5451C118.645 53.5194 109.31 95.0729 109.226 145.138V145.486H108.888C74.455 150.111 46.5896 157.419 27.9106 166.258C23.7658 182.553 21.638 199.297 21.5752 216.111L21.5224 216.829ZM26.897 166.743C12.4838 173.734 3.81483 181.654 2.19929 189.975C0.509843 198.677 6.9192 207.484 20.741 215.477C20.8453 199.046 22.912 182.685 26.897 166.743ZM133.121 29.2737C82.4377 56.4973 43.0312 107.143 28.0585 165.37C46.7586 156.606 74.3917 149.383 108.307 144.789C108.487 95.5164 117.589 54.4592 133.121 29.2737ZM172.19 3.27512C165.907 3.31464 159.751 5.04351 154.366 8.28054C147.323 12.3778 140.956 18.8405 135.36 27.2885C153.111 17.9848 172.307 11.7476 192.136 8.84022C186.044 5.34024 179.171 3.42666 172.148 3.27512H172.19Z" fill="#2C5DFE"/>
<path d="M106.438 46.233C99.0471 42.009 95.5837 37.2887 96.5024 32.5684C98.4241 22.6949 119.215 13.9195 150.776 9.67444L150.882 10.4559C119.669 14.6799 99.1422 23.1278 97.2838 32.7163C96.439 37.0775 99.744 41.5127 106.787 45.5361L106.438 46.233Z" fill="#2C5DFE"/>
<path d="M44.615 120.565C32.0286 113.416 26.2 105.432 27.7205 97.47C30.9727 80.6902 66.4723 65.7901 120.376 58.5143L120.482 59.2957C66.9474 66.4976 31.7013 81.1443 28.4702 97.6179C27.0025 105.21 32.6938 112.909 44.9634 119.868L44.615 120.565Z" fill="#2C5DFE"/>
<path d="M33.8871 163.343H33.0952C33.1902 110.543 53.0624 63.8154 87.6011 35.1556C116.913 10.8677 154.503 1.43767 193.456 8.68181L193.318 9.46325C154.598 2.26136 117.24 11.5752 88.1079 35.7575C53.7487 64.2483 33.9822 110.776 33.8871 163.343Z" fill="#2C5DFE"/>
<path d="M2.45257 188.856H1.66064C1.74512 140.998 20.857 96.0232 55.5119 62.2313C92.0463 26.5598 141.04 7.57297 193.434 8.70289V9.49488C141.125 8.28049 92.3947 27.2884 56.0187 62.7699C21.5645 96.4139 2.53705 141.178 2.45257 188.856Z" fill="#2C5DFE"/>
<path d="M194.554 246.608C123.238 246.608 54.3928 235.51 20.9311 216.502L20.7305 216.386V216.153C20.9205 114.524 98.3502 21.4487 193.329 8.68173H193.466L193.582 8.7451C240.18 35.2189 277.928 139.382 277.738 240.948V241.297H277.4C249.932 244.892 222.256 246.667 194.554 246.608ZM21.5224 215.921C67.9823 242.184 182.432 253.229 276.946 240.578C277.052 139.467 239.567 35.9053 193.308 9.48429C98.8359 22.2618 21.8286 114.809 21.5224 215.921Z" fill="#2C5DFE"/>
<path d="M194.121 61.4393C158.114 61.4393 123.375 55.832 106.48 46.233L106.871 45.536C130.249 58.8204 188.102 64.4067 235.84 57.9862L235.945 58.7676C222.078 60.5831 208.106 61.4756 194.121 61.4393Z" fill="#2C5DFE"/>
<path d="M194.533 146.616C132.952 146.616 73.5045 137.028 44.5938 120.617L44.9844 119.92C85.0455 142.688 184.153 152.266 265.912 141.262L266.017 142.054C242.315 145.147 218.435 146.671 194.533 146.616Z" fill="#2C5DFE"/>
<path d="M87.601 237.168H86.8091C86.9463 135.591 134.705 33.0964 193.192 8.70291L193.498 9.43154C135.286 33.7195 87.7277 135.877 87.601 237.168Z" fill="#2C5DFE"/>
<path d="M179.465 246.059H178.673C178.852 144.599 185.283 38.2391 193.002 8.96689L193.772 9.16752C186.064 38.3869 179.644 144.652 179.465 246.059Z" fill="#2C5DFE"/>
<path d="M276.946 241.381V240.927C277.136 139.615 239.567 35.7364 193.192 9.41046L192.136 8.82966L193.297 8.68182C237.371 2.75768 279.301 15.0178 311.379 43.0756C328.438 58.099 341.929 76.7397 350.87 97.6389C360.479 119.73 365.347 143.965 365.326 169.679C379.728 177.916 386.444 187.103 384.638 196.248C380.879 215.657 339.773 232.923 277.369 241.318L276.946 241.381ZM194.596 9.33654C240.655 36.6868 277.812 139.805 277.738 240.494C339.54 232.131 380.161 215.15 383.888 196.142C385.599 187.314 378.989 178.38 364.766 170.302L364.565 170.186V169.954C364.565 144.261 359.771 120.058 350.184 97.998C341.277 77.2076 327.852 58.6623 310.883 43.7092C279.269 15.9576 238.004 3.782 194.596 9.33654Z" fill="#2C5DFE"/>
<path d="M235.903 58.7677L235.797 57.9863C267.01 53.7623 287.537 45.3143 289.395 35.7259C290.24 31.3752 286.945 26.94 279.892 22.9061L280.283 22.2197C287.674 26.4436 291.137 31.1534 290.219 35.8843C288.223 45.7578 267.464 54.5226 235.903 58.7677Z" fill="#2C5DFE"/>
<path d="M266.049 142.001L265.943 141.209C319.499 134.007 354.745 119.329 357.934 102.887C359.402 95.2945 353.71 87.6069 341.441 80.6373L341.831 79.9509C354.418 87.1 360.246 95.0834 358.726 103.046C355.442 119.825 319.9 134.747 266.049 142.001Z" fill="#2C5DFE"/>
<path d="M352.993 222.722H352.201C352.391 121.462 281.117 25.7994 193.318 9.46318L193.456 8.68173C281.613 25.0814 353.183 121.103 352.993 222.722Z" fill="#2C5DFE"/>
<path d="M384.427 197.24H383.635C383.825 96.0232 298.476 11.7864 193.382 9.46323V8.67123C298.92 11.005 384.617 95.5903 384.427 197.24Z" fill="#2C5DFE"/>
<path d="M192.621 377.393L192.505 377.33C145.919 350.856 108.159 246.693 108.349 145.138V144.789H108.698C203.56 132.022 318.612 143.163 365.156 169.605L365.357 169.721V169.954C365.167 271.572 287.737 364.647 192.759 377.414L192.621 377.393ZM109.141 145.486C109.046 246.587 146.52 350.149 192.78 376.57C287.252 363.782 364.248 271.224 364.565 170.144C318.074 143.881 203.655 132.888 109.141 145.486Z" fill="#2C5DFE"/>
<path d="M341.082 266.186C301.021 243.43 201.913 233.852 120.154 244.845L120.049 244.063C201.956 233.049 301.285 242.669 341.483 265.5L341.082 266.186Z" fill="#2C5DFE"/>
<path d="M279.259 340.518C255.881 327.234 198.028 321.647 150.29 328.068L150.185 327.286C198.059 320.845 256.145 326.473 279.649 339.832L279.259 340.518Z" fill="#2C5DFE"/>
<path d="M192.854 377.351L192.547 376.622C250.812 352.335 298.36 250.177 298.55 148.897H299.342C299.152 250.473 251.382 352.958 192.854 377.351Z" fill="#2C5DFE"/>
<path d="M193.086 377.087L192.326 376.886C200.023 347.667 206.443 241.402 206.633 140.005H207.425C207.235 241.466 200.805 347.815 193.086 377.087Z" fill="#2C5DFE"/>
<path d="M171.144 378.84C135.106 378.84 101.454 366.453 74.6766 342.936C57.6184 327.913 44.1269 309.272 35.1857 288.373C25.577 266.292 20.7198 242.057 20.7304 216.343C6.32779 208.107 -0.387768 198.919 1.41783 189.774C5.18742 170.365 46.2939 153.089 108.698 144.705L109.141 144.641V145.095C108.951 246.397 146.531 350.254 192.896 376.601L193.952 377.182L192.79 377.33C185.617 378.318 178.385 378.822 171.144 378.84ZM108.35 145.56C46.5473 153.923 5.92654 170.904 2.19919 189.912C0.488624 198.74 7.0986 207.674 21.3217 215.752L21.5223 215.868V216.1C21.5223 241.793 26.3161 265.996 35.9143 288.045C44.8106 308.836 58.2292 327.382 75.194 342.334C106.818 370.044 148.052 382.219 191.502 376.686C145.444 349.367 108.276 246.27 108.35 145.56Z" fill="#2C5DFE"/>
<path d="M44.3085 306.071C31.7327 298.933 25.8935 290.939 27.414 282.987C30.6662 266.208 66.1764 251.307 120.07 244.032L120.175 244.813C66.6199 252.015 31.3737 266.704 28.1954 283.135C26.7171 290.728 32.419 298.426 44.6781 305.385L44.3085 306.071Z" fill="#2C5DFE"/>
<path d="M105.858 363.834C98.4663 359.61 95.0029 354.901 95.911 350.18C97.8328 340.296 118.624 331.531 150.185 327.286L150.29 328.068C119.078 332.292 98.5508 340.793 96.6924 350.328C95.8477 354.689 99.1527 359.114 106.196 363.148L105.858 363.834Z" fill="#2C5DFE"/>
<path d="M192.632 377.372C104.496 360.983 32.905 264.951 33.0951 163.343H33.887C33.697 264.592 104.971 360.255 192.78 376.591L192.632 377.372Z" fill="#2C5DFE"/>
<path d="M192.696 377.383C87.1683 375.049 1.4709 290.464 1.66096 188.824H2.45289C2.26283 290.041 87.6118 374.268 192.717 376.591L192.696 377.383Z" fill="#2C5DFE"/>
<path d="M213.961 383.497C206.438 383.352 199.083 381.248 192.621 377.393C185.503 378.354 178.327 378.837 171.144 378.84C135.106 378.84 101.454 366.453 74.6765 342.936C57.6183 327.913 44.1268 309.272 35.1856 288.373C25.5452 266.197 20.688 241.909 20.7303 216.111V215.435L21.311 215.763C67.7709 242.162 182.559 253.24 277.284 240.494L277.727 240.431V240.885C277.601 309.472 260.125 362.176 232.112 378.439C226.623 381.717 220.355 383.464 213.961 383.497ZM192.78 376.57L192.896 376.644C206.623 384.416 219.653 384.806 231.722 377.805C259.429 361.712 276.745 309.461 276.946 241.381C182.569 253.99 68.3728 242.997 21.5222 216.829C21.5222 242.268 26.4005 266.239 35.9142 288.098C44.8105 308.889 58.2291 327.435 75.1939 342.387C107.093 370.339 148.812 382.515 192.653 376.591L192.78 376.57Z" fill="#2C5DFE"/>
<path d="M194.184 332.112C132.604 332.112 73.1563 322.524 44.2456 306.103L44.6363 305.417C84.6974 328.184 183.805 337.762 265.574 326.758L265.68 327.55C241.974 330.642 218.091 332.166 194.184 332.112Z" fill="#2C5DFE"/>
<path d="M193.529 379.051C157.523 379.051 122.784 373.444 105.889 363.834L106.28 363.148C129.658 376.432 187.511 382.019 235.238 375.598L235.343 376.38C221.48 378.195 207.511 379.088 193.529 379.051Z" fill="#2C5DFE"/>
<path d="M168.008 382.61C156.812 382.58 145.885 379.18 136.648 372.853C105.287 351.902 86.6293 301.182 86.756 237.168H87.6007C87.474 300.918 106.005 351.395 137.144 372.198C153.753 383.286 172.929 384.817 192.6 376.622L192.906 377.351C185.038 380.739 176.574 382.526 168.008 382.61Z" fill="#2C5DFE"/>
<path d="M188.852 384.891H188.683C181.587 383.962 178.546 314.498 178.673 246.07H179.465C179.296 335.829 184.026 383.487 188.778 384.11C189.242 384.11 190.552 383.592 192.326 376.897L193.086 377.098C191.682 382.399 190.341 384.891 188.852 384.891Z" fill="#2C5DFE"/>
<path d="M213.961 383.497C206.971 383.497 199.749 381.438 192.505 377.33L191.449 376.749L192.611 376.591C213.228 373.736 233.182 367.277 251.562 357.509C267.475 332.535 276.809 290.981 276.904 240.927V240.6H277.252C311.675 235.974 339.551 228.667 358.219 219.828C362.364 203.532 364.492 186.789 364.555 169.975V169.299L365.146 169.626C379.707 177.831 386.422 187.061 384.67 196.248C383.001 204.865 373.963 213.07 358.958 220.251C343.933 279.386 303.777 330.845 252.132 358.121C246.293 367.235 239.577 374.151 232.123 378.481C226.626 381.746 220.355 383.479 213.961 383.497ZM193.899 377.214C207.214 384.437 219.927 384.606 231.69 377.805C238.733 373.708 245.11 367.245 250.696 358.85C232.942 368.121 213.751 374.329 193.931 377.214H193.899ZM277.706 241.275C277.569 290.548 268.478 331.595 252.945 356.78C303.629 329.557 343.025 278.922 357.997 220.694C339.329 229.459 311.696 236.682 277.738 241.275H277.706ZM365.347 170.598C365.239 187.026 363.168 203.384 359.18 219.321C373.593 212.331 382.273 204.411 383.878 196.089C385.578 187.398 379.168 178.581 365.357 170.598H365.347Z" fill="#2C5DFE"/>
<path d="M265.701 327.55L265.595 326.758C319.14 319.557 354.386 304.878 357.575 288.436C359.043 280.844 353.352 273.156 341.082 266.187L341.483 265.5C354.059 272.649 359.898 280.633 358.378 288.595C355.094 305.375 319.594 320.296 265.701 327.55Z" fill="#2C5DFE"/>
<path d="M235.312 376.38L235.206 375.598C266.429 371.374 286.945 362.926 288.804 353.338C289.649 348.987 286.354 344.552 279.301 340.518L279.691 339.832C287.083 344.056 290.546 348.765 289.627 353.496C287.674 363.37 266.873 372.134 235.312 376.38Z" fill="#2C5DFE"/>
<path d="M218.09 379.759C209.549 379.746 201.027 378.947 192.632 377.372L192.78 376.591C231.5 383.803 268.858 374.479 297.99 350.296C332.349 321.785 352.105 275.321 352.2 222.722H352.992C352.897 275.521 333.036 322.249 298.486 350.898C275.929 369.699 247.453 379.921 218.09 379.759Z" fill="#2C5DFE"/>
<path d="M197.204 377.425C195.705 377.425 194.205 377.425 192.695 377.425V376.633C244.899 377.784 293.672 358.85 330.058 323.326C364.502 289.682 383.529 244.919 383.614 197.283H384.406C384.321 245.14 365.209 290.105 330.607 323.897C295.15 358.502 247.909 377.425 197.204 377.425Z" fill="#2C5DFE"/>
<path d="M193.255 384.944C188.926 384.944 185.23 384.775 183.298 384.69C180.531 384.564 174.175 384.078 169.888 383.529C165.601 382.98 165.664 382.98 159.645 381.998C158.515 381.818 157.185 381.554 155.886 381.29L154.186 380.952C146.425 379.34 138.77 377.256 131.262 374.711C126.891 373.159 121.759 371.184 118.159 369.695C115.128 368.428 111.169 366.612 108.328 365.176C103.936 362.947 98.4027 359.896 94.6014 357.657C90.8001 355.418 86.5132 352.641 83.6516 350.571C75.4842 344.879 67.7641 338.57 60.559 331.7C57.1378 328.427 53.2732 324.456 50.6968 321.573C47.6241 318.141 43.3055 313.009 40.1905 308.901C33.9755 300.718 28.4215 292.052 23.5811 282.987C19.1123 274.156 15.1498 265.077 11.7127 255.795C9.8478 250.605 8.26513 245.317 6.9717 239.955C6.20089 236.925 5.47232 233.218 4.76486 229.649C4.44809 228.033 4.14187 226.481 3.84621 225.055C2.79995 219.537 2.11218 213.957 1.7872 208.35L1.7344 207.505C1.23308 201.383 1.06038 195.239 1.21702 189.099C1.29093 187.863 1.35429 186.512 1.41764 185.118C1.59714 181.295 1.80832 176.955 2.16733 173.502C2.67815 167.878 3.49595 162.287 4.61704 156.754C4.87045 155.698 5.12386 154.473 5.3984 153.248C6.21145 149.509 7.14064 145.285 8.06984 141.98C9.50587 136.89 11.586 130.459 13.2649 125.971C14.9438 121.483 17.2034 116.077 19.009 112.243C20.35 109.392 23.8134 102.222 26.9389 97.0264C31.7433 89.022 38.7439 79.1801 43.2738 73.182C45.7024 70.014 49.1446 66.2336 52.1856 62.9389C53.2415 61.8829 54.1602 60.8269 55.0366 59.7709C58.2082 56.3621 61.5639 53.1294 65.0888 50.0874C69.7137 46.064 76.0808 41.0692 80.4628 37.6689C84.5607 34.5688 88.8375 31.7127 93.271 29.1153C98.9306 25.7889 106.765 21.5966 112.752 18.6926C116.29 16.9714 121.696 14.7326 127.218 12.7051C131.495 11.1211 137.112 9.31538 141.177 8.20659C147.81 6.33335 154.539 4.81758 161.335 3.6658C164.935 3.01108 172.116 2.05013 177.427 1.63829C181.196 1.35317 184.153 1.17365 186.222 1.12086C191.988 0.973016 192.558 0.962456 198.703 1.12086C199.516 1.12086 206.897 1.30037 216.242 2.44085C221.733 3.10613 226.305 3.9298 226.495 3.97204C228.216 4.28884 230.644 4.74292 232.471 5.12308C233.812 5.4082 235.459 5.78836 236.98 6.17908L238.817 6.60148C240.792 7.05556 243.526 7.79475 246.937 8.78739C248.817 9.34707 251.414 10.1707 254.856 11.3112C259.323 12.7791 264.476 14.7538 267.981 16.3378C270.579 17.5099 273.451 18.8721 276.291 20.2766C280.142 22.0296 283.915 23.955 287.611 26.0529L287.843 26.1902C293.602 29.4739 299.188 33.0514 304.579 36.9086C308.317 39.7386 313.955 44.0154 317.936 47.3735C319.425 48.6301 324.567 53.0231 328.2 56.8774L328.886 57.5955C332.233 61.112 336.404 65.4838 339.445 69.0003C342.074 72.0627 345.654 76.614 348.357 80.3206C351.06 84.0271 354.692 89.55 357.406 93.9112C360.278 98.621 362.95 103.415 364.533 106.773C366.455 110.839 369.369 116.974 371.26 121.621C372.685 125.137 374.565 130.406 376.286 135.718C379.058 144.429 381.175 153.335 382.621 162.361C384.149 172.62 384.964 182.972 385.06 193.344C385.06 198.413 384.722 205.266 384.279 210.388C383.973 213.925 383.329 218.35 382.758 222.257C382.589 223.45 382.42 224.601 382.273 225.657C381.368 231.167 380.18 236.627 378.714 242.015C377.658 246.154 375.906 251.793 374.29 256.387C372.674 260.98 370.309 266.947 368.102 271.847C366.856 274.634 365.167 277.897 363.541 281.065C362.823 282.459 362.126 283.8 361.514 285.025C358.818 290.012 355.854 294.849 352.633 299.514C350.965 302.038 348.79 304.952 346.689 307.772C345.791 308.975 344.936 310.126 344.165 311.193C340.543 315.881 336.666 320.365 332.55 324.625C329.319 328.078 325.402 331.933 322.582 334.446C318.464 338.11 312.541 343 307.493 346.917C304.03 349.61 299.289 352.736 296.776 354.362C293.819 356.263 289.849 358.586 286.65 360.434L285.678 360.994C279.29 364.641 272.653 367.834 265.817 370.551C259.978 372.831 255.543 374.447 252.269 375.514C248.162 376.844 242.523 378.439 238.215 379.484C233.738 380.54 228.48 381.67 224.816 382.272L224.32 382.346C222.493 382.652 220.223 383.011 218.47 383.233C215.302 383.634 211.226 384.057 208.703 384.289C208.492 384.289 203.244 384.806 195.694 384.923L193.255 384.944ZM192.716 1.94453C190.921 1.94453 189.327 1.94453 186.201 2.06069C184.142 2.11349 181.196 2.29301 177.448 2.57813C172.168 2.98997 165.009 3.94037 161.43 4.59508C154.668 5.75057 147.972 7.25919 141.368 9.11475C137.313 10.1707 131.727 12.0187 127.461 13.5922C121.971 15.6197 116.585 17.8161 113.08 19.548C107.103 22.452 99.3002 26.6232 93.6511 29.939C89.2459 32.4998 84.9972 35.3208 80.9274 38.387C76.5454 41.7873 70.1994 46.7716 65.5851 50.7844C62.0848 53.8054 58.7537 57.0169 55.6068 60.4045L52.7453 63.5725C49.7148 66.8461 46.2937 70.5631 43.8862 73.7523C39.3669 79.7398 32.3874 89.5922 27.5936 97.5227C24.4892 102.697 21.0364 109.846 19.7059 112.676C17.9109 116.457 15.6724 121.811 13.9829 126.309C12.2935 130.808 10.2345 137.186 8.80899 142.255C7.89035 145.539 6.96115 149.763 6.1481 153.48C5.88412 154.705 5.62014 155.898 5.36672 156.986C4.25498 162.493 3.44075 168.055 2.92758 173.649C2.57913 177.05 2.36795 181.369 2.18845 185.181C2.12509 186.585 2.06174 187.937 1.98782 189.173C1.83318 195.281 2.00236 201.393 2.49465 207.484L2.54745 208.328C2.87785 213.9 3.5656 219.445 4.60647 224.929C4.90212 226.344 5.20834 227.907 5.52512 229.522C6.22202 233.092 6.95059 236.777 7.72141 239.787C9.00515 245.116 10.5772 250.372 12.4307 255.531C15.4823 263.515 20.0121 274.698 24.2569 282.628C29.0718 291.666 34.6087 300.301 40.8135 308.447C43.8545 312.513 48.2049 317.624 51.267 321.045C53.8223 323.907 57.6764 327.867 61.0764 331.13C68.2614 337.966 75.9527 344.25 84.0846 349.927C86.9355 351.976 91.212 354.753 94.9815 356.97C98.7511 359.188 104.326 362.25 108.708 364.468C111.538 365.904 115.466 367.71 118.486 368.967C122.055 370.445 127.187 372.409 131.548 373.961C139.017 376.502 146.633 378.586 154.355 380.202L156.066 380.54C157.354 380.794 158.684 381.058 159.793 381.237C165.759 382.219 165.759 382.219 170.004 382.768C174.248 383.318 180.563 383.824 183.329 383.919C185.631 384.014 190.383 384.226 195.726 384.152C203.244 384.036 208.46 383.55 208.671 383.529C211.184 383.286 215.249 382.874 218.417 382.473C220.149 382.251 222.419 381.881 224.235 381.586L224.731 381.512C228.374 380.91 233.612 379.822 238.078 378.734C242.354 377.678 247.982 376.105 252.069 374.775C255.321 373.719 259.745 372.103 265.574 369.832C272.371 367.125 278.972 363.949 285.33 360.328L286.291 359.769C289.458 357.921 293.45 355.608 296.396 353.718C298.402 352.409 303.481 349.093 307.05 346.326C312.087 342.419 317.989 337.53 322.096 333.886C324.905 331.384 328.802 327.55 332.011 324.118C336.095 319.881 339.938 315.418 343.521 310.749C344.292 309.693 345.158 308.532 346.055 307.339C348.167 304.519 350.279 301.605 351.968 299.102C355.139 294.462 358.061 289.658 360.722 284.709C361.334 283.484 362.031 282.132 362.749 280.738C364.375 277.57 366.054 274.339 367.289 271.572C369.496 266.63 371.914 260.59 373.466 256.176C375.019 251.762 376.803 245.911 377.859 241.856C379.319 236.5 380.504 231.072 381.407 225.594C381.555 224.538 381.724 223.376 381.893 222.194C382.463 218.297 383.096 213.872 383.402 210.356C383.846 205.255 384.152 198.434 384.184 193.375C384.082 183.024 383.26 172.693 381.724 162.456C380.305 153.474 378.215 144.61 375.473 135.94C373.751 130.66 371.883 125.38 370.457 121.895C368.578 117.27 365.674 111.145 363.752 107.111C362.179 103.795 359.528 99.0117 356.656 94.3231C354.006 89.9724 350.384 84.534 347.66 80.7852C344.936 77.0364 341.398 72.559 338.78 69.5177C335.771 66.0118 331.61 61.6506 328.274 58.1446L327.587 57.4266C323.976 53.6355 318.865 49.2743 317.387 48.0176C313.417 44.6807 307.789 40.4039 304.062 37.5844C298.687 33.7476 293.122 30.1844 287.389 26.9083L287.178 26.7921C284.01 25.1236 280.008 23.0433 275.922 21.0369C250.759 9.55826 222.535 5.55604 193.561 9.42099H193.477L193.371 8.63954C216.039 5.44358 239.135 7.3889 260.949 14.3314C258.837 13.5288 256.63 12.7474 254.614 12.0715C251.171 10.9311 248.584 10.1074 246.715 9.55826C243.315 8.56563 240.602 7.83699 238.638 7.38291L236.8 6.96051C235.29 6.61203 233.633 6.22131 232.302 5.90452C230.486 5.5138 228.079 5.05972 226.357 4.75348C226.157 4.75348 221.616 3.88756 216.147 3.22229C206.844 2.09237 199.495 1.92341 198.682 1.91285C195.852 1.94453 194.247 1.94453 192.716 1.94453Z" fill="#2C5DFE"/>
<path d="M365.357 170.587L364.766 170.26C318.306 143.86 203.529 132.783 108.804 145.528L108.35 145.592V145.138C108.476 76.5508 125.962 23.8355 153.975 7.57313C166.097 0.529636 179.75 0.909795 193.466 8.62913C237.54 2.76835 279.364 14.9968 311.453 43.1285C328.512 58.1519 342.003 76.7926 350.944 97.6918C360.585 119.868 365.442 144.156 365.4 169.964L365.357 170.587ZM191.534 139.456C262.428 139.456 330.914 150.428 364.565 169.236C364.565 143.797 359.687 119.815 350.184 97.9558C341.277 77.1655 327.852 58.6202 310.883 43.6671C278.984 15.7149 237.276 3.53923 193.435 9.46336H193.308L193.192 9.38944C179.465 1.61731 166.435 1.22659 154.366 8.22784C126.67 24.3423 109.353 76.593 109.142 144.684C136.462 141.138 163.985 139.392 191.534 139.456Z" fill="#2C5DFE"/>
<path d="M279.85 22.9062C256.472 9.62176 198.608 4.05666 150.881 10.456L150.776 9.67456C198.651 3.23299 256.726 8.86145 280.241 22.2198L279.85 22.9062Z" fill="#2C5DFE"/>
<path d="M341.43 80.6375C301.369 57.9124 202.262 48.3029 120.503 59.2958L120.397 58.5143C202.294 47.5003 301.633 57.1204 341.821 79.951L341.43 80.6375Z" fill="#2C5DFE"/>
<path d="M299.342 148.897H298.55C298.666 85.1466 280.145 34.67 248.996 13.8563C232.387 2.76833 213.211 1.18433 193.54 9.43166L193.191 8.70303C213.127 0.402901 232.556 1.95522 249.397 13.2016C280.832 34.1525 299.458 84.8826 299.342 148.897Z" fill="#2C5DFE"/>
<path d="M207.425 140.006H206.633C206.792 50.2459 202.072 2.57822 197.31 1.96575C196.845 1.90239 195.536 2.47262 193.772 9.16763L193.001 8.967C194.459 3.44414 195.863 0.96255 197.415 1.17375C204.5 2.10303 207.552 71.5664 207.425 140.006Z" fill="#2C5DFE"/>
<path d="M21.5224 216.829L20.9311 216.502C6.39125 208.233 -0.35599 199.004 1.41793 189.817C3.09683 181.2 12.1354 172.995 27.1398 165.804C42.1971 106.636 82.3215 55.2091 133.955 27.9327C139.795 18.8194 146.51 11.9027 154.018 7.57309C166.171 0.508474 179.866 0.909749 193.625 8.72412L194.681 9.30492L193.508 9.46332C172.894 12.3133 152.942 18.7726 134.568 28.5452C118.645 53.5195 109.31 95.0729 109.226 145.138V145.486H108.888C74.455 150.111 46.5896 157.419 27.9106 166.258C23.7658 182.553 21.638 199.297 21.5752 216.111L21.5224 216.829ZM26.897 166.743C12.4838 173.734 3.81483 181.654 2.19929 189.975C0.509843 198.677 6.9192 207.484 20.741 215.478C20.8453 199.046 22.912 182.685 26.897 166.743ZM133.121 29.2738C82.4377 56.4974 43.0312 107.143 28.0585 165.371C46.7586 156.606 74.3917 149.383 108.307 144.789C108.487 95.5164 117.589 54.4593 133.121 29.2738ZM172.19 3.27518C165.907 3.3147 159.751 5.04357 154.366 8.2806C147.323 12.3779 140.956 18.8406 135.36 27.2885C153.111 17.9849 172.307 11.7477 192.136 8.84028C186.044 5.3403 179.171 3.42672 172.148 3.27518H172.19Z" fill="#2C5DFE"/>
<path d="M106.438 46.2331C99.0471 42.0091 95.5837 37.2888 96.5024 32.5685C98.4241 22.6949 119.215 13.9196 150.776 9.6745L150.882 10.4559C119.669 14.6799 99.1422 23.1279 97.2838 32.7163C96.439 37.0776 99.744 41.5128 106.787 45.5361L106.438 46.2331Z" fill="#2C5DFE"/>
<path d="M44.615 120.565C32.0286 113.416 26.2 105.432 27.7205 97.4701C30.9727 80.6903 66.4723 65.7902 120.376 58.5144L120.482 59.2958C66.9474 66.4977 31.7013 81.1444 28.4702 97.6179C27.0025 105.211 32.6938 112.909 44.9634 119.868L44.615 120.565Z" fill="#2C5DFE"/>
<path d="M33.8871 163.343H33.0952C33.1902 110.543 53.0624 63.8154 87.6011 35.1557C116.913 10.8678 154.503 1.43774 193.456 8.68187L193.318 9.46331C154.598 2.26142 117.24 11.5753 88.1079 35.7576C53.7487 64.2484 33.9822 110.776 33.8871 163.343Z" fill="#2C5DFE"/>
<path d="M2.45257 188.856H1.66064C1.74512 140.998 20.857 96.0233 55.5119 62.2314C92.0463 26.5598 141.04 7.57303 193.434 8.70295V9.49495C141.125 8.28055 92.3947 27.2885 56.0187 62.7699C21.5645 96.414 2.53705 141.178 2.45257 188.856Z" fill="#2C5DFE"/>
<path d="M194.554 246.608C123.238 246.608 54.3928 235.51 20.9311 216.502L20.7305 216.386V216.153C20.9205 114.524 98.3502 21.4488 193.329 8.68179H193.466L193.582 8.74516C240.18 35.219 277.928 139.382 277.738 240.948V241.297H277.4C249.932 244.892 222.256 246.667 194.554 246.608ZM21.5224 215.921C67.9823 242.184 182.432 253.229 276.946 240.579C277.052 139.467 239.567 35.9054 193.308 9.48435C98.8359 22.2619 21.8286 114.809 21.5224 215.921Z" fill="#2C5DFE"/>
<path d="M194.121 61.4394C158.114 61.4394 123.375 55.832 106.48 46.233L106.871 45.5361C130.249 58.8205 188.102 64.4067 235.84 57.9863L235.945 58.7677C222.078 60.5832 208.106 61.4757 194.121 61.4394Z" fill="#2C5DFE"/>
<path d="M194.533 146.616C132.952 146.616 73.5045 137.028 44.5938 120.617L44.9844 119.921C85.0455 142.688 184.153 152.266 265.912 141.262L266.017 142.054C242.315 145.147 218.435 146.671 194.533 146.616Z" fill="#2C5DFE"/>
<path d="M87.601 237.168H86.8091C86.9463 135.591 134.705 33.0965 193.192 8.70297L193.498 9.4316C135.286 33.7195 87.7277 135.877 87.601 237.168Z" fill="#2C5DFE"/>
<path d="M179.465 246.059H178.673C178.852 144.599 185.283 38.2392 193.002 8.96695L193.772 9.16758C186.064 38.387 179.644 144.652 179.465 246.059Z" fill="#2C5DFE"/>
<path d="M276.946 241.381V240.927C277.136 139.615 239.567 35.7365 193.192 9.41052L192.136 8.82972L193.297 8.68188C237.371 2.75775 279.301 15.0179 311.379 43.0757C328.438 58.0991 341.929 76.7398 350.87 97.639C360.479 119.73 365.347 143.966 365.326 169.679C379.728 177.916 386.444 187.103 384.638 196.248C380.879 215.657 339.773 232.923 277.369 241.318L276.946 241.381ZM194.596 9.3366C240.655 36.6869 277.812 139.805 277.738 240.494C339.54 232.131 380.161 215.15 383.888 196.142C385.599 187.314 378.989 178.38 364.766 170.302L364.565 170.186V169.954C364.565 144.261 359.771 120.058 350.184 97.998C341.277 77.2077 327.852 58.6624 310.883 43.7093C279.269 15.9577 238.004 3.78206 194.596 9.3366Z" fill="#2C5DFE"/>
<path d="M235.903 58.7678L235.797 57.9864C267.01 53.7624 287.537 45.3145 289.395 35.726C290.24 31.3753 286.945 26.9401 279.892 22.9062L280.283 22.2198C287.674 26.4438 291.137 31.1535 290.219 35.8844C288.223 45.758 267.464 54.5227 235.903 58.7678Z" fill="#2C5DFE"/>
<path d="M266.049 142.001L265.944 141.209C319.499 134.007 354.746 119.329 357.934 102.887C359.402 95.2946 353.711 87.607 341.441 80.6374L341.832 79.951C354.418 87.1001 360.247 95.0834 358.726 103.046C355.442 119.825 319.901 134.747 266.049 142.001Z" fill="#2C5DFE"/>
<path d="M352.993 222.722H352.201C352.391 121.462 281.117 25.7995 193.318 9.46324L193.456 8.68179C281.613 25.0814 353.183 121.103 352.993 222.722Z" fill="#2C5DFE"/>
<path d="M384.427 197.241H383.635C383.825 96.0233 298.476 11.7865 193.382 9.46329V8.6713C298.92 11.005 384.617 95.5903 384.427 197.241Z" fill="#2C5DFE"/>
<path d="M192.621 377.393L192.505 377.33C145.919 350.856 108.159 246.693 108.349 145.138V144.789H108.698C203.56 132.022 318.612 143.163 365.156 169.605L365.357 169.721V169.954C365.167 271.572 287.737 364.648 192.759 377.415L192.621 377.393ZM109.141 145.486C109.046 246.587 146.52 350.149 192.78 376.57C287.252 363.782 364.248 271.224 364.565 170.144C318.074 143.881 203.655 132.888 109.141 145.486Z" fill="#2C5DFE"/>
<path d="M341.082 266.186C301.021 243.43 201.913 233.852 120.154 244.845L120.049 244.063C201.956 233.049 301.285 242.669 341.483 265.5L341.082 266.186Z" fill="#2C5DFE"/>
<path d="M279.259 340.518C255.881 327.234 198.028 321.647 150.29 328.068L150.185 327.286C198.059 320.845 256.145 326.473 279.649 339.832L279.259 340.518Z" fill="#2C5DFE"/>
<path d="M192.854 377.351L192.547 376.623C250.812 352.335 298.36 250.178 298.55 148.897H299.342C299.152 250.473 251.382 352.958 192.854 377.351Z" fill="#2C5DFE"/>
<path d="M193.086 377.087L192.326 376.886C200.023 347.667 206.443 241.402 206.633 140.005H207.425C207.235 241.466 200.805 347.815 193.086 377.087Z" fill="#2C5DFE"/>
<path d="M171.144 378.84C135.106 378.84 101.454 366.453 74.6766 342.936C57.6184 327.913 44.1269 309.272 35.1857 288.373C25.577 266.292 20.7198 242.057 20.7304 216.343C6.32779 208.107 -0.387768 198.919 1.41783 189.775C5.18742 170.365 46.2939 153.089 108.698 144.705L109.141 144.641V145.095C108.951 246.397 146.531 350.254 192.896 376.601L193.952 377.182L192.79 377.33C185.617 378.318 178.385 378.822 171.144 378.84ZM108.35 145.56C46.5473 153.923 5.92654 170.904 2.19919 189.912C0.488624 198.74 7.0986 207.674 21.3217 215.752L21.5223 215.868V216.101C21.5223 241.793 26.3161 265.996 35.9143 288.046C44.8106 308.836 58.2292 327.382 75.194 342.334C106.818 370.044 148.052 382.219 191.502 376.686C145.444 349.367 108.276 246.27 108.35 145.56Z" fill="#2C5DFE"/>
<path d="M44.309 306.071C31.7332 298.933 25.894 290.939 27.4145 282.987C30.6667 266.208 66.1769 251.307 120.07 244.032L120.176 244.813C66.6203 252.015 31.3742 266.704 28.1959 283.135C26.7176 290.728 32.4195 298.426 44.6786 305.385L44.309 306.071Z" fill="#2C5DFE"/>
<path d="M105.858 363.835C98.4663 359.611 95.0029 354.901 95.911 350.18C97.8328 340.296 118.624 331.532 150.185 327.286L150.29 328.068C119.078 332.292 98.5508 340.793 96.6924 350.328C95.8477 354.69 99.1527 359.114 106.196 363.148L105.858 363.835Z" fill="#2C5DFE"/>
<path d="M192.632 377.372C104.496 360.983 32.905 264.951 33.0951 163.343H33.887C33.697 264.592 104.971 360.255 192.78 376.591L192.632 377.372Z" fill="#2C5DFE"/>
<path d="M192.696 377.383C87.1683 375.049 1.4709 290.464 1.66096 188.824H2.45289C2.26283 290.042 87.6118 374.268 192.717 376.591L192.696 377.383Z" fill="#2C5DFE"/>
<path d="M213.961 383.497C206.438 383.352 199.083 381.248 192.621 377.393C185.503 378.354 178.327 378.837 171.144 378.84C135.106 378.84 101.454 366.453 74.6765 342.936C57.6183 327.913 44.1268 309.272 35.1856 288.373C25.5452 266.197 20.688 241.909 20.7303 216.111V215.435L21.311 215.763C67.7709 242.163 182.559 253.24 277.284 240.494L277.727 240.431V240.885C277.601 309.472 260.125 362.176 232.112 378.439C226.623 381.717 220.355 383.464 213.961 383.497ZM192.78 376.57L192.896 376.644C206.623 384.416 219.653 384.806 231.722 377.805C259.429 361.712 276.745 309.461 276.946 241.381C182.569 253.99 68.3728 242.997 21.5222 216.829C21.5222 242.268 26.4005 266.239 35.9142 288.098C44.8105 308.889 58.2291 327.435 75.1939 342.387C107.093 370.339 148.812 382.515 192.653 376.591L192.78 376.57Z" fill="#2C5DFE"/>
<path d="M194.184 332.112C132.604 332.112 73.1563 322.524 44.2456 306.103L44.6363 305.417C84.6974 328.184 183.805 337.762 265.574 326.758L265.68 327.55C241.974 330.643 218.091 332.166 194.184 332.112Z" fill="#2C5DFE"/>
<path d="M193.529 379.051C157.523 379.051 122.784 373.444 105.889 363.834L106.28 363.148C129.658 376.432 187.511 382.019 235.238 375.598L235.343 376.38C221.48 378.195 207.511 379.088 193.529 379.051Z" fill="#2C5DFE"/>
<path d="M168.008 382.61C156.812 382.58 145.885 379.18 136.648 372.853C105.287 351.902 86.6293 301.182 86.756 237.168H87.6007C87.474 300.918 106.005 351.395 137.144 372.198C153.753 383.286 172.929 384.817 192.6 376.623L192.906 377.351C185.038 380.739 176.574 382.527 168.008 382.61Z" fill="#2C5DFE"/>
<path d="M188.852 384.891H188.683C181.588 383.962 178.547 314.498 178.673 246.07H179.465C179.296 335.829 184.027 383.487 188.778 384.11C189.243 384.11 190.552 383.592 192.326 376.897L193.086 377.098C191.682 382.399 190.341 384.891 188.852 384.891Z" fill="#2C5DFE"/>
<path d="M213.961 383.497C206.971 383.497 199.749 381.438 192.505 377.33L191.449 376.749L192.611 376.591C213.228 373.736 233.182 367.277 251.562 357.509C267.475 332.535 276.809 290.981 276.904 240.927V240.6H277.252C311.675 235.974 339.551 228.667 358.219 219.828C362.364 203.532 364.492 186.789 364.555 169.975V169.299L365.146 169.626C379.707 177.831 386.422 187.061 384.67 196.248C383.001 204.865 373.963 213.07 358.958 220.251C343.933 279.386 303.777 330.845 252.132 358.121C246.293 367.235 239.577 374.151 232.123 378.481C226.626 381.746 220.355 383.479 213.961 383.497ZM193.899 377.214C207.214 384.437 219.927 384.606 231.69 377.805C238.733 373.708 245.11 367.245 250.696 358.85C232.942 368.121 213.751 374.329 193.931 377.214H193.899ZM277.706 241.275C277.569 290.548 268.478 331.595 252.945 356.78C303.629 329.557 343.025 278.922 357.997 220.694C339.329 229.459 311.696 236.682 277.738 241.275H277.706ZM365.347 170.598C365.239 187.027 363.168 203.384 359.18 219.321C373.593 212.331 382.273 204.411 383.878 196.089C385.578 187.399 379.168 178.581 365.357 170.598H365.347Z" fill="#2C5DFE"/>
<path d="M265.701 327.55L265.595 326.758C319.14 319.557 354.386 304.878 357.575 288.436C359.043 280.844 353.352 273.156 341.082 266.187L341.483 265.5C354.059 272.649 359.898 280.633 358.378 288.595C355.094 305.375 319.594 320.296 265.701 327.55Z" fill="#2C5DFE"/>
<path d="M235.312 376.38L235.206 375.598C266.429 371.374 286.945 362.926 288.804 353.338C289.649 348.987 286.354 344.552 279.301 340.518L279.691 339.832C287.083 344.056 290.546 348.765 289.627 353.496C287.674 363.37 266.873 372.134 235.312 376.38Z" fill="#2C5DFE"/>
<path d="M218.09 379.759C209.549 379.746 201.027 378.947 192.632 377.372L192.78 376.591C231.5 383.803 268.858 374.479 297.99 350.297C332.349 321.785 352.105 275.321 352.2 222.722H352.992C352.897 275.521 333.036 322.249 298.486 350.898C275.929 369.699 247.453 379.921 218.09 379.759Z" fill="#2C5DFE"/>
<path d="M197.204 377.425C195.705 377.425 194.205 377.425 192.695 377.425V376.633C244.899 377.784 293.672 358.85 330.058 323.326C364.502 289.682 383.529 244.919 383.614 197.283H384.406C384.321 245.14 365.209 290.105 330.607 323.897C295.15 358.502 247.909 377.425 197.204 377.425Z" fill="#2C5DFE"/>
<path d="M193.002 384.944H191.566C188.947 384.891 185.611 384.796 183.277 384.701C178.24 384.49 172.644 383.856 169.962 383.55C165.971 383.096 160.206 382.114 159.825 382.04C155.169 381.174 151.843 380.551 147.841 379.537C145.476 378.946 142.783 378.259 140.766 377.678C138.116 376.918 135.107 376.031 132.868 375.25L131.664 374.817C128.993 373.887 125.677 372.705 123.217 371.733C118.888 370.033 115.689 368.671 113.418 367.573C109.955 365.883 103.408 362.652 98.5618 359.959C94.3381 357.593 90.1145 355.059 87.4958 353.169C86.535 352.482 85.4579 351.743 84.3281 350.983C81.6778 349.145 78.9324 347.255 76.7573 345.545C74.8038 344.013 68.0249 338.649 62.9249 333.929C60.2429 331.447 56.0087 327.36 52.9149 323.992C50.159 320.993 45.0167 315.28 41.5111 310.644C35.0869 302.401 29.3483 293.645 24.3526 284.466C19.7853 275.696 15.7446 266.662 12.2519 257.411C10.3339 252.155 8.69847 246.801 7.35253 241.37C6.55004 238.371 5.80034 234.697 5.07176 231.148C4.74443 229.522 4.4171 227.98 4.11089 226.523C3.01874 220.986 2.28162 215.385 1.90404 209.754C1.48168 204.02 1.19659 197.335 1.18604 192.721C1.18604 189.299 1.41833 185.001 1.62951 181.21C1.71399 179.753 1.78789 178.359 1.85125 177.081C2.22094 170.767 3.05383 164.488 4.34319 158.295L5.00841 155.212C5.82146 151.326 6.75067 146.922 7.69042 143.48C9.02087 138.559 11.0165 132.223 12.6532 127.714C14.2265 123.373 16.4756 117.84 18.2706 113.986C19.5271 111.251 22.7688 104.334 25.7464 99.2545C30.2868 91.4824 37.0235 81.7144 41.8068 75.1673C45.1597 70.8055 48.7297 66.615 52.5031 62.6115C56.4839 58.273 60.6887 54.1455 65.1001 50.2458C67.8665 47.8698 77.5386 39.6858 85.7642 34.1101C89.7766 31.3857 95.8481 27.5313 100.853 24.8807L101.719 24.4161C104.485 22.9483 107.938 21.1214 110.641 19.8436C113.344 18.5659 118.592 16.1476 122.584 14.627L124.072 14.0462C125.867 13.3598 127.895 12.5678 129.542 12.0293C133.1 10.8571 139.045 8.86128 143.48 7.73136C151.403 5.61328 159.451 3.99094 167.576 2.87378L167.629 3.26449L167.576 2.87378C172.454 2.21906 177.797 1.70162 181.873 1.49042C185.473 1.30034 186.814 1.22642 190.426 1.17362C194.037 1.12082 197.711 1.17362 198.715 1.24754C201.249 1.33202 203.646 1.4165 207.162 1.6805C210.678 1.9445 212.515 2.13458 216.19 2.55698C219.357 2.93714 219.79 3.0005 226.253 4.05649C227.499 4.25713 228.987 4.55281 230.307 4.81681L231.764 5.10192C235.207 5.7672 241.7 7.36176 245.375 8.43888C250.38 9.89615 256.779 12.0187 261.319 13.7189C265.12 15.1445 269.608 17.0241 272.755 18.5131C276.978 20.5195 282.965 23.5713 287.622 26.1268C289.438 27.1828 291.233 28.2388 292.986 29.2948C294.982 30.4881 296.924 31.6813 298.561 32.8007C304.094 36.6129 310.535 41.3648 314.97 44.913C321.58 50.193 329.668 58.4297 335.18 64.1532C339.409 68.5954 343.318 73.331 346.879 78.3247L348.695 80.933C351.314 84.6607 354.271 88.8952 356.446 92.3589C359.074 96.5007 361.491 100.772 363.689 105.158L364.597 107.037C366.572 111.134 369.022 116.246 370.679 120.237C372.337 124.229 374.396 129.847 375.822 134.282C377.247 138.717 379.063 145.307 380.225 150.312C381.439 155.592 382.58 162.561 383.023 165.339C384.378 174.612 385.041 183.972 385.008 193.344C384.761 203.702 383.907 214.037 382.453 224.295C381.683 229.801 380.54 235.249 379.032 240.6C378.63 241.951 378.198 243.472 377.754 245.035C376.762 248.498 375.737 252.089 374.724 255.014C373.013 260.201 371.022 265.292 368.758 270.263C368.188 271.445 367.575 272.755 366.931 274.106C365.453 277.274 363.763 280.78 362.296 283.515C359.867 287.993 356.52 293.642 353.965 297.56C351.409 301.478 348.115 306.124 345.612 309.366C344.208 311.172 339.277 317.455 335.053 322.038C331.009 326.389 327.662 329.757 325.254 332.059C321.2 335.861 316.216 340.201 312.583 343.116C309.743 345.386 305.477 348.628 302.024 350.941C297.495 354.003 291.349 357.773 287.115 360.276C280.246 364.123 273.16 367.568 265.891 370.593C263.357 371.585 256.895 374.088 251.774 375.735C247.772 377.024 242.133 378.597 237.741 379.664C233.348 380.73 228.09 381.776 224.384 382.399C217.256 383.55 214.616 383.793 208.841 384.331C207.542 384.447 202.769 384.849 195.779 384.965L193.002 384.944ZM192.738 1.9445H190.383C186.783 1.9973 185.452 2.07122 181.873 2.2613C177.797 2.4725 172.486 2.98993 167.629 3.63409C159.539 4.74831 151.526 6.36715 143.638 8.48112C139.246 9.63215 133.291 11.5857 129.732 12.7051C128.106 13.2437 126.089 14.0251 124.305 14.7115L122.816 15.2923C118.846 16.8024 113.661 19.1995 110.926 20.4878C108.192 21.7761 104.802 23.5819 102.036 25.0391L101.17 25.5038C96.0141 28.3088 91.0028 31.3715 86.1549 34.6804C77.961 40.2455 68.3206 48.4083 65.5647 50.7632C61.1752 54.6391 56.995 58.7457 53.0416 63.0655C49.2819 67.0473 45.726 71.2168 42.3875 75.558C37.6148 82.084 30.9098 91.8203 26.38 99.5713C23.4234 104.619 20.1818 111.504 18.9358 114.239C17.1513 118.104 14.9128 123.616 13.3395 127.967C11.7662 132.318 9.72832 138.77 8.39788 143.67C7.46868 147.091 6.53949 151.484 5.72644 155.349C5.49414 156.405 5.28295 157.461 5.07176 158.443C3.78086 164.592 2.95143 170.83 2.59039 177.103C2.52704 178.38 2.45312 179.774 2.36865 181.232C2.15746 185.012 1.92517 189.299 1.92517 192.689C1.92517 197.293 2.22081 203.957 2.64318 209.669C3.01864 215.265 3.74869 220.83 4.82891 226.333C5.14568 227.759 5.46245 229.332 5.80034 230.969C6.51836 234.507 7.26805 238.16 8.05998 241.149C9.40565 246.549 11.0447 251.872 12.97 257.094C16.4484 266.313 20.475 275.316 25.0284 284.054C30.0068 293.199 35.7242 301.923 42.1235 310.137C45.608 314.741 50.7292 320.443 53.4745 323.421C56.5472 326.769 60.7708 330.813 63.4423 333.316C68.5106 338.015 75.279 343.369 77.1691 344.932C79.3337 346.632 82.0579 348.512 84.7083 350.339L87.876 352.535C91.421 354.964 95.0862 357.212 98.8574 359.272C103.693 361.955 110.219 365.186 113.64 366.865C115.889 367.921 119.078 369.315 123.376 371.015C125.868 371.987 129.172 373.127 131.823 374.088L133.037 374.51C135.255 375.292 138.253 376.168 140.893 376.929C142.899 377.499 145.581 378.185 147.936 378.777C151.917 379.78 155.232 380.403 159.825 381.269C160.258 381.353 165.981 382.325 169.952 382.768C172.634 383.075 178.209 383.708 183.214 383.919C185.547 384.014 188.873 384.109 191.492 384.162C192.833 384.162 194.66 384.162 195.61 384.162C202.579 384.046 207.331 383.655 208.619 383.529C214.384 383.001 217.003 382.747 224.109 381.607C227.805 381.005 233.021 379.938 237.403 378.882C241.785 377.826 247.402 376.253 251.383 374.975C256.483 373.328 262.924 370.836 265.458 369.843C272.691 366.838 279.742 363.415 286.577 359.589C290.8 357.087 296.924 353.327 301.444 350.275C304.854 347.973 309.099 344.742 311.939 342.482C315.572 339.589 320.534 335.259 324.61 331.468C327.049 329.187 330.333 325.829 334.367 321.489C338.59 316.959 343.49 310.707 344.926 308.901C347.418 305.733 350.755 300.95 353.236 297.148C355.717 293.347 359.117 287.644 361.535 283.156C363.003 280.442 364.703 276.905 366.15 273.79L367.987 269.946C370.235 264.997 372.216 259.932 373.921 254.771C374.924 251.867 375.938 248.287 376.93 244.834C377.374 243.271 377.807 241.751 378.208 240.388C379.704 235.086 380.84 229.688 381.608 224.232C383.053 214.004 383.902 203.701 384.153 193.375C384.189 184.047 383.529 174.728 382.178 165.497C381.735 162.741 380.594 155.75 379.391 150.534C378.229 145.539 376.466 139.129 375.009 134.567C373.552 130.005 371.535 124.525 369.888 120.575C368.24 116.626 365.791 111.515 363.816 107.417L362.919 105.538C360.728 101.196 358.321 96.9665 355.707 92.8658C353.542 89.4127 350.596 85.1887 347.988 81.4716L346.161 78.8633C342.629 73.9009 338.748 69.1969 334.546 64.7868C329.045 59.0739 320.978 50.8794 314.41 45.6099L312.784 44.3322C345.243 73.2876 364.249 116.446 365.305 165.18C365.305 166.638 365.358 168.084 365.358 169.552V169.911C365.168 271.53 287.738 364.605 192.759 377.372L192.654 376.591C287.252 363.919 364.376 271.15 364.566 169.911V169.552C364.566 109.994 337.767 58.3347 292.521 29.9812L290.631 28.8618C289.406 28.1332 288.234 27.4362 287.178 26.7498C282.543 24.2155 276.619 21.1636 272.396 19.1678C269.228 17.6894 264.793 15.8097 261.024 14.3947C256.504 12.684 250.116 10.5614 245.185 9.11471C241.521 8.05872 235.069 6.47473 231.648 5.80945L230.149 5.54545C228.84 5.29201 227.361 4.99633 226.179 4.80625C219.685 3.75025 219.294 3.67633 216.095 3.30673C212.431 2.87378 210.72 2.69426 207.098 2.43026C203.477 2.16626 201.217 2.08178 198.651 1.98674C197.859 1.9445 195.41 1.9445 192.738 1.9445Z" fill="#2C5DFE"/>
<path d="M192.621 378.407L192.505 378.344C145.676 351.722 107.663 246.989 107.885 144.874V144.504H108.233C203.624 131.674 319.298 142.867 366.107 169.457L366.307 169.573V169.806C366.117 271.963 288.223 365.545 192.759 378.386L192.621 378.407ZM108.719 145.222C108.624 246.883 146.309 351.015 192.822 377.541C287.854 364.69 365.251 271.635 365.547 169.975C318.77 143.607 203.751 132.497 108.719 145.222Z" fill="#2C5DFE"/>
<path d="M279.776 341.331C256.271 327.973 198.091 322.323 150.1 328.807L149.994 328.026C198.133 321.552 256.535 327.212 280.166 340.634L279.776 341.331Z" fill="#2C5DFE"/>
<path d="M341.905 266.588C301.622 243.704 201.966 234.074 119.753 245.13L119.647 244.348C202.008 233.271 301.886 242.944 342.296 265.901L341.905 266.588Z" fill="#2C5DFE"/>
<path d="M192.854 378.365L192.547 377.636C251.129 353.211 298.94 250.494 299.131 148.654H299.922C299.732 250.79 251.699 353.834 192.854 378.365Z" fill="#2C5DFE"/>
<path d="M193.086 378.101L192.315 377.9C200.065 348.522 206.517 241.677 206.707 139.71H207.499C207.309 241.73 200.847 348.67 193.086 378.101Z" fill="#2C5DFE"/>
<path d="M171.017 379.865C134.779 379.865 100.947 367.404 74.0111 343.802C56.8531 328.684 43.2888 309.923 34.3091 288.89C24.6475 266.715 19.7587 242.31 19.7798 216.46C5.29274 208.17 -1.42283 198.941 0.351093 189.754C4.18403 170.281 45.4805 152.952 108.233 144.504L108.677 144.441V144.895C108.487 246.756 146.267 351.184 192.896 377.679L193.952 378.259L192.79 378.407C185.573 379.378 178.299 379.865 171.017 379.865ZM107.874 145.328C45.7234 153.776 4.83869 170.83 1.13246 189.954C-0.588666 198.825 6.06355 207.811 20.3711 215.932L20.5717 216.048V216.312C20.5189 242.141 25.3866 266.482 35.0271 288.658C43.9754 309.565 57.4738 328.212 74.5391 343.243C106.332 371.1 147.83 383.37 191.491 377.784C145.179 350.254 107.811 246.566 107.885 145.328H107.874Z" fill="#2C5DFE"/>
<path d="M105.371 364.774C97.9167 360.55 94.4639 355.788 95.3825 351.046C97.3043 341.12 118.211 332.302 149.952 328.036L150.057 328.818C118.665 333.042 98.0223 341.616 96.2061 351.205C95.3508 355.587 98.677 360.043 105.804 364.098L105.371 364.774Z" fill="#2C5DFE"/>
<path d="M43.4535 306.726C30.7826 299.545 24.9328 291.52 26.485 283.494C29.7583 266.598 65.448 251.614 119.648 244.327L119.753 245.109C65.902 252.353 30.4658 267.116 27.2559 283.642C25.7776 291.277 31.4795 299.017 43.8441 306.019L43.4535 306.726Z" fill="#2C5DFE"/>
<path d="M192.632 378.386C103.936 361.891 32.0286 265.394 32.2186 163.185H33.0106C32.8205 264.993 104.485 361.184 192.769 377.605L192.632 378.386Z" fill="#2C5DFE"/>
<path d="M192.695 378.397C86.5451 376.052 0.414743 291.002 0.604806 188.793H1.39674C1.20667 290.559 87.0308 375.26 192.706 377.594L192.695 378.397Z" fill="#2C5DFE"/>
<path d="M214.077 384.553C206.513 384.403 199.118 382.285 192.621 378.407C148.358 384.331 106.248 372.071 74.0218 343.802C56.8638 328.684 43.2995 309.923 34.3197 288.89C24.6265 266.619 19.7377 242.163 19.7905 216.227V215.551L20.3818 215.879C67.0528 242.405 182.516 253.557 277.748 240.747L278.203 240.684V241.138C278.076 310.095 260.495 363.095 232.334 379.474C226.813 382.771 220.508 384.526 214.077 384.553ZM192.78 377.583L192.896 377.657C206.623 385.472 219.8 385.873 231.964 378.819C259.83 362.641 277.242 310.095 277.442 241.645C182.537 254.317 67.7181 243.261 20.6141 216.956C20.6141 242.532 25.5135 266.64 35.0694 288.626C44.0178 309.533 57.5162 328.181 74.5815 343.211C106.66 371.321 148.6 383.539 192.685 377.605L192.78 377.583Z" fill="#2C5DFE"/>
<path d="M193.529 380.065C157.333 380.065 122.372 374.437 105.372 364.774L105.762 364.088C129.267 377.446 187.447 383.096 235.438 376.601L235.544 377.393C221.613 379.207 207.578 380.1 193.529 380.065Z" fill="#2C5DFE"/>
<path d="M194.184 332.873C132.276 332.873 72.5011 323.231 43.4531 306.726L43.8438 306.04C84.1267 328.934 183.773 338.554 265.996 327.498L266.091 328.279C242.249 331.394 218.228 332.928 194.184 332.873Z" fill="#2C5DFE"/>
<path d="M167.85 383.656C156.594 383.624 145.607 380.206 136.32 373.845C104.78 352.778 86.0275 301.774 86.1436 237.411H86.9355C86.8194 301.51 105.446 352.261 136.764 373.18C153.458 384.342 172.749 385.852 192.526 377.636L192.832 378.365C184.938 381.766 176.446 383.565 167.85 383.656Z" fill="#2C5DFE"/>
<path d="M188.831 385.947H188.651C181.524 385.018 178.462 315.195 178.588 246.355H179.38C179.211 336.643 183.973 384.521 188.757 385.144C189.263 385.239 190.552 384.616 192.315 377.9L193.086 378.101C191.681 383.434 190.319 385.947 188.831 385.947Z" fill="#2C5DFE"/>
<path d="M214.077 384.553C207.045 384.553 199.78 382.441 192.505 378.344L191.449 377.763L192.621 377.605C213.351 374.741 233.414 368.245 251.889 358.417C267.897 333.306 277.284 291.53 277.379 241.202V240.853H277.717C312.34 236.196 340.395 228.857 359.148 219.966C363.304 203.579 365.432 186.743 365.484 169.837V169.162L366.075 169.489C380.699 177.8 387.478 187.082 385.694 196.311C384.015 204.981 374.924 213.207 359.835 220.462C344.735 279.946 304.347 331.658 252.428 359.083C246.557 368.249 239.757 375.197 232.302 379.558C226.782 382.821 220.489 384.546 214.077 384.553ZM193.931 378.217C207.32 385.482 220.107 385.683 231.943 378.809C239.028 374.701 245.438 368.249 251.055 359.748C233.194 369.09 213.879 375.338 193.931 378.228V378.217ZM278.203 241.529C278.065 291.076 268.921 332.345 253.304 357.689C304.262 330.307 343.89 279.386 358.895 220.842C340.131 229.66 312.351 236.925 278.203 241.54V241.529ZM366.297 170.46C366.194 186.982 364.113 203.432 360.099 219.459C374.607 212.436 383.329 204.464 384.944 196.1C386.644 187.367 380.193 178.507 366.297 170.471V170.46Z" fill="#2C5DFE"/>
<path d="M235.544 377.393L235.438 376.602C266.83 372.378 287.484 363.813 289.342 354.225C290.187 349.843 286.861 345.386 279.733 341.331L280.124 340.634C287.579 344.858 291.031 349.621 290.113 354.362C288.223 364.299 267.284 373.117 235.544 377.393Z" fill="#2C5DFE"/>
<path d="M266.049 328.247L265.954 327.466C319.805 320.222 355.231 305.459 358.441 288.933C359.919 281.298 354.217 273.557 341.863 266.556L342.254 265.87C354.925 273.061 360.764 281.087 359.222 289.102C355.991 305.987 320.291 320.993 266.049 328.247Z" fill="#2C5DFE"/>
<path d="M218.227 380.783C209.64 380.772 201.072 379.969 192.632 378.386L192.769 377.605C231.7 384.849 269.27 375.493 298.56 351.205C333.11 322.534 352.982 275.785 353.087 222.922H353.879C353.774 276.018 333.817 322.999 299.067 351.754C276.387 370.662 247.754 380.944 218.227 380.783Z" fill="#2C5DFE"/>
<path d="M197.225 378.439C195.715 378.439 194.205 378.439 192.695 378.439V377.647C245.227 378.798 294.242 359.769 330.818 324.044C365.463 290.253 384.596 245.214 384.67 197.325H385.462C385.377 245.436 366.16 290.643 331.368 324.625C295.71 359.41 248.215 378.439 197.225 378.439Z" fill="#2C5DFE"/>
<path d="M366.297 170.46L365.706 170.133C319.034 143.607 203.582 132.455 108.339 145.264L107.885 145.328V144.874C108.011 75.9066 125.592 22.9061 153.764 6.53821C165.949 -0.536964 179.676 -0.156806 193.466 7.59421C237.719 1.68063 279.839 13.9302 312.065 42.1992C329.22 57.3206 342.784 76.0806 351.768 97.111C361.461 119.382 366.35 143.828 366.307 169.774L366.297 170.46ZM191.523 139.161C262.818 139.161 331.653 150.196 365.515 169.109C365.515 143.522 360.605 119.414 351.05 97.4383C342.101 76.5285 328.603 57.8775 311.537 42.8434C279.459 14.7327 237.54 2.52543 193.445 8.44957H193.308L193.191 8.3862C179.465 0.561272 166.287 0.170552 154.123 7.21405C126.3 23.413 108.888 75.9594 108.719 144.42C136.175 140.855 163.836 139.098 191.523 139.161Z" fill="#2C5DFE"/>
<path d="M342.254 80.025C301.95 57.131 202.304 47.5109 120.102 58.5671L119.996 57.7751C202.357 46.6978 302.225 56.3707 342.645 79.328L342.254 80.025Z" fill="#2C5DFE"/>
<path d="M280.325 22.0086C256.82 8.65024 198.651 3.00066 150.649 9.49504L150.543 8.71361C198.682 2.24035 257.084 7.88992 280.716 21.3222L280.325 22.0086Z" fill="#2C5DFE"/>
<path d="M299.923 148.654H299.131C299.247 84.5552 280.621 33.7935 249.303 12.8742C232.609 1.71233 213.328 0.202258 193.54 8.42847L193.234 7.68927C213.296 -0.663655 232.809 0.909778 249.746 12.2089C281.286 33.2866 300.039 84.3123 299.923 148.654Z" fill="#2C5DFE"/>
<path d="M207.499 139.71H206.707C206.918 49.4644 202.114 1.53274 197.331 0.888578C196.856 0.814659 195.546 1.40602 193.772 8.13271L193.001 7.93207C194.469 2.38809 195.895 -0.0934979 197.436 0.0965814C204.564 1.04698 207.626 70.9011 207.499 139.71Z" fill="#2C5DFE"/>
<path d="M20.5823 216.956L19.991 216.629C5.35618 208.318 -1.42275 199.036 0.361731 189.806C2.05118 181.137 11.132 172.91 26.2209 165.656C41.3204 106.161 81.7088 54.4488 133.638 27.0245C139.509 17.8585 146.309 10.91 153.764 6.54878C165.981 -0.54751 179.75 -0.146234 193.582 7.71038L194.638 8.29118L193.477 8.44958C172.732 11.3086 152.655 17.8039 134.166 27.637C118.159 52.7486 108.825 94.5238 108.677 144.853V145.201H108.339C73.7156 149.858 45.6707 157.197 26.9178 166.089C22.7621 182.476 20.6343 199.311 20.5823 216.217V216.956ZM25.9886 166.596C11.491 173.618 2.75864 181.591 1.1431 189.954C-0.556911 198.698 5.89468 207.558 19.7904 215.594C19.8936 199.072 21.9744 182.622 25.9886 166.596ZM132.794 28.3445C81.825 55.8004 42.1968 106.668 27.1501 165.223C45.9558 156.405 73.7367 149.14 107.885 144.525C108.022 94.9673 117.166 53.6884 132.794 28.3445ZM172.073 2.22976C165.75 2.25219 159.549 3.97758 154.123 7.22462C147.038 11.343 140.628 17.7846 135.011 26.2325C152.88 16.9238 172.193 10.7009 192.136 7.82654C185.265 4.10239 178.578 2.2368 172.073 2.22976Z" fill="#2C5DFE"/>
<path d="M43.7914 120.216C31.1205 113.025 25.2813 104.999 26.8335 96.9842C30.0963 80.0883 65.7965 65.1037 119.996 57.8173L120.102 58.6093C66.2505 65.8429 30.8143 80.6163 27.6043 97.1426C26.126 104.777 31.8279 112.507 44.1821 119.509L43.7914 120.216Z" fill="#2C5DFE"/>
<path d="M105.963 45.4199C98.508 41.1959 95.0552 36.4334 95.9738 31.6919C97.8956 21.7656 118.813 12.948 150.543 8.68179L150.649 9.46324C119.257 13.6872 98.6136 22.2619 96.7975 31.8398C95.9422 36.2222 99.2683 40.689 106.396 44.7441L105.963 45.4199Z" fill="#2C5DFE"/>
<path d="M33.0102 163.185H32.2183C32.3133 110.079 52.2805 63.0973 87.0304 34.2897C116.501 9.83288 154.302 0.381721 193.455 7.66809L193.318 8.44954C154.387 1.2054 116.818 10.5615 87.5266 34.8494C52.9774 63.562 33.1052 110.321 33.0102 163.185Z" fill="#2C5DFE"/>
<path d="M1.39642 188.856H0.604492C0.699524 140.745 19.9065 95.527 54.7092 61.5451C91.4442 25.6412 140.692 6.55938 193.392 7.68929V8.48129C140.892 7.3197 91.856 26.3593 55.2794 62.0836C20.6139 95.9283 1.49145 140.893 1.39642 188.856Z" fill="#2C5DFE"/>
<path d="M194.564 246.936C122.858 246.936 53.6324 235.742 20.0229 216.629L19.8223 216.512V216.312C20.0229 114.091 97.8327 20.509 193.339 7.66806H193.466L193.582 7.73143C240.433 34.3531 278.393 139.097 278.203 241.212V241.561H277.854C250.24 245.188 222.416 246.984 194.564 246.936ZM20.5825 216.048C67.3275 242.448 182.369 253.567 277.411 240.843C277.516 139.182 239.831 35.0395 193.308 8.52342C98.3184 21.3221 20.8782 114.376 20.5825 216.048Z" fill="#2C5DFE"/>
<path d="M194.532 146.299C132.624 146.299 72.8496 136.669 43.791 120.163L44.1817 119.466C84.4329 142.392 184.121 151.991 266.334 140.924L266.44 141.716C242.598 144.828 218.576 146.359 194.532 146.299Z" fill="#2C5DFE"/>
<path d="M194.121 60.7108C157.924 60.7108 122.963 55.0718 105.963 45.42L106.354 44.7336C129.869 58.0813 188.039 63.7415 236.04 57.2471L236.146 58.0285C222.212 59.8508 208.173 60.7468 194.121 60.7108Z" fill="#2C5DFE"/>
<path d="M86.9565 237.432H86.1646C86.3546 135.296 134.388 32.2411 193.234 7.71033L193.54 8.44953C134.958 32.843 87.1465 135.56 86.9565 237.432Z" fill="#2C5DFE"/>
<path d="M179.38 246.355H178.588C178.778 144.335 185.251 37.3944 193.002 7.96381L193.772 8.16445C186.022 37.5317 179.57 144.388 179.38 246.355Z" fill="#2C5DFE"/>
<path d="M277.41 241.656V241.202C277.6 139.33 239.82 34.9023 193.191 8.41797L192.135 7.83718L193.307 7.67877C237.655 1.72296 279.776 14.0148 312.033 42.2626C329.188 57.384 342.752 76.144 351.736 97.1744C361.397 119.35 366.286 143.754 366.275 169.605C380.762 177.884 387.478 187.124 385.694 196.311C381.903 215.837 340.575 233.197 277.822 241.635L277.41 241.656ZM194.596 8.28069C240.908 35.7366 278.276 139.478 278.202 240.716C340.353 232.268 381.238 215.214 384.944 196.09C386.665 187.219 380.013 178.233 365.705 170.112L365.515 169.996V169.764C365.515 143.934 360.69 119.593 351.049 97.4173C342.101 76.5075 328.603 57.8565 311.537 42.8223C279.776 14.9863 238.257 2.73671 194.596 8.28069Z" fill="#2C5DFE"/>
<path d="M266.44 141.716L266.334 140.924C320.185 133.691 355.621 118.917 358.831 102.391C360.31 94.7666 354.608 87.0262 342.254 80.0249L342.644 79.3279C355.315 86.5193 361.154 94.5448 359.602 102.56C356.339 119.414 320.639 134.43 266.44 141.716Z" fill="#2C5DFE"/>
<path d="M236.146 58.0285L236.04 57.2471C267.422 53.0231 288.075 44.4484 289.891 34.86C290.736 30.4776 287.42 26.0213 280.283 21.9663L280.673 21.2799C288.128 25.5039 291.591 30.2664 290.662 35.0078C288.783 44.9447 267.876 53.7623 236.146 58.0285Z" fill="#2C5DFE"/>
<path d="M353.879 222.88H353.087C353.277 121.071 281.602 24.8702 193.318 8.4495L193.455 7.66806C282.099 24.1205 354.069 120.702 353.879 222.88Z" fill="#2C5DFE"/>
<path d="M385.482 197.304H384.691C384.881 95.527 299.056 10.8256 193.381 8.49183V7.69983C299.5 10.0019 385.673 95.0624 385.482 197.304Z" fill="#2C5DFE"/>
<path d="M193.075 386C183.693 385.997 174.323 385.308 165.041 383.94C156.816 382.737 150.364 381.205 147.608 380.551C139.974 378.745 132.614 376.263 132.551 376.232C125.881 374.027 119.338 371.453 112.953 368.523C108.444 366.517 102.394 363.433 97.991 360.867C94.2848 358.755 90.0717 356.242 86.999 354.119C81.4344 350.286 74.9617 345.513 70.5058 341.944C63.8641 336.664 55.7231 328.353 50.1796 322.598C45.9258 318.13 41.995 313.366 38.4168 308.342L36.6006 305.755C33.9714 301.995 30.9937 297.729 28.7974 294.234C25.9782 289.746 22.7682 283.758 21.5117 281.393C19.0514 276.725 16.2322 270.495 14.4794 266.208C13.3073 263.377 12.0824 259.872 10.8998 256.535C10.3508 254.972 9.84392 253.462 9.31597 252.099C7.46881 246.826 5.99049 241.431 4.89172 235.953C2.84363 225.836 1.36655 215.612 0.467473 205.329C-0.0921578 197.314 -0.313902 185.646 0.752564 176.923C0.932068 175.434 1.10102 173.755 1.26996 172.097C1.68177 168.137 2.13581 163.649 2.8855 160.143C3.19171 158.728 3.50848 157.155 3.83581 155.529C4.55383 151.938 5.29297 148.232 6.0849 145.19C7.40483 139.796 9.01567 134.476 10.9104 129.255C11.4067 127.999 11.9663 126.605 12.4837 125.158C13.7825 121.747 15.134 118.22 16.4117 115.348C18.5235 110.607 21.48 104.619 23.803 100.469C26.126 96.3189 29.0825 91.3768 31.3422 87.9026C34.3832 83.1622 37.6643 78.5803 41.1727 74.1747C47.1202 66.8587 53.4652 59.875 60.179 53.2554C63.6635 49.9712 68.679 45.5994 72.9449 42.1358C76.1971 39.4852 80.4524 36.3278 83.504 34.258C87.7276 31.3963 93.7991 27.6264 98.4873 24.8702C101.402 23.1701 105.403 21.0581 108.455 19.5902C111.76 18.0379 115.54 16.285 118.444 15.0389C120.693 14.0885 123.723 12.9269 126.078 12.0399L126.891 11.7336C132.255 9.69556 139.14 7.72085 141.125 7.17173C144.198 6.31637 146.489 5.71446 148.136 5.34486C151.61 4.57398 157.206 3.38071 161.557 2.59927C164.471 2.07127 171.472 1.0892 177.258 0.645678C190.245 -0.420499 203.307 -0.165754 216.242 1.406C225.312 2.51479 232.081 3.99318 232.081 4.00374C236.442 4.98582 241.52 6.22133 245.016 7.17173C247.888 7.95317 251.562 9.13589 253.463 9.76949C256.398 10.741 260.326 12.1666 263.219 13.3071C266.493 14.5954 270.79 16.4751 273.06 17.5311C275.975 18.8299 279.396 20.5723 282.564 22.2514C284.39 23.1912 286.206 24.1733 287.991 25.187L288.572 25.5461C295.393 29.77 303.872 34.9339 309.89 39.6753C314.61 43.3924 320.069 47.9754 323.807 51.3546C327.081 54.322 331.125 58.3347 333.881 61.3654C337.819 65.695 342.328 70.9539 345.337 74.7766C347.787 77.8812 351.134 82.5276 353.858 86.6143C356.583 90.701 359.919 96.2661 362.591 101.103C364.428 104.44 366.487 108.769 368.303 112.581L369.169 114.408C371.355 118.97 373.731 125.369 375.325 129.931C376.381 132.846 377.437 136.426 378.387 139.889C378.852 141.484 379.295 143.057 379.718 144.409C381.296 149.795 382.472 155.29 383.234 160.851C383.413 162.276 383.635 163.839 383.867 165.466C384.385 169.183 384.923 173.016 385.187 176.216C385.609 181.358 385.905 188.243 385.916 193.344C385.742 203.766 384.881 214.166 383.339 224.475C382.44 230.686 381.117 236.829 379.38 242.859C379.042 243.979 378.672 245.204 378.324 246.471C377.268 250.061 376.054 254.127 374.924 257.295C373.144 262.489 371.086 267.582 368.757 272.554L367.416 275.543C365.758 278.953 363.879 282.818 362.232 285.796C359.74 290.274 356.308 295.913 353.7 299.82C347.944 308.451 341.504 316.605 334.44 324.203C333.099 325.628 328.411 330.539 324.504 334.15C320.354 337.952 315.297 342.271 311.612 345.154C308.729 347.393 304.431 350.603 301 352.863C296.385 355.904 290.145 359.653 285.847 362.134C278.758 366.01 271.441 369.455 263.937 372.451C260.052 373.93 254.318 376.01 249.925 377.372C245.955 378.597 240.37 380.097 236.03 381.1C221.943 384.353 207.533 385.996 193.075 386ZM98.3923 360.181C102.806 362.736 108.782 365.799 113.281 367.794C119.643 370.716 126.16 373.286 132.804 375.493C132.878 375.493 140.196 377.985 147.777 379.78C150.533 380.435 156.963 381.955 165.157 383.159C188.709 386.646 212.706 385.683 235.903 380.318C240.222 379.326 245.776 377.837 249.725 376.612C254.107 375.25 259.819 373.19 263.705 371.712C271.148 368.727 278.408 365.303 285.446 361.458C289.744 358.966 296.005 355.239 300.567 352.208C303.977 349.959 308.254 346.759 311.126 344.52C314.8 341.658 319.848 337.35 323.987 333.559C326.605 331.162 330.322 327.455 333.87 323.664C340.905 316.095 347.32 307.973 353.056 299.376C355.653 295.469 359.064 289.872 361.503 285.395C363.15 282.438 365.019 278.584 366.667 275.184L368.124 272.195C370.433 267.245 372.477 262.176 374.248 257.01C375.378 253.842 376.581 249.808 377.637 246.239C378.018 244.971 378.377 243.747 378.693 242.617C380.418 236.627 381.734 230.527 382.632 224.358C384.168 214.088 385.026 203.727 385.198 193.344C385.198 188.243 384.902 181.39 384.48 176.268C384.216 173.1 383.677 169.267 383.16 165.571C382.927 163.934 382.706 162.403 382.526 160.935C381.765 155.425 380.597 149.979 379.031 144.641C378.609 143.247 378.165 141.706 377.701 140.111C376.708 136.658 375.673 133.089 374.66 130.195C373.055 125.654 370.7 119.287 368.535 114.757L367.659 112.919C365.853 109.118 363.794 104.809 361.968 101.483C359.307 96.6568 355.896 90.9967 353.267 87.0578C350.638 83.119 347.238 78.3564 344.82 75.2729C341.81 71.4608 337.323 66.2125 333.395 61.8934C330.66 58.8944 326.637 54.8922 323.385 51.946C319.647 48.5773 314.209 44.0049 309.51 40.33C303.513 35.5886 295.055 30.3931 288.223 26.2325L287.664 25.884C286.08 25.0181 284.221 24.0043 282.268 22.9694C255.543 9.24149 225.038 4.24663 193.572 8.43893H193.508H193.371L193.266 7.65749C215.9 4.45477 238.963 6.35255 260.77 13.212C258.299 12.2828 255.543 11.3007 253.378 10.572C251.446 9.92788 247.793 8.75573 244.931 7.98485C241.447 7.04501 236.389 5.87286 232.038 4.81686C231.975 4.81686 225.344 3.34903 216.253 2.22967C203.344 0.667145 190.311 0.423008 177.353 1.50104C171.588 1.94455 164.619 2.91607 161.736 3.44406C157.396 4.2255 151.811 5.40822 148.347 6.1791C146.7 6.5487 144.43 7.14006 141.368 7.99541C139.393 8.54453 132.53 10.5087 127.208 12.5362L126.384 12.8424C123.998 13.7506 121.02 14.8805 118.782 15.8309C115.889 17.0664 112.13 18.8194 108.825 20.3717C105.794 21.7973 101.813 23.8881 98.9202 25.5883C94.2426 28.3339 88.2344 32.0932 83.9686 34.9444C80.9064 37.0564 76.6723 40.1505 73.4095 42.7799C69.1859 46.2436 64.1703 50.5837 60.7386 53.8573C54.0272 60.457 47.6822 67.4194 41.7323 74.7132C38.2431 79.1015 34.9762 83.6621 31.944 88.3778C29.695 91.7781 26.6645 96.8258 24.4471 100.891C22.2297 104.957 19.2309 110.987 17.1191 115.675C15.852 118.516 14.511 122.011 13.2123 125.443C12.6632 126.89 12.1564 128.284 11.639 129.551C9.75047 134.739 8.1501 140.027 6.84515 145.391C6.05322 148.411 5.31408 152.107 4.59606 155.687C4.26873 157.313 3.95196 158.855 3.65631 160.312C2.91717 163.776 2.45257 168.243 2.05133 172.182C1.87182 173.882 1.70288 175.529 1.52337 177.018C0.467465 185.688 0.689211 197.293 1.24884 205.277C2.14404 215.513 3.61407 225.692 5.65197 235.763C6.75122 241.201 8.22239 246.557 10.0551 251.793C10.5514 253.145 11.111 254.665 11.6284 256.228C12.811 259.586 14.0359 263.05 15.2079 265.87C16.9819 270.094 19.7483 276.335 22.2086 280.97C23.4546 283.336 26.654 289.302 29.4627 293.769C31.6378 297.254 34.6155 301.509 37.2447 305.258L39.0609 307.856C42.6136 312.843 46.5162 317.572 50.7392 322.006C56.2616 327.751 64.3815 335.998 70.9915 341.289C75.4263 344.837 81.8884 349.61 87.432 353.422C90.4941 355.534 94.686 357.995 98.3817 360.138L98.3923 360.181Z" fill="#2C5DFE"/>
<path d="M192.621 378.407L192.505 378.344C145.676 351.722 107.663 246.988 107.885 144.874V144.504H108.233C203.624 131.674 319.298 142.867 366.107 169.457L366.307 169.573V169.806C366.117 271.963 288.223 365.545 192.759 378.386L192.621 378.407ZM108.719 145.222C108.624 246.883 146.309 351.015 192.822 377.541C287.854 364.69 365.251 271.635 365.547 169.975C318.77 143.606 203.751 132.497 108.719 145.222Z" fill="#2C5DFE"/>
<path d="M279.776 341.331C256.271 327.973 198.091 322.323 150.1 328.807L149.994 328.026C198.133 321.552 256.535 327.212 280.166 340.634L279.776 341.331Z" fill="#2C5DFE"/>
<path d="M341.905 266.588C301.622 243.704 201.966 234.074 119.753 245.13L119.647 244.348C202.008 233.271 301.886 242.944 342.296 265.901L341.905 266.588Z" fill="#2C5DFE"/>
<path d="M192.854 378.365L192.547 377.636C251.129 353.211 298.94 250.494 299.131 148.654H299.922C299.732 250.79 251.699 353.834 192.854 378.365Z" fill="#2C5DFE"/>
<path d="M193.086 378.101L192.315 377.9C200.065 348.522 206.517 241.677 206.707 139.71H207.499C207.309 241.73 200.847 348.67 193.086 378.101Z" fill="#2C5DFE"/>
<path d="M171.017 379.864C134.779 379.864 100.947 367.404 74.0111 343.802C56.8531 328.684 43.2888 309.923 34.3091 288.89C24.6475 266.714 19.7587 242.31 19.7798 216.46C5.29274 208.17 -1.42283 198.941 0.351093 189.753C4.18403 170.281 45.4805 152.952 108.233 144.504L108.677 144.441V144.895C108.487 246.756 146.267 351.184 192.896 377.678L193.952 378.259L192.79 378.407C185.573 379.378 178.299 379.864 171.017 379.864ZM107.874 145.328C45.7234 153.776 4.83869 170.83 1.13246 189.954C-0.588666 198.824 6.06355 207.811 20.3711 215.932L20.5717 216.048V216.312C20.5189 242.141 25.3866 266.482 35.0271 288.658C43.9754 309.565 57.4738 328.212 74.5391 343.242C106.332 371.1 147.83 383.37 191.491 377.784C145.179 350.254 107.811 246.566 107.885 145.328H107.874Z" fill="#2C5DFE"/>
<path d="M105.371 364.774C97.9167 360.55 94.4639 355.788 95.3825 351.046C97.3043 341.12 118.211 332.302 149.952 328.036L150.057 328.818C118.665 333.042 98.0223 341.616 96.2061 351.205C95.3508 355.587 98.677 360.043 105.804 364.098L105.371 364.774Z" fill="#2C5DFE"/>
<path d="M43.453 306.726C30.7821 299.545 24.9324 291.52 26.4845 283.494C29.7579 266.598 65.4475 251.614 119.647 244.327L119.753 245.109C65.9015 252.353 30.4653 267.116 27.2554 283.642C25.7771 291.277 31.479 299.017 43.8436 306.019L43.453 306.726Z" fill="#2C5DFE"/>
<path d="M192.632 378.386C103.935 361.891 32.0281 265.394 32.2181 163.185H33.0101C32.82 264.993 104.484 361.184 192.769 377.605L192.632 378.386Z" fill="#2C5DFE"/>
<path d="M192.695 378.397C86.5446 376.052 0.414255 291.002 0.604318 188.792H1.39625C1.20618 290.559 87.0303 375.26 192.705 377.594L192.695 378.397Z" fill="#2C5DFE"/>
<path d="M214.077 384.553C206.513 384.403 199.118 382.285 192.621 378.407C148.358 384.331 106.248 372.071 74.0218 343.802C56.8638 328.684 43.2995 309.923 34.3197 288.89C24.6265 266.619 19.7377 242.163 19.7905 216.227V215.551L20.3818 215.879C67.0528 242.405 182.516 253.557 277.748 240.747L278.203 240.684V241.138C278.076 310.095 260.495 363.095 232.334 379.474C226.813 382.771 220.508 384.526 214.077 384.553ZM192.78 377.583L192.896 377.657C206.623 385.472 219.8 385.873 231.964 378.819C259.83 362.641 277.242 310.095 277.442 241.645C182.537 254.317 67.7181 243.261 20.6141 216.956C20.6141 242.532 25.5135 266.64 35.0694 288.626C44.0178 309.533 57.5162 328.181 74.5815 343.211C106.66 371.321 148.6 383.539 192.685 377.605L192.78 377.583Z" fill="#2C5DFE"/>
<path d="M193.529 380.065C157.333 380.065 122.372 374.437 105.372 364.774L105.762 364.088C129.267 377.446 187.447 383.096 235.438 376.601L235.544 377.393C221.613 379.207 207.578 380.1 193.529 380.065Z" fill="#2C5DFE"/>
<path d="M194.184 332.873C132.276 332.873 72.5011 323.231 43.4531 306.726L43.8438 306.04C84.1267 328.934 183.773 338.554 265.996 327.498L266.091 328.279C242.249 331.394 218.228 332.928 194.184 332.873Z" fill="#2C5DFE"/>
<path d="M167.85 383.656C156.594 383.624 145.607 380.206 136.32 373.845C104.78 352.778 86.0275 301.774 86.1436 237.411H86.9355C86.8194 301.51 105.446 352.261 136.764 373.18C153.458 384.342 172.749 385.852 192.526 377.636L192.832 378.365C184.938 381.766 176.446 383.565 167.85 383.656Z" fill="#2C5DFE"/>
<path d="M188.831 385.947H188.651C181.524 385.018 178.462 315.195 178.588 246.355H179.38C179.211 336.643 183.973 384.521 188.757 385.144C189.263 385.239 190.552 384.616 192.315 377.9L193.086 378.101C191.681 383.434 190.319 385.947 188.831 385.947Z" fill="#2C5DFE"/>
<path d="M214.077 384.553C207.045 384.553 199.78 382.441 192.505 378.344L191.449 377.763L192.621 377.605C213.351 374.741 233.414 368.245 251.889 358.417C267.897 333.306 277.284 291.53 277.379 241.202V240.853H277.717C312.34 236.196 340.395 228.857 359.148 219.966C363.304 203.579 365.432 186.743 365.484 169.837V169.162L366.075 169.489C380.699 177.8 387.478 187.082 385.694 196.311C384.015 204.981 374.924 213.207 359.835 220.462C344.735 279.946 304.347 331.658 252.428 359.082C246.557 368.249 239.757 375.197 232.302 379.558C226.782 382.821 220.489 384.546 214.077 384.553ZM193.931 378.217C207.32 385.482 220.107 385.683 231.943 378.808C239.028 374.701 245.438 368.248 251.055 359.748C233.194 369.09 213.879 375.338 193.931 378.228V378.217ZM278.203 241.529C278.065 291.076 268.921 332.345 253.304 357.689C304.262 330.307 343.89 279.386 358.895 220.842C340.131 229.66 312.351 236.925 278.203 241.54V241.529ZM366.297 170.46C366.194 186.982 364.113 203.432 360.099 219.459C374.607 212.436 383.329 204.464 384.944 196.1C386.644 187.367 380.193 178.507 366.297 170.471V170.46Z" fill="#2C5DFE"/>
<path d="M235.544 377.393L235.438 376.601C266.83 372.377 287.484 363.813 289.342 354.225C290.187 349.842 286.861 345.386 279.733 341.331L280.124 340.634C287.579 344.858 291.031 349.621 290.113 354.362C288.223 364.299 267.284 373.117 235.544 377.393Z" fill="#2C5DFE"/>
<path d="M266.049 328.247L265.954 327.466C319.805 320.222 355.231 305.459 358.441 288.933C359.919 281.298 354.217 273.557 341.863 266.556L342.254 265.87C354.925 273.061 360.764 281.087 359.222 289.102C355.991 305.987 320.291 320.993 266.049 328.247Z" fill="#2C5DFE"/>
<path d="M218.227 380.783C209.64 380.772 201.072 379.969 192.632 378.386L192.769 377.604C231.7 384.849 269.27 375.492 298.56 351.205C333.11 322.534 352.982 275.785 353.087 222.922H353.879C353.774 276.018 333.817 322.999 299.067 351.754C276.387 370.662 247.754 380.944 218.227 380.783Z" fill="#2C5DFE"/>
<path d="M197.225 378.439C195.715 378.439 194.205 378.439 192.695 378.439V377.647C245.227 378.798 294.242 359.769 330.818 324.044C365.463 290.253 384.596 245.214 384.67 197.325H385.462C385.377 245.436 366.16 290.643 331.368 324.625C295.71 359.41 248.215 378.439 197.225 378.439Z" fill="#2C5DFE"/>
<path d="M366.297 170.46L365.706 170.133C319.034 143.606 203.582 132.455 108.339 145.264L107.885 145.328V144.874C108.011 75.9066 125.592 22.9061 153.764 6.53818C165.949 -0.536994 179.676 -0.156836 193.466 7.59417C237.719 1.6806 279.839 13.9302 312.065 42.1992C329.22 57.3206 342.784 76.0806 351.768 97.111C361.461 119.382 366.35 143.828 366.307 169.774L366.297 170.46ZM191.523 139.161C262.818 139.161 331.653 150.196 365.515 169.109C365.515 143.522 360.605 119.414 351.05 97.4383C342.101 76.5285 328.603 57.8775 311.537 42.8433C279.459 14.7327 237.54 2.5254 193.445 8.44954H193.308L193.191 8.38617C179.465 0.561241 166.287 0.170522 154.123 7.21402C126.3 23.413 108.888 75.9594 108.719 144.42C136.175 140.855 163.836 139.098 191.523 139.161Z" fill="#2C5DFE"/>
<path d="M342.254 80.0249C301.95 57.1309 202.304 47.5108 120.102 58.5671L119.996 57.7751C202.357 46.6977 302.225 56.3706 342.645 79.328L342.254 80.0249Z" fill="#2C5DFE"/>
<path d="M280.324 22.0085C256.82 8.65012 198.65 3.00054 150.649 9.49492L150.543 8.71348C198.682 2.24023 257.084 7.8898 280.715 21.3221L280.324 22.0085Z" fill="#2C5DFE"/>
<path d="M299.922 148.654H299.13C299.246 84.5551 280.62 33.7934 249.302 12.8741C232.608 1.71224 213.327 0.202167 193.54 8.42838L193.233 7.68918C213.296 -0.663747 232.809 0.909687 249.746 12.2088C281.285 33.2865 300.038 84.3122 299.922 148.654Z" fill="#2C5DFE"/>
<path d="M207.499 139.71H206.707C206.918 49.4644 202.114 1.53271 197.331 0.888548C196.856 0.814628 195.546 1.40599 193.772 8.13268L193.001 7.93204C194.469 2.38806 195.895 -0.0935284 197.436 0.0965508C204.564 1.04695 207.626 70.9011 207.499 139.71Z" fill="#2C5DFE"/>
<path d="M20.5823 216.956L19.991 216.629C5.35618 208.318 -1.42275 199.036 0.361731 189.806C2.05118 181.136 11.132 172.91 26.2209 165.656C41.3204 106.161 81.7088 54.4486 133.638 27.0244C139.509 17.8584 146.309 10.9099 153.764 6.54866C165.981 -0.547632 179.75 -0.146356 193.582 7.71026L194.638 8.29106L193.477 8.44946C172.732 11.3085 152.655 17.8038 134.166 27.6369C118.159 52.7485 108.825 94.5237 108.677 144.852V145.201H108.339C73.7156 149.858 45.6707 157.197 26.9178 166.089C22.7621 182.476 20.6343 199.311 20.5823 216.217V216.956ZM25.9886 166.595C11.491 173.618 2.75864 181.591 1.1431 189.954C-0.556911 198.698 5.89468 207.558 19.7904 215.594C19.8936 199.072 21.9744 182.622 25.9886 166.595ZM132.794 28.3444C81.825 55.8003 42.1968 106.668 27.1501 165.223C45.9558 156.405 73.7367 149.14 107.885 144.525C108.022 94.9672 117.166 53.6883 132.794 28.3444ZM172.073 2.22964C165.75 2.25207 159.549 3.97746 154.123 7.2245C147.038 11.3429 140.628 17.7845 135.011 26.2324C152.88 16.9237 172.193 10.7008 192.136 7.82642C185.265 4.10227 178.578 2.23668 172.073 2.22964Z" fill="#2C5DFE"/>
<path d="M43.7914 120.216C31.1205 113.025 25.2813 104.999 26.8335 96.9842C30.0963 80.0882 65.7965 65.1037 119.996 57.8173L120.102 58.6093C66.2505 65.8429 30.8143 80.6162 27.6043 97.1426C26.126 104.777 31.8279 112.507 44.1821 119.509L43.7914 120.216Z" fill="#2C5DFE"/>
<path d="M105.963 45.4199C98.508 41.1959 95.0552 36.4333 95.9738 31.6919C97.8956 21.7656 118.813 12.948 150.543 8.68176L150.649 9.46321C119.257 13.6872 98.6136 22.2619 96.7975 31.8398C95.9422 36.2221 99.2683 40.689 106.396 44.744L105.963 45.4199Z" fill="#2C5DFE"/>
<path d="M33.0102 163.185H32.2183C32.3133 110.079 52.2805 63.0973 87.0304 34.2897C116.501 9.83285 154.302 0.38169 193.455 7.66806L193.318 8.4495C154.387 1.20537 116.818 10.5615 87.5266 34.8494C52.9774 63.5619 33.1052 110.321 33.0102 163.185Z" fill="#2C5DFE"/>
<path d="M1.39642 188.856H0.604492C0.699524 140.745 19.9065 95.5269 54.7092 61.545C91.4442 25.6411 140.692 6.55926 193.392 7.68917V8.48117C140.892 7.31957 91.856 26.3592 55.2794 62.0835C20.6139 95.9282 1.49145 140.893 1.39642 188.856Z" fill="#2C5DFE"/>
<path d="M194.564 246.936C122.858 246.936 53.6324 235.742 20.0229 216.629L19.8223 216.512V216.312C20.0229 114.091 97.8327 20.5089 193.339 7.66803H193.466L193.582 7.7314C240.433 34.3531 278.393 139.097 278.203 241.212V241.561H277.854C250.24 245.188 222.416 246.984 194.564 246.936ZM20.5825 216.048C67.3275 242.448 182.369 253.567 277.411 240.843C277.516 139.182 239.831 35.0395 193.308 8.52339C98.3184 21.3221 20.8782 114.376 20.5825 216.048Z" fill="#2C5DFE"/>
<path d="M194.532 146.299C132.624 146.299 72.8496 136.668 43.791 120.163L44.1817 119.466C84.4329 142.392 184.121 151.991 266.334 140.924L266.44 141.716C242.598 144.827 218.576 146.358 194.532 146.299Z" fill="#2C5DFE"/>
<path d="M194.121 60.7107C157.924 60.7107 122.963 55.0716 105.963 45.4198L106.354 44.7334C129.869 58.0812 188.039 63.7414 236.04 57.247L236.146 58.0284C222.212 59.8506 208.173 60.7467 194.121 60.7107Z" fill="#2C5DFE"/>
<path d="M86.9565 237.432H86.1646C86.3546 135.296 134.388 32.2411 193.234 7.7103L193.54 8.4495C134.958 32.843 87.1465 135.56 86.9565 237.432Z" fill="#2C5DFE"/>
<path d="M179.38 246.355H178.588C178.778 144.335 185.251 37.3943 193.001 7.96368L193.772 8.16433C186.021 37.5316 179.57 144.388 179.38 246.355Z" fill="#2C5DFE"/>
<path d="M277.41 241.656V241.202C277.6 139.33 239.82 34.9022 193.191 8.41785L192.135 7.83705L193.307 7.67865C237.655 1.72283 279.776 14.0146 312.033 42.2625C329.188 57.3839 342.752 76.1439 351.736 97.1743C361.397 119.35 366.286 143.754 366.275 169.605C380.762 177.884 387.478 187.124 385.694 196.311C381.903 215.837 340.575 233.197 277.822 241.635L277.41 241.656ZM194.596 8.28057C240.908 35.7365 278.276 139.478 278.202 240.716C340.353 232.268 381.238 215.214 384.944 196.089C386.665 187.219 380.013 178.233 365.705 170.112L365.515 169.996V169.763C365.515 143.934 360.69 119.593 351.049 97.4172C342.101 76.5073 328.603 57.8564 311.537 42.8222C279.776 14.9861 238.257 2.73659 194.596 8.28057Z" fill="#2C5DFE"/>
<path d="M266.44 141.716L266.334 140.924C320.185 133.691 355.621 118.917 358.831 102.391C360.31 94.7666 354.608 87.0261 342.254 80.0249L342.644 79.3279C355.315 86.5192 361.154 94.5448 359.602 102.56C356.339 119.414 320.639 134.43 266.44 141.716Z" fill="#2C5DFE"/>
<path d="M236.146 58.0285L236.04 57.2471C267.422 53.0231 288.075 44.4484 289.891 34.86C290.736 30.4776 287.42 26.0213 280.283 21.9662L280.673 21.2798C288.128 25.5038 291.591 30.2664 290.662 35.0078C288.783 44.9447 267.876 53.7623 236.146 58.0285Z" fill="#2C5DFE"/>
<path d="M353.879 222.88H353.087C353.277 121.071 281.602 24.8702 193.318 8.44947L193.455 7.66803C282.099 24.1204 354.069 120.702 353.879 222.88Z" fill="#2C5DFE"/>
<path d="M385.482 197.304H384.691C384.881 95.5269 299.056 10.8255 193.381 8.4917V7.69971C299.5 10.0018 385.673 95.0623 385.482 197.304Z" fill="#2C5DFE"/>
<path d="M192.378 385.989H191.565L188.683 385.937H187.394C186.222 385.937 184.575 385.852 183.171 385.768C175.211 385.358 167.284 384.459 159.434 383.075C145.105 380.543 131.112 376.383 117.726 370.677C110.982 367.757 104.391 364.493 97.9803 360.899C92.0768 357.612 86.3785 353.969 80.9168 349.991C79.9876 349.283 78.9845 348.533 77.9392 347.762C74.4019 345.122 70.3894 342.134 67.4751 339.452C66.5037 338.565 65.4372 337.593 64.3074 336.59C61.8049 334.341 59.2074 332.007 57.1589 329.948C53.5688 326.336 49.0284 321.436 45.8713 317.762C41.4048 312.566 35.819 304.878 28.7761 294.276C25.8257 289.586 23.1121 284.75 20.6457 279.788C18.1119 274.934 15.8522 269.942 13.8773 264.835C10.3911 255.382 7.3815 245.761 4.85985 236.006C2.94866 227.928 1.60766 217.062 0.636221 208.498C0.19274 204.485 0.118826 199.406 0.0660304 194.928V192.753C-0.0408203 187.018 0.22371 181.283 0.85796 175.582C1.04802 174.136 1.23808 172.53 1.4387 170.862C1.87163 167.177 2.32567 163.364 2.87474 160.228C3.77226 155.117 5.20829 148.517 6.45426 143.807C7.658 139.256 9.44248 133.437 10.8996 129.34C12.135 125.845 13.9301 121.526 15.5139 117.724L17.1189 113.817C19.3807 108.527 21.9874 103.391 24.9221 98.4417C29.019 91.5249 35.3756 82.0315 41.1091 74.2488C44.6693 69.4847 48.55 64.9686 52.7241 60.7321L55.5962 57.8387C57.898 55.5049 60.5167 52.8438 62.7341 50.8691C66.8627 47.1942 72.818 42.2733 77.9075 38.3239C81.5398 35.5043 86.6504 32.1568 88.6777 30.8474C91.6554 28.9255 95.6573 26.6234 98.8778 24.7226L99.8281 24.1735C106.257 20.5111 112.932 17.3001 119.806 14.5639C125.698 12.2724 130.164 10.6356 133.438 9.56909C137.725 8.18573 143.543 6.60174 147.555 5.57742C152.602 4.29967 159.17 3.11695 161.028 2.77903C165.252 2.03984 168.737 1.62799 172.411 1.2056C173.752 1.0472 178.937 0.561441 181.735 0.424162C185.557 0.234082 188.852 0.0651216 194.48 0.0968015C203.38 0.189642 212.264 0.895309 221.067 2.20879C225.344 2.82127 230.307 3.77167 232.598 4.25743C235.882 4.96495 240.718 6.15822 245.564 7.42542C248.31 8.16461 252.153 9.36844 255.12 10.4139C259.523 11.9768 264.687 13.9515 268.298 15.4615C274.633 18.1015 282.68 22.3994 288.033 25.2401C289.258 25.937 290.472 26.6551 291.676 27.3521C295.435 29.5802 299.796 32.2624 303.037 34.6701C303.988 35.3776 305.044 36.1485 306.142 36.9405C308.655 38.7779 311.506 40.8582 313.681 42.6323C318.061 46.0875 322.262 49.7636 326.267 53.6464C327.207 54.6179 328.252 55.6739 329.351 56.8143C331.747 59.222 334.229 61.7036 336.172 63.879C339.804 67.9445 343.943 72.9394 346.731 76.5509C349.518 80.1624 352.897 84.9989 355.125 88.5048C356.35 90.4161 360.584 97.1112 363.435 102.623C368.352 111.829 372.509 121.421 375.863 131.304C379.369 141.6 382.199 155.381 383.255 160.819C384.237 165.878 384.923 172.742 385.366 177.61C385.652 181.095 385.768 185.487 385.863 189.374C385.863 190.767 385.937 192.109 385.979 193.334C386.09 199.78 385.759 206.226 384.986 212.627C384.332 218.044 383.614 223.641 382.801 227.939C381.85 233.018 380.34 239.607 379.042 244.317C377.806 248.837 375.958 254.613 374.459 258.71C373.139 262.28 371.291 266.683 369.591 270.569L368.06 274.17C366.042 278.685 363.783 283.088 361.292 287.359C359.286 290.876 356.53 295.184 354.101 298.975L352.317 301.848C348.932 306.915 345.251 311.778 341.293 316.41C335.253 323.601 328.723 330.365 321.748 336.653C317.524 340.328 311.485 345.228 306.29 349.156C303.407 351.332 299.447 353.898 296.269 355.957L295.519 356.443C288.531 360.815 281.281 364.754 273.81 368.238C271.181 369.4 264.486 372.325 259.281 374.247C255.384 375.683 249.777 377.499 245.237 378.766C238.566 380.639 231.803 382.165 224.974 383.339C219.864 384.205 216.981 384.532 213.634 384.912C211.68 385.134 206.897 385.556 204.31 385.683C200.636 385.873 198.26 385.989 195.726 386H192.378V385.989ZM193.191 0.888798C188.376 0.888798 185.325 1.03664 181.83 1.21616C179.042 1.35344 173.889 1.82864 172.559 1.98704C168.884 2.41999 165.421 2.82127 161.219 3.56047C156.203 4.4475 151.187 5.48238 147.809 6.3483C143.807 7.40429 138.01 8.94605 133.733 10.3294C130.471 11.3854 126.025 13.0116 120.144 15.3031C113.309 18.0025 106.672 21.1783 100.282 24.8071L99.3318 25.3562C96.1641 27.2253 92.12 29.5802 89.1529 31.4599C87.1361 32.7588 82.0572 36.0957 78.446 38.8519C73.3671 42.7907 67.4329 47.7011 63.3148 51.3654C61.1186 53.319 58.5105 55.9696 56.2086 58.3033L53.3365 61.1967C49.1766 65.4014 45.3132 69.8896 41.7744 74.629C36.0408 82.3906 29.7053 91.8523 25.619 98.7585C22.716 103.691 20.141 108.81 17.9109 114.081C17.4146 115.295 16.855 116.615 16.2953 117.988C14.722 121.79 12.927 126.098 11.6916 129.604C10.245 133.691 8.52384 139.467 7.26731 144.008C6.01079 148.549 4.60643 155.275 3.70891 160.365C3.15984 163.481 2.7058 167.282 2.27288 170.925C2.08282 172.594 1.89274 174.199 1.70268 175.656C1.06802 181.318 0.803494 187.015 0.910759 192.71V194.886C0.974113 199.342 1.04802 204.39 1.4915 208.371C2.44182 216.924 3.77226 227.759 5.71513 235.827C8.2262 245.554 11.2288 255.148 14.7115 264.571C16.6742 269.649 18.9198 274.613 21.4376 279.439C23.886 284.374 26.582 289.181 29.5153 293.843C34.7364 301.972 40.4268 309.789 46.5576 317.255C49.7253 320.919 54.2235 325.808 57.803 329.409C59.8409 331.447 62.4173 333.77 64.9198 336.02C66.0391 337.023 67.1161 337.984 68.0876 338.871C70.9807 341.532 74.9826 344.51 78.4988 347.139C79.5547 347.91 80.5472 348.66 81.4764 349.367C86.9089 353.321 92.5754 356.943 98.4449 360.213C104.832 363.794 111.398 367.047 118.116 369.959C138.795 378.763 160.863 383.85 183.308 384.986C184.67 385.071 186.307 385.134 187.479 385.155H188.757L191.629 385.208C192.494 385.208 193.55 385.208 194.532 385.208H195.789C198.302 385.208 200.678 385.081 204.236 384.902C206.876 384.764 211.628 384.342 213.581 384.12C216.907 383.74 219.79 383.413 224.869 382.557C231.673 381.394 238.412 379.875 245.058 378.006C249.545 376.749 255.163 374.933 259.038 373.508C264.233 371.596 270.896 368.682 273.525 367.509C280.953 364.043 288.164 360.129 295.118 355.788L295.868 355.292C299.035 353.243 302.985 350.677 305.846 348.523C311.031 344.605 317.081 339.716 321.262 336.062C328.206 329.795 334.708 323.056 340.723 315.892C344.661 311.289 348.321 306.454 351.683 301.415L353.499 298.564C355.917 294.783 358.663 290.496 360.669 286.948C363.148 282.709 365.4 278.342 367.416 273.864L368.947 270.252C370.605 266.377 372.484 261.984 373.794 258.436C375.293 254.36 377.13 248.604 378.366 244.106C379.654 239.407 381.164 232.859 382.114 227.801C382.906 223.514 383.624 217.928 384.279 212.532C385.051 206.173 385.383 199.769 385.271 193.365C385.271 192.13 385.197 190.789 385.155 189.384C385.06 185.519 384.955 181.137 384.67 177.673C384.268 172.826 383.614 165.994 382.558 160.978C381.502 155.539 378.64 141.811 375.166 131.558C371.83 121.701 367.695 112.134 362.802 102.951C359.961 97.4702 355.748 90.8069 354.523 88.8955C352.306 85.4318 349.022 80.7643 346.161 77.005C343.299 73.2457 339.276 68.3881 335.602 64.333C333.669 62.2211 331.198 59.6972 328.812 57.3001C327.756 56.2441 326.7 55.1881 325.718 54.1321C321.736 50.2648 317.556 46.6061 313.195 43.1709L312.931 42.9491C346.203 72.517 365.61 116.805 366.254 166.807C366.254 167.652 366.254 168.507 366.254 169.362V169.732C366.117 271.963 288.223 365.545 192.758 378.386L192.653 377.605C287.78 364.806 365.304 271.583 365.515 169.785V169.415C365.515 108.769 337.882 56.2652 291.317 28.0068L287.695 25.8948C282.363 23.0647 274.285 18.7774 268.034 16.1479C264.444 14.6484 259.291 12.6737 254.899 11.1214C251.953 10.0654 248.13 8.88269 245.395 8.15405C240.57 6.85517 235.744 5.6619 232.471 4.98606C230.19 4.48974 225.259 3.54991 221.004 2.93743C212.233 1.65351 203.386 0.96905 194.522 0.888798H193.191Z" fill="#2C5DFE"/>
</svg>
