<svg width="426" height="582" viewBox="0 0 426 582" fill="none" xmlns="http://www.w3.org/2000/svg">
<path d="M0.5 24C0.5 11.0213 11.0213 0.5 24 0.5H88.6541C92.1015 0.5 95.5068 1.2585 98.6283 2.72172L120.947 13.1837C124.202 14.7092 127.752 15.5 131.346 15.5H292.008C295.369 15.5 298.695 14.8084 301.777 13.4682L327.122 2.44886C330.078 1.16338 333.268 0.5 336.492 0.5H402C414.979 0.5 425.5 11.0213 425.5 24V558C425.5 570.979 414.979 581.5 402 581.5H24C11.0213 581.5 0.5 570.979 0.5 558V24Z" fill="#0E1326" stroke="#2C5DFE"/>
</svg>
