<svg width="30" height="30" viewBox="0 0 30 30" fill="none" xmlns="http://www.w3.org/2000/svg">
<path fill-rule="evenodd" clip-rule="evenodd" d="M21 19.08C20.24 19.08 19.56 19.38 19.04 19.85L11.91 15.7C11.96 15.47 12 15.24 12 15C12 14.76 11.96 14.53 11.91 14.3L18.96 10.19C19.5 10.69 20.21 11 21 11C22.66 11 24 9.66 24 8C24 6.34 22.66 5 21 5C19.34 5 18 6.34 18 8C18 8.24 18.04 8.47 18.09 8.7L11.04 12.81C10.5 12.31 9.79 12 9 12C7.34 12 6 13.34 6 15C6 16.66 7.34 18 9 18C9.79 18 10.5 17.69 11.04 17.19L18.16 21.35C18.11 21.56 18.08 21.78 18.08 22C18.08 23.61 19.39 24.92 21 24.92C22.61 24.92 23.92 23.61 23.92 22C23.92 20.39 22.61 19.08 21 19.08Z" fill="#6B7A99"/>
</svg>
