<svg width="40" height="40" viewBox="0 0 40 40" fill="none" xmlns="http://www.w3.org/2000/svg">
<path fill-rule="evenodd" clip-rule="evenodd" d="M36.6666 7.33333C36.6666 5.12419 34.8757 3.33333 32.6666 3.33333H7.33325C5.12411 3.33333 3.33325 5.12419 3.33325 7.33333V19.25H36.6666V7.33333ZM36.6666 20.75H3.33325V32.6667C3.33325 34.8758 5.12411 36.6667 7.33325 36.6667L32.6666 36.6667C34.8757 36.6667 36.6666 34.8758 36.6666 32.6667V20.75ZM29.9999 7.08333C30.6903 7.08333 31.2499 7.64297 31.2499 8.33333V11.6667C31.2499 12.357 30.6903 12.9167 29.9999 12.9167C29.3096 12.9167 28.7499 12.357 28.7499 11.6667V8.33333C28.7499 7.64297 29.3096 7.08333 29.9999 7.08333ZM24.5833 8.33333C24.5833 7.64297 24.0236 7.08333 23.3333 7.08333C22.6429 7.08333 22.0833 7.64297 22.0833 8.33333V11.6667C22.0833 12.357 22.6429 12.9167 23.3333 12.9167C24.0236 12.9167 24.5833 12.357 24.5833 11.6667V8.33333ZM29.9999 25.4167C30.6903 25.4167 31.2499 25.9763 31.2499 26.6667V30C31.2499 30.6904 30.6903 31.25 29.9999 31.25C29.3096 31.25 28.7499 30.6904 28.7499 30V26.6667C28.7499 25.9763 29.3096 25.4167 29.9999 25.4167ZM24.5833 26.6667C24.5833 25.9763 24.0236 25.4167 23.3333 25.4167C22.6429 25.4167 22.0833 25.9763 22.0833 26.6667V30C22.0833 30.6904 22.6429 31.25 23.3333 31.25C24.0236 31.25 24.5833 30.6904 24.5833 30V26.6667Z" fill="white"/>
</svg>
