<svg width="28" height="20" viewBox="0 0 28 20" fill="none" xmlns="http://www.w3.org/2000/svg">
<rect width="28" height="20" rx="2" fill="white"/>
<mask id="mask0_98_3551" style="mask-type:luminance" maskUnits="userSpaceOnUse" x="0" y="0" width="28" height="20">
<rect width="28" height="20" rx="2" fill="white"/>
</mask>
<g mask="url(#mask0_98_3551)">
<rect width="28" height="20" fill="#05AB41"/>
<path fill-rule="evenodd" clip-rule="evenodd" d="M3.53103 10.5598C3.12503 10.2971 3.12503 9.70307 3.53103 9.44037L13.6372 2.90109C13.8576 2.75849 14.1411 2.75849 14.3615 2.90109L24.4677 9.44037C24.8737 9.70307 24.8737 10.2971 24.4677 10.5598L14.3615 17.0991C14.1411 17.2417 13.8576 17.2417 13.6372 17.0991L3.53103 10.5598Z" fill="#FDD216"/>
<path fill-rule="evenodd" clip-rule="evenodd" d="M14.0007 14.6666C16.578 14.6666 18.6673 12.5772 18.6673 9.99992C18.6673 7.42259 16.578 5.33325 14.0007 5.33325C11.4233 5.33325 9.33398 7.42259 9.33398 9.99992C9.33398 12.5772 11.4233 14.6666 14.0007 14.6666Z" fill="#053087"/>
<mask id="mask1_98_3551" style="mask-type:luminance" maskUnits="userSpaceOnUse" x="9" y="5" width="10" height="10">
<path fill-rule="evenodd" clip-rule="evenodd" d="M14.0007 14.6666C16.578 14.6666 18.6673 12.5772 18.6673 9.99992C18.6673 7.42259 16.578 5.33325 14.0007 5.33325C11.4233 5.33325 9.33398 7.42259 9.33398 9.99992C9.33398 12.5772 11.4233 14.6666 14.0007 14.6666Z" fill="white"/>
</mask>
<g mask="url(#mask1_98_3551)">
<path d="M8.78133 8.78008C9.51403 8.18676 11.8784 8.74883 14.0854 9.33757C16.2925 9.92631 18.5944 11.1603 19.1805 11.8841" stroke="white" stroke-width="1.33333" stroke-linecap="square"/>
</g>
</g>
</svg>
