<svg width="30" height="30" viewBox="0 0 30 30" fill="none" xmlns="http://www.w3.org/2000/svg">
<path fill-rule="evenodd" clip-rule="evenodd" d="M19.5 15C20.88 15 21.99 13.88 21.99 12.5C21.99 11.12 20.88 10 19.5 10C18.12 10 17 11.12 17 12.5C17 13.88 18.12 15 19.5 15ZM12 14C13.66 14 14.99 12.66 14.99 11C14.99 9.34 13.66 8 12 8C10.34 8 9 9.34 9 11C9 12.66 10.34 14 12 14ZM19.5 17C17.67 17 14 17.92 14 19.75V21C14 21.55 14.45 22 15 22H24C24.55 22 25 21.55 25 21V19.75C25 17.92 21.33 17 19.5 17ZM12 16C9.67 16 5 17.17 5 19.5V21C5 21.55 5.45 22 6 22H12V19.75C12 18.9 12.33 17.41 14.37 16.28C13.5 16.1 12.66 16 12 16Z" fill="#6B7A99"/>
</svg>
