<svg width="53" height="14" viewBox="0 0 53 14" fill="none" xmlns="http://www.w3.org/2000/svg">
<path d="M8.88941 0.679321C8.23117 0.226806 7.37222 0 6.31256 0H2.21013C1.88528 0 1.70581 0.162463 1.67172 0.487076L0.00523108 10.9481C-0.012089 11.0508 0.0136167 11.1448 0.0821133 11.2302C0.150218 11.3158 0.235878 11.3583 0.338466 11.3583H2.28709C2.62887 11.3583 2.81673 11.1963 2.85121 10.8713L3.31266 8.05099C3.32951 7.91431 3.38962 7.80318 3.49221 7.7176C3.59472 7.63218 3.72293 7.5763 3.87678 7.55075C4.03062 7.52536 4.17569 7.5125 4.31268 7.5125C4.44928 7.5125 4.61159 7.5212 4.79991 7.53821C4.98777 7.55522 5.10752 7.5636 5.15885 7.5636C6.62879 7.5636 7.78257 7.14941 8.62028 6.32008C9.4576 5.49123 9.87673 4.34184 9.87673 2.87144C9.87673 1.86296 9.54734 1.13231 8.88941 0.679086V0.679321ZM6.77425 3.82044C6.68851 4.4188 6.46656 4.81175 6.10762 4.99984C5.7486 5.18817 5.23582 5.2819 4.56927 5.2819L3.72309 5.30745L4.15907 2.56391C4.19308 2.37606 4.30414 2.28201 4.49231 2.28201H4.97962C5.66302 2.28201 6.15903 2.38052 6.46672 2.57677C6.77425 2.77348 6.87683 3.18814 6.77425 3.82044Z" fill="white"/>
<path d="M52.1824 0H50.2853C50.0967 0 49.9858 0.0940464 49.9519 0.282216L48.2853 10.9485L48.2596 10.9998C48.2596 11.0857 48.2937 11.1665 48.3623 11.2434C48.4303 11.3202 48.5161 11.3587 48.6186 11.3587H50.3111C50.6353 11.3587 50.8149 11.1967 50.8496 10.8716L52.5161 0.384803V0.359332C52.516 0.119908 52.4045 0.000314508 52.1824 0.000314508V0Z" fill="white"/>
<path d="M29.2595 4.12845C29.2595 4.04319 29.2252 3.96184 29.1573 3.88511C29.0887 3.80823 29.0117 3.76951 28.9265 3.76951H26.9522C26.7638 3.76951 26.61 3.85541 26.4905 4.02587L23.7727 8.02585L22.6446 4.17987C22.5587 3.90659 22.3709 3.76951 22.0805 3.76951H20.1572C20.0716 3.76951 19.9947 3.80807 19.9267 3.88511C19.8581 3.96184 19.8241 4.04334 19.8241 4.12845C19.8241 4.16286 19.9908 4.66694 20.3241 5.64125C20.6573 6.61588 21.0162 7.66715 21.4009 8.79538C21.7855 9.92337 21.9863 10.522 22.0034 10.5898C20.6017 12.5045 19.9011 13.5301 19.9011 13.6666C19.9011 13.889 20.012 14 20.2344 14H22.2087C22.3966 14 22.5504 13.9147 22.6703 13.7437L29.2086 4.30785C29.2425 4.27399 29.2595 4.21443 29.2595 4.12838V4.12845Z" fill="white"/>
<path d="M47.6454 3.76942H45.6967C45.4572 3.76942 45.3124 4.05156 45.2611 4.61575C44.8161 3.9322 44.0047 3.58995 42.825 3.58995C41.5944 3.58995 40.5473 4.05156 39.6842 4.97462C38.8209 5.89768 38.3895 6.98344 38.3895 8.23111C38.3895 9.23983 38.6843 10.0431 39.2739 10.6412C39.8636 11.2399 40.6541 11.5386 41.6459 11.5386C42.1415 11.5386 42.6457 11.4359 43.1585 11.2309C43.6713 11.0258 44.0726 10.7525 44.3637 10.4105C44.3637 10.4276 44.3463 10.5043 44.3125 10.641C44.2779 10.778 44.2611 10.8809 44.2611 10.9486C44.2611 11.2225 44.3719 11.3588 44.5945 11.3588H46.3638C46.6881 11.3588 46.8764 11.1968 46.9275 10.8718L47.9789 4.17962C47.9957 4.07695 47.9702 3.98314 47.9019 3.89756C47.8332 3.81229 47.7479 3.76942 47.6454 3.76942ZM44.2995 8.82078C43.8636 9.24814 43.3379 9.4617 42.7226 9.4617C42.2267 9.4617 41.8253 9.32518 41.5175 9.05151C41.2096 8.77862 41.0558 8.40251 41.0558 7.92335C41.0558 7.29136 41.2695 6.75671 41.697 6.32088C42.1238 5.88498 42.6542 5.66711 43.2866 5.66711C43.7648 5.66711 44.1623 5.8081 44.4789 6.09C44.7948 6.37214 44.9534 6.76102 44.9534 7.25688C44.9532 7.87217 44.7353 8.39366 44.2995 8.82078Z" fill="white"/>
<path d="M18.5179 3.76942H16.5692C16.3296 3.76942 16.1846 4.05156 16.1332 4.61575C15.6717 3.9322 14.8597 3.58995 13.6974 3.58995C12.4667 3.58995 11.4195 4.05156 10.5564 4.97462C9.69311 5.89768 9.26168 6.98344 9.26168 8.23111C9.26168 9.23983 9.55659 10.0431 10.1463 10.6412C10.7361 11.2399 11.5264 11.5386 12.518 11.5386C12.9964 11.5386 13.4924 11.4359 14.0051 11.2309C14.5179 11.0258 14.9281 10.7525 15.2358 10.4105C15.1672 10.6154 15.1332 10.795 15.1332 10.9486C15.1332 11.2225 15.2443 11.3588 15.4665 11.3588H17.2357C17.5602 11.3588 17.7485 11.1968 17.7998 10.8718L18.851 4.17962C18.8678 4.07695 18.8423 3.98314 18.7741 3.89756C18.7057 3.81229 18.6203 3.76942 18.5179 3.76942ZM15.1719 8.83348C14.7359 9.25276 14.2015 9.4617 13.5694 9.4617C13.0734 9.4617 12.676 9.32518 12.3771 9.05151C12.0778 8.77862 11.9283 8.40251 11.9283 7.92335C11.9283 7.29136 12.1419 6.75671 12.5694 6.32088C12.9964 5.88498 13.5264 5.66703 14.1591 5.66703C14.6375 5.66703 15.0349 5.8081 15.3514 6.09C15.6674 6.37214 15.8257 6.76102 15.8257 7.25688C15.8256 7.88933 15.6078 8.41513 15.1719 8.83348Z" fill="white"/>
<path d="M38.0173 0.679321C37.3592 0.226806 36.5005 0 35.4406 0H31.3637C31.0218 0 30.8336 0.162463 30.7997 0.487076L29.133 10.9481C29.1157 11.0508 29.1414 11.1448 29.21 11.2302C29.2778 11.3158 29.3637 11.3583 29.4663 11.3583H31.5687C31.7737 11.3583 31.9104 11.2474 31.979 11.0251L32.4405 8.05099C32.4575 7.91431 32.5173 7.80318 32.6201 7.7176C32.7227 7.63218 32.8507 7.5763 33.0047 7.55075C33.1584 7.52536 33.3035 7.5125 33.4405 7.5125C33.5772 7.5125 33.7395 7.5212 33.9276 7.53821C34.1156 7.55522 34.2356 7.5636 34.2866 7.5636C35.7568 7.5636 36.9104 7.14941 37.7481 6.32008C38.5857 5.49123 39.0044 4.34184 39.0044 2.87144C39.0045 1.86296 38.6753 1.13223 38.0173 0.679086V0.679321ZM35.3893 4.89718C35.0132 5.15353 34.449 5.28167 33.6971 5.28167L32.8765 5.30737L33.3124 2.56376C33.3463 2.37598 33.4574 2.28178 33.6456 2.28178H34.107C34.4831 2.28178 34.7822 2.29894 35.0048 2.33303C35.2265 2.36736 35.4406 2.47402 35.6457 2.65341C35.8509 2.83296 35.9534 3.09378 35.9534 3.43548C35.9534 4.15367 35.7651 4.64059 35.3893 4.89718Z" fill="white"/>
</svg>
