<svg width="32" height="32" viewBox="0 0 32 32" fill="none" xmlns="http://www.w3.org/2000/svg">
<path fill-rule="evenodd" clip-rule="evenodd" d="M15.9893 5.33331C10.1013 5.33331 5.33325 10.112 5.33325 16C5.33325 21.888 10.1013 26.6666 15.9893 26.6666C21.8879 26.6666 26.6666 21.888 26.6666 16C26.6666 10.112 21.8879 5.33331 15.9893 5.33331ZM19.4346 21.7493L15.9999 19.68L12.5653 21.7493C12.1599 21.9946 11.6586 21.632 11.7653 21.1733L12.6719 17.2693L9.65325 14.656C9.30125 14.3466 9.49325 13.76 9.96258 13.7173L13.9519 13.376L15.5093 9.69598C15.6906 9.25865 16.3093 9.25865 16.4906 9.69598L18.0479 13.3653L22.0373 13.7066C22.5066 13.7493 22.6986 14.336 22.3359 14.6453L19.3173 17.2586L20.2239 21.1733C20.3306 21.632 19.8399 21.9946 19.4346 21.7493Z" fill="white"/>
</svg>
