<svg width="80" height="80" viewBox="0 0 80 80" fill="none" xmlns="http://www.w3.org/2000/svg">
<path d="M56.6665 66.6666H13.3332V23.3333C13.3332 21.5 11.8332 20 9.99984 20C8.1665 20 6.6665 21.5 6.6665 23.3333V66.6666C6.6665 70.3333 9.6665 73.3333 13.3332 73.3333H56.6665C58.4998 73.3333 59.9998 71.8333 59.9998 70C59.9998 68.1666 58.4998 66.6666 56.6665 66.6666Z" fill="white"/>
<path d="M66.6665 6.66663H26.6665C22.9998 6.66663 19.9998 9.66663 19.9998 13.3333V53.3333C19.9998 57 22.9998 60 26.6665 60H66.6665C70.3332 60 73.3332 57 73.3332 53.3333V13.3333C73.3332 9.66663 70.3332 6.66663 66.6665 6.66663ZM46.6998 50C44.7332 50 43.1998 48.4333 43.1998 46.5C43.1998 44.5333 44.7665 43.0333 46.6998 43.0333C48.6665 43.0333 50.1665 44.5333 50.1665 46.5C50.1332 48.4333 48.6665 50 46.6998 50ZM55.0332 29.4333C52.9332 32.5333 50.9332 33.4666 49.8332 35.4666C49.5665 35.9333 49.3998 36.3333 49.2998 37.1C49.1332 38.4 48.0998 39.3666 46.7998 39.3666H46.6998C45.2332 39.3666 44.0665 38.1 44.1998 36.6333C44.2998 35.7 44.4998 34.7333 45.0332 33.8333C46.3998 31.4 48.9665 29.9666 50.4665 27.8333C52.0665 25.5666 51.1665 21.3666 46.6665 21.3666C44.6332 21.3666 43.2998 22.4333 42.4665 23.7C41.8332 24.6666 40.5665 25 39.4998 24.5333C38.0998 23.9333 37.4998 22.2 38.3665 20.9666C40.0665 18.5 42.8998 16.6666 46.6332 16.6666C50.7332 16.6666 53.5665 18.5333 54.9998 20.8666C56.2332 22.9 56.9332 26.6333 55.0332 29.4333Z" fill="white"/>
</svg>
