<svg width="30" height="30" viewBox="0 0 30 30" fill="none" xmlns="http://www.w3.org/2000/svg">
<path fill-rule="evenodd" clip-rule="evenodd" d="M20.09 7.99148C19.39 6.96148 18.59 6.00148 17.69 5.14148C17.34 4.80148 16.75 5.12148 16.85 5.60148C17.04 6.54148 17.24 7.78148 17.24 8.89148C17.24 10.9515 15.89 12.6215 13.83 12.6215C12.29 12.6215 11.03 11.6915 10.48 10.3615C10.38 10.1615 10.34 10.0415 10.28 9.82148C10.17 9.40148 9.62 9.27148 9.38 9.64148C9.2 9.91148 9.03 10.1815 8.87 10.4715C7.68 12.5115 7 14.8915 7 17.4315C7 21.8515 10.58 25.4315 15 25.4315C19.42 25.4315 23 21.8515 23 17.4315C23 13.9415 21.92 10.7015 20.09 7.99148ZM14.71 22.4315C12.93 22.4315 11.49 21.0315 11.49 19.2915C11.49 17.6715 12.54 16.5315 14.3 16.1715C15.77 15.8715 17.28 15.2415 18.33 14.2515C18.61 13.9915 19.07 14.1115 19.15 14.4815C19.38 15.5015 19.5 16.5615 19.5 17.6315C19.51 20.2815 17.36 22.4315 14.71 22.4315Z" fill="#6B7A99"/>
</svg>
