<svg width="20" height="8" viewBox="0 0 20 8" fill="none" xmlns="http://www.w3.org/2000/svg">
<path d="M2.97851 1.61798C3.19215 1.54572 3.42149 1.50802 3.66026 1.50802C4.7033 1.50802 5.57355 2.24946 5.77148 3.23282L7.24808 2.93121C6.90877 1.25982 5.43218 0 3.66026 0C3.25498 0 2.86541 0.0659758 2.50098 0.188502L2.97851 1.61798Z" fill="#FFF100"/>
<path d="M1.23469 6.40595L2.23375 5.27494C1.78763 4.87908 1.50802 4.30415 1.50802 3.6601C1.50802 3.01919 1.78763 2.44112 2.23375 2.0484L1.23469 0.920532C0.477539 1.59286 0 2.56993 0 3.66324C0 4.75341 0.477539 5.73359 1.23469 6.40595Z" fill="#00A3DF"/>
<path d="M5.77169 4.09363C5.57062 5.07698 4.70352 5.81528 3.66047 5.81528C3.42171 5.81528 3.19236 5.77758 2.97558 5.70532L2.49805 7.1348C2.86248 7.25729 3.2552 7.3233 3.66047 7.3233C5.43239 7.3233 6.90899 6.06662 7.24829 4.39523L5.77169 4.09363Z" fill="#EE4023"/>
<path d="M12.1681 5.10535C11.9231 5.34415 11.5933 5.48864 11.2288 5.48235C10.9774 5.47921 10.745 5.40381 10.5502 5.27814L10.0601 6.05732C10.3962 6.26778 10.7889 6.39345 11.2162 6.39973C11.8351 6.40915 12.4006 6.1641 12.8122 5.76511L12.1681 5.10535ZM11.2822 1.92908C10.0506 1.91023 9.03277 2.89673 9.01389 4.12828C9.0076 4.59011 9.13955 5.02366 9.37518 5.38182L13.4217 3.65071C13.1955 2.67995 12.3284 1.94793 11.2823 1.92908H11.2822ZM9.94072 4.30418C9.93444 4.25391 9.93129 4.2005 9.93129 4.1471C9.94386 3.42136 10.5408 2.84015 11.2665 2.85271C11.6624 2.859 12.0142 3.03807 12.2498 3.32083L9.94072 4.30418ZM14.6941 0.923706V5.23727L15.4419 5.5483L15.0868 6.3997L14.3454 6.09181C14.1789 6.01955 14.0658 5.90959 13.9809 5.78392C13.8993 5.65826 13.8364 5.48229 13.8364 5.24983V0.923706H14.6941ZM17.3929 2.91869C17.5248 2.87471 17.663 2.85271 17.8107 2.85271C18.4485 2.85271 18.9763 3.30512 19.0988 3.90518L20.0005 3.71982C19.7931 2.69877 18.8915 1.93219 17.8107 1.93219C17.5625 1.93219 17.3238 1.97304 17.1039 2.04529L17.3929 2.91869ZM16.3278 5.83733L16.9373 5.1493C16.664 4.90739 16.4943 4.55552 16.4943 4.1628C16.4943 3.77009 16.6671 3.41822 16.9373 3.17945L16.3278 2.49142C15.866 2.89984 15.5738 3.4999 15.5738 4.16595C15.5738 4.83199 15.866 5.42891 16.3278 5.83733ZM19.0988 4.42982C18.9763 5.02991 18.4453 5.48229 17.8107 5.48229C17.6662 5.48229 17.5248 5.45716 17.3929 5.4132L17.1007 6.2866C17.3238 6.36197 17.5625 6.40284 17.8107 6.40284C18.8915 6.40284 19.7931 5.63626 20.0005 4.61521L19.0988 4.42982Z" fill="#231F20"/>
</svg>
