<svg width="30" height="30" viewBox="0 0 30 30" fill="none" xmlns="http://www.w3.org/2000/svg">
<path fill-rule="evenodd" clip-rule="evenodd" d="M15.6482 13.0021C14.6982 10.3121 11.8982 8.50207 8.76823 9.12207C6.47823 9.58207 4.61823 11.4121 4.13823 13.7021C3.31823 17.5721 6.25823 21.0021 9.99823 21.0021C12.6082 21.0021 14.8282 19.3321 15.6482 17.0021H19.9982V19.0021C19.9982 20.1021 20.8982 21.0021 21.9982 21.0021C23.0982 21.0021 23.9982 20.1021 23.9982 19.0021V17.0021C25.0982 17.0021 25.9982 16.1021 25.9982 15.0021C25.9982 13.9021 25.0982 13.0021 23.9982 13.0021H15.6482ZM9.99823 17.0021C8.89823 17.0021 7.99823 16.1021 7.99823 15.0021C7.99823 13.9021 8.89823 13.0021 9.99823 13.0021C11.0982 13.0021 11.9982 13.9021 11.9982 15.0021C11.9982 16.1021 11.0982 17.0021 9.99823 17.0021Z" fill="#6B7A99"/>
</svg>
