<svg width="20" height="13" viewBox="0 0 20 13" fill="none" xmlns="http://www.w3.org/2000/svg">
<path d="M12.5937 1.3637L7.24394 1.38209L7.40605 11.1761L12.7558 11.1577L12.5937 1.3637Z" fill="#FF5F00"/>
<path d="M7.59609 6.29883C7.56299 4.30682 8.45534 2.53683 9.85306 1.38874C8.79804 0.560851 7.4754 0.063016 6.04161 0.0679266C2.64491 0.0795599 -0.0568367 2.87779 0.000446507 6.32485C0.0577297 9.7719 2.85216 12.5513 6.24887 12.5397C7.68265 12.5348 8.9886 12.0279 10.016 11.1929C8.58056 10.0718 7.6292 8.29085 7.59609 6.29883Z" fill="#EB001B"/>
<path d="M19.9988 6.21486C20.056 9.66191 17.3543 12.4601 13.9576 12.4718C12.5238 12.4767 11.2012 11.9789 10.1461 11.151C11.5609 10.0028 12.4362 8.23289 12.4031 6.24087C12.37 4.24886 11.4189 2.48519 9.98322 1.34679C11.0106 0.511779 12.3166 0.00494095 13.7503 3.03795e-05C17.1471 -0.011603 19.9418 2.78513 19.9988 6.21486Z" fill="#F79E1B"/>
</svg>
