<svg width="315" height="110" viewBox="0 0 315 110" fill="none" xmlns="http://www.w3.org/2000/svg">
<path d="M1.5 101.789L4.74999 96.944C7.99999 92.0986 14.5 82.4077 21 84.0963C27.5 85.7849 33.9999 98.8528 40.4999 104.383C46.9999 109.914 53.4999 107.906 59.9999 99.7763C66.4999 91.6462 72.9999 77.3932 79.4999 65.241C85.9999 53.0888 92.4999 43.0376 98.9998 40.3978C105.5 37.758 112 42.5296 118.5 43.2134C125 43.8972 131.5 40.4931 138 41.8838C144.5 43.2744 151 49.4598 157.5 54.0601C164 58.6604 170.5 61.6757 177 68.6103C183.5 75.5449 190 86.3987 196.5 77.7609C203 69.1231 209.5 40.9936 216 34.0217C222.5 27.0498 229 41.2354 235.5 45.5822C242 49.929 248.5 44.437 255 49.5509C261.5 54.6648 268 70.3846 274.5 74.8222C281 79.2598 287.5 72.4152 294 58.3146C300.5 44.2139 307 22.8571 310.25 12.1788L313.5 1.50036" stroke="#2C5DFE" stroke-width="3" stroke-linecap="round"/>
<circle cx="218.5" cy="33.5003" r="5.99999" fill="#2C5DFE"/>
<circle opacity="0.25" cx="218.5" cy="33.5003" r="12" fill="#2C5DFE"/>
<circle cx="77.4999" cy="66.5003" r="3.99999" fill="#2C5DFE"/>
<circle opacity="0.25" cx="77.4999" cy="66.5003" r="7.99999" fill="#2C5DFE"/>
</svg>
