<svg width="12" height="12" viewBox="0 0 12 12" fill="none" xmlns="http://www.w3.org/2000/svg">
<path d="M12 6.00254C11.9987 9.31641 9.31101 12.0016 5.99746 12C2.68391 11.9987 -0.00126899 9.31133 4.49917e-07 5.99746C0.00126989 2.68486 2.68677 0.000317388 5.99936 2.81152e-08C9.31323 -0.000317331 11.9997 2.68613 12 6V6.00254Z" fill="#F7931A"/>
<path d="M7.09334 4.83612C7.09334 5.60286 5.88959 5.51336 5.50654 5.51336V4.15824C5.88959 4.1576 7.09175 4.03574 7.09175 4.83548L7.09334 4.83612ZM7.40879 6.94402C7.40879 7.78661 5.96639 7.69077 5.50622 7.69108V6.19695C5.96639 6.19664 7.40911 6.0643 7.40911 6.94338L7.40879 6.94402ZM8.35833 4.53209C8.28121 3.72821 7.58715 3.45878 6.71124 3.38197V2.26709H6.03272V3.35278C5.85436 3.35278 5.67188 3.35627 5.49067 3.36008V2.26741H4.81247V3.38197C4.66554 3.38483 4.52114 3.38769 4.38055 3.38769V3.3842H3.44434V4.11C3.44434 4.11 3.94545 4.10048 3.9372 4.11C4.12666 4.08556 4.30089 4.21822 4.32755 4.40736V5.6768C4.35135 5.6768 4.37547 5.67839 4.39927 5.68156H4.32755V7.461C4.31961 7.59334 4.20632 7.69394 4.07429 7.68601H4.07366C4.08223 7.69362 3.58048 7.68601 3.58048 7.68601L3.44561 8.49654H4.32882C4.49321 8.49654 4.65475 8.4994 4.81343 8.50067V9.62825H5.49131V8.51241C5.67728 8.51622 5.85754 8.51781 6.03336 8.51781V9.62856H6.71092V8.50289C7.85341 8.43751 8.65062 8.14999 8.74964 7.07858C8.82961 6.21568 8.42371 5.83072 7.77629 5.67522C8.20759 5.47084 8.44656 5.00114 8.35833 4.53209Z" fill="white"/>
</svg>
