<svg width="22" height="32" viewBox="0 0 22 32" fill="none" xmlns="http://www.w3.org/2000/svg">
<path d="M2.82026 18.8216C3.98979 17.4309 5.17214 16.0487 6.35022 14.6637C7.07589 13.8149 7.84215 13.0026 8.49301 12.0945C8.67085 11.8451 8.78104 11.535 9.03867 11.3513L9.03578 11.3556C9.22654 11.0963 9.3981 10.8148 9.61523 10.5762C10.4292 9.66575 11.2171 8.66052 12.0506 7.83131C12.0851 7.79866 12.0969 7.72606 12.1429 7.67636C12.3594 7.43419 13.1508 6.59843 13.6312 6.03448C14.7445 4.73614 15.8727 3.45708 17.1982 2.35021C17.4057 2.17637 20.0603 -0.47458 20.6734 0.0748302C21.3129 0.644969 19.1329 3.51736 18.8023 3.84108C17.999 4.63477 17.1023 5.35058 16.4756 6.28721C15.5587 7.65806 14.386 8.80526 13.3387 10.0611C12.3964 11.189 11.3915 12.2627 10.4571 13.3928C9.58019 14.4561 8.80727 15.6138 7.8898 16.6407C7.09743 17.5284 6.15196 18.2797 5.30617 19.1224C5.10712 19.3205 4.99815 19.6747 4.7847 19.8941C4.60861 20.0766 4.3246 20.3912 4.10365 20.5344C4.00823 20.5975 3.90425 20.6549 3.85658 20.753C3.6377 21.2102 0.862165 24.0402 0.130936 23.3623C-0.581788 22.7029 1.80465 20.0305 2.82026 18.8216Z" fill="#2C5DFE"/>
<path d="M7.12802 24.6108C7.95388 24.0201 8.78544 23.4398 9.61772 22.8632C10.1268 22.5069 10.6679 22.2018 11.1278 21.7632C11.2544 21.6427 11.3291 21.4443 11.5133 21.412L11.5098 21.4127C11.6434 21.2908 11.765 21.1444 11.9178 21.0456C12.4911 20.6805 13.0478 20.2307 13.6355 19.9394C13.6588 19.9271 13.667 19.8758 13.6994 19.8541C13.853 19.7589 14.4103 19.443 14.7489 19.2081C15.5334 18.6677 16.3292 18.148 17.2658 17.8611C17.4111 17.8173 19.2843 16.8874 19.7226 17.6094C20.1779 18.3625 18.6427 19.6895 18.408 19.8005C17.8427 20.0759 17.2093 20.246 16.7664 20.7157C16.1211 21.405 15.2972 21.8 14.5558 22.3358C13.8919 22.8182 13.1839 23.2249 12.525 23.714C11.9041 24.1726 11.3621 24.7536 10.7141 25.1677C10.157 25.5219 9.48827 25.6989 8.88994 25.9923C8.74969 26.0619 8.67516 26.2986 8.52225 26.3783C8.39612 26.4451 8.19679 26.5684 8.04218 26.5834C7.9737 26.5892 7.90024 26.5883 7.86802 26.6482C7.71595 26.9192 5.7577 27.9385 5.23609 27.0529C4.73011 26.191 6.41482 25.1219 7.12802 24.6108Z" fill="#2C5DFE"/>
<path d="M11.9998 29.877C12.6368 29.5844 13.2751 29.2983 13.9141 29.0156C14.3083 28.8424 14.7185 28.7141 15.0757 28.4626C15.1734 28.392 15.2383 28.2458 15.3749 28.2635L15.3715 28.2642C15.4761 28.1923 15.5734 28.1013 15.6873 28.0585C16.1257 27.8904 16.5568 27.6483 17.0011 27.5476C17.0185 27.5442 17.028 27.5012 17.0516 27.4931C17.169 27.4496 17.5931 27.3186 17.8552 27.2055C18.458 26.9402 19.0694 26.7005 19.7711 26.6828C19.8817 26.6783 21.3036 26.3517 21.5961 27.0547C21.8978 27.7867 20.7074 28.5234 20.5314 28.5613C20.1002 28.6561 19.6269 28.6461 19.2803 28.9332C18.7721 29.3513 18.147 29.4841 17.5773 29.7533C17.0674 29.997 16.5247 30.165 16.0161 30.4154C15.5402 30.6491 15.1131 31.0033 14.6178 31.1928C14.1891 31.3556 13.6903 31.3438 13.2356 31.4466C13.1288 31.4709 13.0628 31.6482 12.947 31.6812C12.8512 31.7068 12.7005 31.7638 12.584 31.7387C12.5351 31.7277 12.4814 31.7108 12.4533 31.7506C12.3284 31.9394 10.838 32.3205 10.4937 31.4633C10.1602 30.6245 11.4489 30.1322 11.9998 29.877Z" fill="#2C5DFE"/>
</svg>
