<svg width="38" height="26" viewBox="0 0 38 26" fill="none" xmlns="http://www.w3.org/2000/svg">
<path d="M6.82178 14.4813C7.04323 14.7811 7.26811 15.077 7.49692 15.3705C7.26713 15.0775 7.04225 14.7806 6.82178 14.4813Z" fill="url(#paint0_linear_89_3152)"/>
<path d="M7.84375 15.8091C8.01866 16.0271 8.19553 16.2431 8.37485 16.4572C8.19504 16.2431 8.01866 16.0271 7.84375 15.8091Z" fill="url(#paint1_linear_89_3152)"/>
<path d="M8.7356 16.883C8.6136 16.7419 8.49357 16.6003 8.37451 16.4572C8.49406 16.6003 8.61458 16.7419 8.7356 16.883Z" fill="url(#paint2_linear_89_3152)"/>
<path d="M14.0686 22.0651C14.0842 22.0778 14.0999 22.0906 14.1141 22.1028C14.0989 22.0916 14.0837 22.0783 14.0686 22.0651C13.4346 21.5526 12.803 21.0098 12.1935 20.4522C12.1279 20.3915 12.0617 20.3302 11.9961 20.269C12.0617 20.3297 12.1284 20.391 12.194 20.4517C12.8035 21.0093 13.4351 21.5521 14.0686 22.0651Z" fill="url(#paint3_linear_89_3152)"/>
<path d="M14.1714 17.2578C14.2797 17.3601 14.3874 17.4616 14.4938 17.56C14.3874 17.4621 14.2797 17.3606 14.1714 17.2578Z" fill="url(#paint4_linear_89_3152)"/>
<path d="M14.6 17.6576C14.8895 17.9251 15.1879 18.1916 15.4926 18.4552C15.1874 18.1921 14.8895 17.926 14.6 17.6576C14.5642 17.6262 14.5294 17.5934 14.4937 17.5601C14.5294 17.5934 14.5652 17.6257 14.6 17.6576Z" fill="url(#paint5_linear_89_3152)"/>
<path d="M18.8336 21.0274C18.2961 20.6595 17.7616 20.2758 17.2423 19.878C16.9605 19.6634 16.6876 19.4473 16.4265 19.2352C16.109 18.9785 15.7974 18.7178 15.4927 18.4547C15.7979 18.7178 16.11 18.9785 16.427 19.2347C16.6881 19.4468 16.961 19.6624 17.2428 19.8775C17.7621 20.2753 18.2961 20.6595 18.8336 21.0274Z" fill="url(#paint6_linear_89_3152)"/>
<path d="M34.4837 9.23592L34.0158 10.0752C32.9453 11.9963 31.7126 13.8433 30.3481 15.5679C29.7993 16.2637 29.2271 16.9422 28.648 17.585C27.1762 19.2224 25.5603 20.754 23.846 22.1356C23.163 22.6878 22.4458 23.2287 21.7153 23.7436C20.9216 24.3027 20.1063 24.8367 19.293 25.3276L19.0005 25.504L18.708 25.3276C18.0637 24.9386 17.4253 24.5285 16.8075 24.1057C16.688 24.0244 16.5684 23.9421 16.4498 23.8588C16.3945 23.8201 16.3386 23.7814 16.2838 23.7422C16.1789 23.6682 16.0741 23.5937 15.9692 23.5187C15.6199 23.2679 15.275 23.0112 14.9354 22.75C14.6709 22.5467 14.4102 22.3414 14.154 22.1347C14.1417 22.1249 14.128 22.1136 14.1133 22.1023C14.0991 22.0901 14.0834 22.0773 14.0677 22.0646C13.6586 21.7334 13.2505 21.3895 12.8483 21.0367C12.6278 20.8441 12.4093 20.6487 12.1932 20.4512C12.1276 20.3905 12.0609 20.3292 11.9953 20.2685C11.9948 20.2685 11.9948 20.2685 11.9948 20.2685C11.9355 20.2131 11.8767 20.1582 11.8184 20.1029C11.8179 20.1024 11.8179 20.1024 11.8174 20.1019C11.8135 20.0985 11.8091 20.094 11.8052 20.0901C11.8032 20.0882 11.8013 20.0867 11.7993 20.0847L11.3054 19.5791L10.5441 18.7996L10.5421 18.7977L10.1869 18.4336L9.28785 17.5125C9.1639 17.3739 9.04043 17.2347 8.91795 17.0941C8.85768 17.0241 8.79595 16.9535 8.7352 16.8825C8.61418 16.7414 8.49366 16.5998 8.37411 16.4567C8.37411 16.4567 8.37411 16.4567 8.37411 16.4562C8.28445 16.3489 8.19528 16.2416 8.1066 16.1338C8.01792 16.0256 7.93022 15.9173 7.84301 15.8085C7.72689 15.663 7.61127 15.517 7.49662 15.3705C7.26782 15.077 7.04293 14.7806 6.82148 14.4813V14.4808C6.32468 13.8076 5.84845 13.1192 5.39428 12.4166C5.2664 12.2197 5.14 12.0212 5.01604 11.8218C4.69611 11.3103 4.38842 10.792 4.0925 10.2673C4.05526 10.2026 4.01998 10.1394 3.98422 10.0752C3.53592 9.2712 3.10673 8.43535 2.71037 7.59314C2.03375 6.16104 1.43749 4.67945 0.938731 3.19149C0.665833 2.38308 0.412532 1.54724 0.190098 0.710418L0 0H0.734915C2.50312 0 4.0925 1.11463 4.69317 2.77259L4.70982 2.81963C5.23602 4.27427 5.86168 5.71274 6.56818 7.09487C6.918 7.7803 7.29869 8.47112 7.70338 9.15214C7.77344 9.27071 7.84448 9.38976 7.91552 9.50686C8.0919 9.79789 8.27367 10.087 8.45838 10.3731C8.62104 10.6249 8.78713 10.8753 8.95665 11.1232C9.25013 11.5548 9.55291 11.9801 9.8655 12.3995C10.1433 12.7733 10.4289 13.1432 10.7209 13.5068C10.8674 13.6885 11.0149 13.8693 11.1643 14.0486V14.0491C11.3353 14.2539 11.5078 14.4568 11.6827 14.6581L11.6832 14.6576L12.0835 15.076L12.568 15.5826L12.7194 15.7404L12.7331 15.7551L14.1706 17.2568L14.1701 17.2573C14.1711 17.2582 14.1716 17.2587 14.1726 17.2597C14.2015 17.2867 14.2304 17.3141 14.2588 17.3415C14.3377 17.415 14.4156 17.4885 14.493 17.5596C14.4935 17.5596 14.4935 17.5596 14.4935 17.5596C14.5293 17.5929 14.5641 17.6252 14.5993 17.6576C14.5998 17.658 14.6003 17.6585 14.6008 17.6585C14.6028 17.661 14.6047 17.6625 14.6067 17.6639C14.8218 17.8633 15.0417 18.0608 15.2652 18.2568C15.3401 18.3229 15.4161 18.389 15.4925 18.4547C15.5684 18.5203 15.6454 18.5865 15.7223 18.6517C15.7659 18.6889 15.8105 18.7266 15.8546 18.7634L15.9545 18.8476H15.955C16.1108 18.978 16.2676 19.1073 16.4263 19.2357C16.6875 19.4478 16.9604 19.6634 17.2421 19.8785C17.6242 20.171 18.0142 20.4561 18.4077 20.7324C18.489 20.7903 18.5708 20.8476 18.6526 20.9039C18.7129 20.9451 18.7727 20.9867 18.8329 21.0279C18.8883 21.0661 18.9451 21.1043 19 21.1415C19.5997 20.7364 20.1891 20.3116 20.756 19.878C22.4894 18.5546 24.1179 17.0696 25.5961 15.4626C26.1674 14.8448 26.7254 14.1976 27.2551 13.5381C27.7102 12.9717 28.1551 12.3853 28.575 11.7949C29.718 10.1923 31.5597 9.23592 33.5018 9.23592H34.4837Z" fill="url(#paint7_linear_89_3152)"/>
<path d="M11.1646 14.0496C9.96862 12.6161 8.87997 11.0928 7.91576 9.50737C7.84471 9.38978 7.77368 9.27122 7.70361 9.15265H7.7041C7.77417 9.27073 7.84521 9.38978 7.91625 9.50688C8.88046 11.0928 9.9696 12.6161 11.1646 14.0496Z" fill="url(#paint8_linear_89_3152)"/>
<path d="M11.6839 14.6587C11.508 14.4583 11.3355 14.2554 11.165 14.0501C11.336 14.2544 11.5095 14.4573 11.6839 14.6587Z" fill="url(#paint9_linear_89_3152)"/>
<path d="M12.7202 15.7414L12.5688 15.5836L12.0842 15.077L11.6839 14.6586L11.6834 14.6591C11.508 14.4582 11.3356 14.2554 11.1651 14.0501V14.0496C11.0156 13.8703 10.8682 13.69 10.7217 13.5078C10.4297 13.1437 10.144 12.7743 9.86624 12.4005C9.55415 11.9811 9.25136 11.5553 8.9574 11.1242L5.39502 12.4171C5.8492 13.1192 6.32542 13.8081 6.82222 14.4813V14.4818C7.04368 14.7816 7.26856 15.0775 7.49736 15.371C7.61201 15.518 7.72764 15.6635 7.84376 15.809C7.93096 15.9178 8.01915 16.0265 8.10734 16.1343C8.19553 16.2421 8.28471 16.3494 8.37485 16.4567C8.37485 16.4572 8.37485 16.4572 8.37485 16.4572C8.4944 16.5998 8.61493 16.7419 8.73594 16.883C8.7967 16.954 8.85843 17.0246 8.91869 17.0946C9.04167 17.2352 9.16464 17.3744 9.2886 17.513L10.1876 18.4341L10.5429 18.7982L10.22 19.2518L10.5448 18.8001L12.7339 15.7561L12.7202 15.7414Z" fill="url(#paint10_linear_89_3152)"/>
<path d="M18.4081 20.7324L15.9692 23.5197C15.6198 23.2689 15.2749 23.0121 14.9354 22.751C14.6708 22.5477 14.4102 22.3424 14.1539 22.1356C14.1417 22.1258 14.128 22.1146 14.1133 22.1033C14.0991 22.091 14.0834 22.0783 14.0677 22.0656C13.6586 21.7344 13.2505 21.3904 12.8482 21.0377C12.6278 20.8451 12.4092 20.6496 12.1932 20.4522C12.1275 20.3914 12.0609 20.3302 11.9952 20.2694C11.9947 20.2694 11.9947 20.2694 11.9947 20.2694C11.9355 20.2141 11.8767 20.1592 11.8184 20.1038C11.8179 20.1034 11.8179 20.1034 11.8174 20.1029L14.6008 17.6595C14.6027 17.662 14.6047 17.6634 14.6066 17.6649C14.8217 17.8643 15.0417 18.0618 15.2651 18.2577C15.3401 18.3239 15.416 18.39 15.4924 18.4557C15.5684 18.5213 15.6453 18.5875 15.7222 18.6526C15.7658 18.6899 15.8104 18.7276 15.8545 18.7643L15.9545 18.8486H15.955C16.1108 18.9789 16.2675 19.1083 16.4263 19.2366C16.6874 19.4488 16.9603 19.6644 17.242 19.8794C17.6247 20.171 18.0147 20.4561 18.4081 20.7324Z" fill="url(#paint11_linear_89_3152)"/>
<path d="M37.9998 0L37.8102 0.710418C37.5887 1.54185 37.3369 2.37574 37.0625 3.19247C36.8852 3.72014 36.6941 4.24977 36.4976 4.76421C35.7764 6.65049 33.9411 7.91748 31.9333 7.91748H31.0098L31.4311 7.09536C32.0151 5.95379 32.5433 4.77401 33.0063 3.57659H25.6439L25.3049 3.98079L21.6891 8.29327C21.8336 8.43927 21.9767 8.58233 22.1193 8.72001C22.3564 8.95126 22.5925 9.17517 22.8194 9.38634C23.1731 9.71362 23.5352 10.0394 23.8992 10.352C24.0006 10.4387 24.1026 10.5259 24.2054 10.6117C24.8218 11.131 25.1878 11.8605 25.2348 12.667C25.2823 13.4666 24.9947 14.2603 24.4465 14.8433L24.1011 15.2118L23.6969 14.9104C22.9585 14.3583 22.2266 13.7718 21.522 13.1658C20.9027 12.6361 20.2854 12.0737 19.6857 11.4931C19.5853 11.3951 19.4804 11.2932 19.3707 11.1849C19.3516 11.1658 19.3325 11.1467 19.3119 11.1276L17.3457 13.4323H19.4456L14.6065 17.6654L11.8182 20.1043L5.9722 25.2179L10.2195 19.2528L10.5424 18.7991L12.7192 15.7419L13.2047 15.0599L14.3321 13.4764H13.0431L16.8651 8.47798C16.6539 8.22713 16.4403 7.96942 16.2297 7.70681C15.1724 6.39425 14.1881 5.00526 13.3022 3.57708H9.19652C7.41949 3.57708 5.87323 2.43747 5.34703 0.740304L5.09863 0.00196169L5.88303 0.000490422H15.4737L15.6363 0.288087C16.0934 1.10139 16.5917 1.91225 17.1179 2.69812C17.7828 3.69369 18.5045 4.67112 19.2712 5.60789L22.3588 1.92695L23.9737 0.000490422H37.9998V0Z" fill="url(#paint12_linear_89_3152)"/>
<defs>
<linearGradient id="paint0_linear_89_3152" x1="7.1593" y1="15.277" x2="7.1593" y2="14.4793" gradientUnits="userSpaceOnUse">
<stop stop-color="#2C5DFE"/>
<stop offset="1" stop-color="#2DADFC"/>
</linearGradient>
<linearGradient id="paint1_linear_89_3152" x1="8.10926" y1="16.3886" x2="8.10926" y2="15.8074" gradientUnits="userSpaceOnUse">
<stop stop-color="#2C5DFE"/>
<stop offset="1" stop-color="#2DADFC"/>
</linearGradient>
<linearGradient id="paint2_linear_89_3152" x1="8.555" y1="16.8381" x2="8.555" y2="16.4564" gradientUnits="userSpaceOnUse">
<stop stop-color="#2C5DFE"/>
<stop offset="1" stop-color="#2DADFC"/>
</linearGradient>
<linearGradient id="paint3_linear_89_3152" x1="13.0548" y1="21.9093" x2="13.0548" y2="20.2645" gradientUnits="userSpaceOnUse">
<stop stop-color="#2C5DFE"/>
<stop offset="1" stop-color="#2DADFC"/>
</linearGradient>
<linearGradient id="paint4_linear_89_3152" x1="14.1405" y1="17.2579" x2="14.3744" y2="17.4418" gradientUnits="userSpaceOnUse">
<stop stop-color="#072FA0"/>
<stop offset="1" stop-color="#072FA0" stop-opacity="0"/>
</linearGradient>
<linearGradient id="paint5_linear_89_3152" x1="14.4092" y1="17.5485" x2="15.1198" y2="18.1073" gradientUnits="userSpaceOnUse">
<stop stop-color="#072FA0"/>
<stop offset="1" stop-color="#072FA0" stop-opacity="0"/>
</linearGradient>
<linearGradient id="paint6_linear_89_3152" x1="15.3107" y1="18.3106" x2="17.5493" y2="20.0709" gradientUnits="userSpaceOnUse">
<stop stop-color="#072FA0"/>
<stop offset="1" stop-color="#072FA0" stop-opacity="0"/>
</linearGradient>
<linearGradient id="paint7_linear_89_3152" x1="17.242" y1="10.9569" x2="17.242" y2="28.0509" gradientUnits="userSpaceOnUse">
<stop stop-color="#2C5DFE"/>
<stop offset="1" stop-color="#2DADFC"/>
</linearGradient>
<linearGradient id="paint8_linear_89_3152" x1="11.8849" y1="15.6811" x2="9.08076" y2="11.0142" gradientUnits="userSpaceOnUse">
<stop stop-color="#072FA0"/>
<stop offset="1" stop-color="#072FA0" stop-opacity="0"/>
</linearGradient>
<linearGradient id="paint9_linear_89_3152" x1="11.748" y1="14.8926" x2="11.378" y2="14.2768" gradientUnits="userSpaceOnUse">
<stop stop-color="#072FA0"/>
<stop offset="1" stop-color="#072FA0" stop-opacity="0"/>
</linearGradient>
<linearGradient id="paint10_linear_89_3152" x1="12.664" y1="18.2631" x2="7.84876" y2="13.448" gradientUnits="userSpaceOnUse">
<stop stop-color="#072FA0"/>
<stop offset="1" stop-color="#072FA0" stop-opacity="0"/>
</linearGradient>
<linearGradient id="paint11_linear_89_3152" x1="11.4146" y1="16.7188" x2="15.9257" y2="21.2299" gradientUnits="userSpaceOnUse">
<stop stop-color="#072FA0"/>
<stop offset="1" stop-color="#072FA0" stop-opacity="0"/>
</linearGradient>
<linearGradient id="paint12_linear_89_3152" x1="21.5498" y1="-1.56207" x2="21.5498" y2="15.0969" gradientUnits="userSpaceOnUse">
<stop stop-color="#2C5DFE"/>
<stop offset="1" stop-color="#2DADFC"/>
</linearGradient>
</defs>
</svg>
