<svg width="160" height="108" viewBox="0 0 160 108" fill="none" xmlns="http://www.w3.org/2000/svg">
<path d="M28.7197 60.9725C29.6521 62.235 30.599 63.481 31.5624 64.7166C30.5949 63.483 29.648 62.233 28.7197 60.9725Z" fill="url(#paint0_linear_131_8747)"/>
<path d="M33.0269 66.5628C33.7633 67.4808 34.508 68.3905 35.263 69.292C34.5059 68.3905 33.7633 67.4808 33.0269 66.5628Z" fill="url(#paint1_linear_131_8747)"/>
<path d="M36.7816 71.0849C36.2679 70.4908 35.7625 69.8946 35.2612 69.2922C35.7646 69.8946 36.272 70.4908 36.7816 71.0849Z" fill="url(#paint2_linear_131_8747)"/>
<path d="M59.2392 92.9039C59.3052 92.9576 59.3712 93.0112 59.431 93.0628C59.3671 93.0153 59.3031 92.9596 59.2392 92.9039C56.5698 90.7462 53.9107 88.4605 51.3445 86.1129C51.0681 85.8571 50.7896 85.5993 50.5132 85.3414C50.7896 85.5972 51.0702 85.8551 51.3466 86.1109C53.9128 88.4584 56.5719 90.7441 59.2392 92.9039Z" fill="url(#paint3_linear_131_8747)"/>
<path d="M59.6694 72.6628C60.1253 73.094 60.5792 73.521 61.0268 73.9356C60.5792 73.5231 60.1253 73.096 59.6694 72.6628Z" fill="url(#paint4_linear_131_8747)"/>
<path d="M61.474 74.346C62.6932 75.4723 63.9495 76.5945 65.2326 77.7044C63.9474 76.5966 62.6932 75.4765 61.474 74.346C61.3234 74.214 61.177 74.0758 61.0264 73.9355C61.177 74.0758 61.3276 74.2119 61.474 74.346Z" fill="url(#paint5_linear_131_8747)"/>
<path d="M79.2997 88.5348C77.0367 86.9855 74.7861 85.3703 72.5995 83.6952C71.4133 82.7917 70.2643 81.882 69.1648 80.9887C67.828 79.9078 66.516 78.8103 65.2329 77.7026C66.5181 78.8103 67.8321 79.9078 69.1668 80.9867C70.2663 81.8799 71.4154 82.7876 72.6015 83.6932C74.7882 85.3682 77.0367 86.9855 79.2997 88.5348Z" fill="url(#paint6_linear_131_8747)"/>
<path d="M145.192 38.8874L143.222 42.4211C138.714 50.5096 133.524 58.2867 127.779 65.548C125.469 68.4773 123.059 71.3344 120.621 74.0409C114.424 80.935 107.62 87.3836 100.402 93.2009C97.5268 95.5258 94.5067 97.8032 91.431 99.9713C88.0891 102.325 84.6565 104.574 81.2321 106.641L80.0006 107.383L78.769 106.641C76.0563 105.003 73.3684 103.276 70.7671 101.496C70.2638 101.153 69.7604 100.807 69.2612 100.456C69.0281 100.293 68.7929 100.13 68.5619 99.9651C68.1204 99.6536 67.679 99.3401 67.2375 99.0244C65.7667 97.9682 64.3144 96.8873 62.8848 95.7878C61.7709 94.9317 60.6734 94.0673 59.5945 93.1968C59.543 93.1555 59.4852 93.1081 59.4233 93.0606C59.3635 93.0091 59.2975 92.9554 59.2315 92.9018C57.509 91.5073 55.7906 90.0592 54.097 88.5739C53.1687 87.7632 52.2486 86.9401 51.3389 86.1087C51.0625 85.853 50.7819 85.5951 50.5055 85.3393C50.5034 85.3393 50.5034 85.3393 50.5034 85.3393C50.2538 85.1062 50.0063 84.8752 49.7608 84.642C49.7587 84.64 49.7587 84.64 49.7567 84.6379C49.7402 84.6235 49.7216 84.6049 49.7051 84.5884C49.6968 84.5802 49.6886 84.574 49.6803 84.5657L47.601 82.4368L44.3952 79.1548L44.387 79.1465L42.8914 77.6138L39.106 73.7356C38.5841 73.1518 38.0643 72.5659 37.5485 71.9739C37.2948 71.6789 37.0349 71.3819 36.7791 71.0827C36.2696 70.4886 35.7621 69.8924 35.2588 69.2901C35.2588 69.2901 35.2588 69.2901 35.2588 69.288C34.8812 68.8363 34.5058 68.3845 34.1324 67.9306C33.759 67.4748 33.3898 67.0189 33.0226 66.5609C32.5337 65.9482 32.0468 65.3335 31.5641 64.7167C30.6008 63.481 29.6539 62.233 28.7215 60.9726V60.9705C26.6297 58.1361 24.6246 55.2378 22.7123 52.2796C22.1739 51.4503 21.6417 50.6148 21.1198 49.7752C19.7727 47.6216 18.4772 45.4391 17.2312 43.2297C17.0745 42.9574 16.9259 42.6913 16.7753 42.4211C14.8878 39.0359 13.0807 35.5166 11.4119 31.9705C8.56302 25.9407 6.05249 19.7026 3.95248 13.4376C2.80345 10.0339 1.73695 6.51458 0.800398 2.99118L0 0H3.09432C10.5393 0 17.2312 4.69307 19.7603 11.6739L19.8305 11.8719C22.046 17.9966 24.6803 24.0532 27.655 29.8726C29.1279 32.7585 30.7307 35.6672 32.4347 38.5346C32.7297 39.0338 33.0288 39.5351 33.3279 40.0281C34.0705 41.2535 34.8359 42.4706 35.6136 43.6753C36.2984 44.7356 36.9978 45.7898 37.7115 46.8336C38.9472 48.651 40.222 50.4416 41.5382 52.2074C42.7078 53.7814 43.9105 55.3388 45.1399 56.8695C45.7567 57.6348 46.3777 58.396 47.0069 59.151V59.1531C47.7268 60.0154 48.4529 60.8694 49.1894 61.7173L49.1914 61.7152L50.8768 63.4769L52.917 65.6099L53.5544 66.2742L53.6122 66.3361L59.6647 72.6588L59.6626 72.6608C59.6667 72.6649 59.6688 72.667 59.6729 72.6711C59.7946 72.7846 59.9164 72.9001 60.036 73.0157C60.3681 73.3251 60.6961 73.6345 61.0221 73.9336C61.0241 73.9336 61.0241 73.9336 61.0241 73.9336C61.1747 74.0739 61.3212 74.2101 61.4697 74.3462C61.4718 74.3483 61.4738 74.3503 61.4759 74.3503C61.4841 74.3606 61.4924 74.3668 61.5006 74.373C62.4062 75.2126 63.3325 76.044 64.2731 76.8691C64.5888 77.1476 64.9085 77.4261 65.2303 77.7025C65.5501 77.9789 65.8739 78.2574 66.1978 78.5318C66.3814 78.6886 66.5691 78.8474 66.7548 79.0021L67.1756 79.3569H67.1777C67.8337 79.9057 68.4938 80.4503 69.1622 80.9907C70.2617 81.884 71.4107 82.7916 72.5969 83.6972C74.2059 84.9288 75.848 86.1294 77.5045 87.2928C77.8469 87.5363 78.1914 87.7776 78.5359 88.0148C78.7896 88.1881 79.0413 88.3635 79.295 88.5368C79.5282 88.6977 79.7674 88.8586 79.9985 89.0153C82.5235 87.3093 85.0051 85.5208 87.3918 83.6952C94.6903 78.1233 101.547 71.8707 107.771 65.1045C110.176 62.5032 112.526 59.7782 114.756 57.0015C116.672 54.6168 118.545 52.1475 120.313 49.6618C125.126 42.9141 132.88 38.8874 141.058 38.8874H145.192Z" fill="url(#paint7_linear_131_8747)"/>
<path d="M47.0082 59.1552C41.9727 53.1192 37.389 46.7057 33.3293 40.0302C33.0301 39.5351 32.731 39.0359 32.436 38.5367H32.4381C32.7331 39.0338 33.0322 39.5351 33.3313 40.0281C37.3911 46.7057 41.9768 53.1192 47.0082 59.1552Z" fill="url(#paint8_linear_131_8747)"/>
<path d="M49.1909 61.7195C48.4504 60.8758 47.7242 60.0218 47.0063 59.1574C47.7263 60.0176 48.4566 60.8717 49.1909 61.7195Z" fill="url(#paint9_linear_131_8747)"/>
<path d="M53.5579 66.2783L52.9205 65.614L50.8803 63.481L49.1949 61.7193L49.1929 61.7214C48.4544 60.8756 47.7282 60.0216 47.0104 59.1572V59.1552C46.3812 58.4001 45.7602 57.641 45.1434 56.8736C43.914 55.3409 42.7113 53.7855 41.5417 52.2115C40.2276 50.4457 38.9527 48.653 37.715 46.8377L22.7158 52.2817C24.6281 55.2378 26.6332 58.1382 28.725 60.9726V60.9746C29.6574 62.2371 30.6043 63.4831 31.5676 64.7187C32.0503 65.3376 32.5372 65.9503 33.0261 66.563C33.3933 67.0209 33.7646 67.4789 34.1359 67.9327C34.5072 68.3866 34.8827 68.8383 35.2623 69.2901C35.2623 69.2922 35.2623 69.2922 35.2623 69.2922C35.7656 69.8925 36.2731 70.4907 36.7826 71.0848C37.0384 71.3839 37.2983 71.681 37.5521 71.976C38.0698 72.568 38.5876 73.1539 39.1095 73.7377L42.8949 77.6159L44.3905 79.1486L43.0311 81.0588L44.3988 79.1568L53.6157 66.3402L53.5579 66.2783Z" fill="url(#paint10_linear_131_8747)"/>
<path d="M77.5087 87.2927L67.2396 99.0284C65.7688 97.9722 64.3165 96.8913 62.887 95.7917C61.773 94.9356 60.6756 94.0713 59.5967 93.2008C59.5451 93.1595 59.4873 93.1121 59.4255 93.0646C59.3656 93.0131 59.2996 92.9594 59.2336 92.9058C57.5111 91.5113 55.7927 90.0631 54.0991 88.5779C53.1708 87.7671 52.2508 86.9441 51.341 86.1127C51.0646 85.8569 50.784 85.5991 50.5076 85.3433C50.5056 85.3433 50.5056 85.3433 50.5056 85.3433C50.2559 85.1102 50.0084 84.8791 49.7629 84.646C49.7609 84.644 49.7609 84.644 49.7588 84.6419L61.478 74.3543C61.4863 74.3646 61.4945 74.3708 61.5028 74.377C62.4084 75.2166 63.3346 76.0479 64.2753 76.8731C64.5909 77.1516 64.9106 77.4301 65.2325 77.7065C65.5522 77.9829 65.8761 78.2614 66.1999 78.5358C66.3835 78.6926 66.5713 78.8514 66.7569 79.0061L67.1777 79.3609H67.1798C67.8358 79.9096 68.4959 80.4542 69.1643 80.9947C70.2638 81.8879 71.4128 82.7956 72.599 83.7012C74.2101 84.9286 75.8522 86.1292 77.5087 87.2927Z" fill="url(#paint11_linear_131_8747)"/>
<path d="M160 0L159.201 2.99118C158.269 6.49188 157.209 10.0029 156.053 13.4417C155.307 15.6635 154.502 17.8934 153.675 20.0594C150.638 28.0015 142.911 33.3361 134.457 33.3361H130.569L132.343 29.8746C134.802 25.0681 137.025 20.1007 138.975 15.059H107.976L106.548 16.7609L91.3244 34.9184C91.933 35.5331 92.5353 36.1355 93.1356 36.7151C94.1341 37.6888 95.1284 38.6316 96.0835 39.5207C97.5729 40.8987 99.0974 42.2705 100.63 43.5866C101.057 43.9517 101.486 44.3189 101.919 44.6799C104.514 46.8666 106.055 49.9382 106.254 53.3337C106.454 56.7003 105.243 60.0422 102.934 62.497L101.48 64.0483L99.7781 62.7796C96.6694 60.4548 93.5874 57.9855 90.621 55.4337C88.0135 53.2037 85.4143 50.8356 82.8893 48.3911C82.4664 47.9785 82.025 47.5494 81.5629 47.0935C81.4824 47.013 81.402 46.9326 81.3153 46.8521L73.037 56.5559H81.8785L61.5034 74.3792L49.7636 84.6482L25.1493 106.179L43.0324 81.063L44.3919 79.1527L53.5572 66.2803L55.6015 63.4088L60.3482 56.7416H54.9208L71.0133 35.6961C70.1242 34.6399 69.2248 33.5548 68.3378 32.4491C63.8861 26.9227 59.7417 21.0744 56.0121 15.0611H38.7251C31.2431 15.0611 24.7326 10.2628 22.5171 3.11701L21.4712 0.00825958L24.7739 0.00206489H65.1547L65.8396 1.21297C67.7643 4.63736 69.8622 8.05143 72.0778 11.3603C74.8771 15.5521 77.9157 19.6675 81.1441 23.6117L94.1444 8.11332L100.944 0.00206489H160V0Z" fill="url(#paint12_linear_131_8747)"/>
<defs>
<linearGradient id="paint0_linear_131_8747" x1="30.1408" y1="64.3228" x2="30.1408" y2="60.9642" gradientUnits="userSpaceOnUse">
<stop stop-color="#2C5DFE"/>
<stop offset="1" stop-color="#2DADFC"/>
</linearGradient>
<linearGradient id="paint1_linear_131_8747" x1="34.1448" y1="69.0028" x2="34.1448" y2="66.5561" gradientUnits="userSpaceOnUse">
<stop stop-color="#2C5DFE"/>
<stop offset="1" stop-color="#2DADFC"/>
</linearGradient>
<linearGradient id="paint2_linear_131_8747" x1="36.0212" y1="70.8958" x2="36.0212" y2="69.2887" gradientUnits="userSpaceOnUse">
<stop stop-color="#2C5DFE"/>
<stop offset="1" stop-color="#2DADFC"/>
</linearGradient>
<linearGradient id="paint3_linear_131_8747" x1="54.9708" y1="92.2478" x2="54.9708" y2="85.3224" gradientUnits="userSpaceOnUse">
<stop stop-color="#2C5DFE"/>
<stop offset="1" stop-color="#2DADFC"/>
</linearGradient>
<linearGradient id="paint4_linear_131_8747" x1="59.5394" y1="72.6637" x2="60.5241" y2="73.4379" gradientUnits="userSpaceOnUse">
<stop stop-color="#072FA0"/>
<stop offset="1" stop-color="#072FA0" stop-opacity="0"/>
</linearGradient>
<linearGradient id="paint5_linear_131_8747" x1="60.6709" y1="73.8869" x2="63.6627" y2="76.2394" gradientUnits="userSpaceOnUse">
<stop stop-color="#072FA0"/>
<stop offset="1" stop-color="#072FA0" stop-opacity="0"/>
</linearGradient>
<linearGradient id="paint6_linear_131_8747" x1="64.4666" y1="77.0958" x2="73.892" y2="84.5073" gradientUnits="userSpaceOnUse">
<stop stop-color="#072FA0"/>
<stop offset="1" stop-color="#072FA0" stop-opacity="0"/>
</linearGradient>
<linearGradient id="paint7_linear_131_8747" x1="72.5964" y1="46.1335" x2="72.5964" y2="118.107" gradientUnits="userSpaceOnUse">
<stop stop-color="#2C5DFE"/>
<stop offset="1" stop-color="#2DADFC"/>
</linearGradient>
<linearGradient id="paint8_linear_131_8747" x1="50.0409" y1="66.0245" x2="38.2345" y2="46.3746" gradientUnits="userSpaceOnUse">
<stop stop-color="#072FA0"/>
<stop offset="1" stop-color="#072FA0" stop-opacity="0"/>
</linearGradient>
<linearGradient id="paint9_linear_131_8747" x1="49.4608" y1="62.7044" x2="47.9032" y2="60.1119" gradientUnits="userSpaceOnUse">
<stop stop-color="#072FA0"/>
<stop offset="1" stop-color="#072FA0" stop-opacity="0"/>
</linearGradient>
<linearGradient id="paint10_linear_131_8747" x1="53.3213" y1="76.896" x2="33.0472" y2="56.6218" gradientUnits="userSpaceOnUse">
<stop stop-color="#072FA0"/>
<stop offset="1" stop-color="#072FA0" stop-opacity="0"/>
</linearGradient>
<linearGradient id="paint11_linear_131_8747" x1="48.0631" y1="70.3935" x2="67.0568" y2="89.3873" gradientUnits="userSpaceOnUse">
<stop stop-color="#072FA0"/>
<stop offset="1" stop-color="#072FA0" stop-opacity="0"/>
</linearGradient>
<linearGradient id="paint12_linear_131_8747" x1="90.7378" y1="-6.577" x2="90.7378" y2="63.5648" gradientUnits="userSpaceOnUse">
<stop stop-color="#2C5DFE"/>
<stop offset="1" stop-color="#2DADFC"/>
</linearGradient>
</defs>
</svg>
