<svg width="20" height="6" viewBox="0 0 20 6" fill="none" xmlns="http://www.w3.org/2000/svg">
<path d="M3.38541 0.25871C3.13473 0.086376 2.80761 0 2.40405 0H0.841698C0.717984 0 0.649635 0.0618719 0.636652 0.185496L0.00199218 4.16942C-0.00460393 4.20855 0.00518575 4.24433 0.0312717 4.27687C0.0572085 4.30946 0.0898309 4.32567 0.1289 4.32567H0.871008C1.00117 4.32567 1.07271 4.26394 1.08584 4.14017L1.26158 3.06611C1.268 3.01406 1.29089 2.97174 1.32996 2.93914C1.369 2.90661 1.41783 2.88533 1.47642 2.8756C1.53501 2.86593 1.59025 2.86103 1.64242 2.86103C1.69445 2.86103 1.75626 2.86435 1.82798 2.87082C1.89952 2.8773 1.94513 2.88049 1.96468 2.88049C2.52448 2.88049 2.96389 2.72275 3.28292 2.40692C3.6018 2.09126 3.76142 1.65353 3.76142 1.09355C3.76142 0.709483 3.63597 0.431223 3.38541 0.25862V0.25871ZM2.57988 1.45496C2.54723 1.68284 2.4627 1.83249 2.326 1.90412C2.18928 1.97584 1.99399 2.01154 1.74014 2.01154L1.41789 2.02127L1.58393 0.976431C1.59688 0.904889 1.63917 0.869073 1.71083 0.869073H1.89642C2.15668 0.869073 2.34558 0.90659 2.46276 0.981326C2.57988 1.05624 2.61895 1.21416 2.57988 1.45496Z" fill="#003087"/>
<path d="M19.8729 0H19.1504C19.0786 0 19.0363 0.0358163 19.0234 0.107478L18.3887 4.1696L18.3789 4.18912C18.3789 4.22183 18.3919 4.2526 18.418 4.28191C18.4439 4.31116 18.4766 4.32581 18.5156 4.32581H19.1602C19.2837 4.32581 19.3521 4.26409 19.3653 4.14032L19.9999 0.146547V0.136847C19.9999 0.0456655 19.9575 0.000119776 19.8729 0.000119776V0Z" fill="#009CDE"/>
<path d="M11.1432 1.57224C11.1432 1.53977 11.1301 1.50879 11.1042 1.47957C11.0781 1.45029 11.0488 1.43555 11.0163 1.43555H10.2644C10.1927 1.43555 10.1341 1.46826 10.0886 1.53317L9.05358 3.05651L8.62393 1.59182C8.59122 1.48775 8.51971 1.43555 8.40913 1.43555H7.67665C7.64403 1.43555 7.61475 1.45023 7.58887 1.47957C7.56276 1.50879 7.5498 1.53983 7.5498 1.57224C7.5498 1.58535 7.61329 1.77732 7.7402 2.14837C7.86711 2.51954 8.00381 2.91991 8.15029 3.34958C8.29678 3.77916 8.37322 4.00713 8.37976 4.03295C7.84592 4.76216 7.57911 5.15273 7.57911 5.20472C7.57911 5.28943 7.62135 5.33169 7.70605 5.33169H8.45792C8.5295 5.33169 8.58806 5.29922 8.63372 5.23409L11.1238 1.64056C11.1367 1.62767 11.1432 1.60499 11.1432 1.57221V1.57224Z" fill="#003087"/>
<path d="M18.1451 1.43554H17.403C17.3117 1.43554 17.2566 1.54298 17.2371 1.75785C17.0676 1.49753 16.7586 1.36719 16.3093 1.36719C15.8407 1.36719 15.4419 1.54298 15.1132 1.89452C14.7844 2.24605 14.6201 2.65955 14.6201 3.13471C14.6201 3.51887 14.7324 3.8248 14.9569 4.05256C15.1815 4.28056 15.4826 4.39433 15.8603 4.39433C16.049 4.39433 16.241 4.3552 16.4363 4.27715C16.6316 4.19904 16.7845 4.09494 16.8953 3.96469C16.8953 3.97122 16.8887 4.00042 16.8758 4.05247C16.8626 4.10464 16.8562 4.14383 16.8562 4.16965C16.8562 4.27393 16.8984 4.32586 16.9832 4.32586H17.657C17.7805 4.32586 17.8522 4.26414 17.8717 4.14037L18.2721 1.59175C18.2785 1.55266 18.2688 1.51693 18.2428 1.48434C18.2166 1.45186 18.1842 1.43554 18.1451 1.43554ZM16.8709 3.35928C16.7049 3.52203 16.5046 3.60336 16.2703 3.60336C16.0815 3.60336 15.9286 3.55137 15.8114 3.44715C15.6941 3.34322 15.6355 3.19998 15.6355 3.0175C15.6355 2.77682 15.7169 2.5732 15.8798 2.40723C16.0423 2.24122 16.2443 2.15825 16.4851 2.15825C16.6672 2.15825 16.8186 2.21194 16.9392 2.3193C17.0595 2.42675 17.1199 2.57485 17.1199 2.76369C17.1198 2.99801 17.0368 3.19661 16.8709 3.35928Z" fill="#009CDE"/>
<path d="M7.05245 1.43554H6.31032C6.21905 1.43554 6.16383 1.54298 6.14428 1.75785C5.96852 1.49753 5.65928 1.36719 5.21662 1.36719C4.74792 1.36719 4.34914 1.54298 4.02044 1.89452C3.69165 2.24605 3.52734 2.65955 3.52734 3.13471C3.52734 3.51887 3.63966 3.8248 3.86425 4.05256C4.08885 4.28056 4.38985 4.39433 4.76746 4.39433C4.94965 4.39433 5.13855 4.3552 5.3338 4.27715C5.52909 4.19904 5.68533 4.09494 5.80251 3.96469C5.7764 4.04274 5.76344 4.11112 5.76344 4.16965C5.76344 4.27393 5.80573 4.32586 5.89038 4.32586H6.56413C6.68773 4.32586 6.75942 4.26414 6.77897 4.14037L7.1793 1.59175C7.18572 1.55266 7.17599 1.51693 7.15002 1.48434C7.12396 1.45186 7.09146 1.43554 7.05245 1.43554ZM5.77816 3.36411C5.61212 3.52379 5.4086 3.60336 5.16789 3.60336C4.97899 3.60336 4.82764 3.55137 4.7138 3.44715C4.59982 3.34322 4.5429 3.19998 4.5429 3.0175C4.5429 2.77682 4.62423 2.5732 4.78704 2.40723C4.94968 2.24122 5.1515 2.15821 5.39245 2.15821C5.57463 2.15821 5.72598 2.21194 5.84653 2.3193C5.96688 2.42675 6.02716 2.57485 6.02716 2.76369C6.02714 3.00455 5.94416 3.20479 5.77816 3.36411Z" fill="#003087"/>
<path d="M14.4782 0.25871C14.2276 0.086376 13.9006 0 13.4969 0H11.9443C11.8141 0 11.7424 0.0618719 11.7295 0.185496L11.0948 4.16942C11.0882 4.20855 11.098 4.24433 11.1241 4.27687C11.1499 4.30946 11.1826 4.32567 11.2217 4.32567H12.0223C12.1004 4.32567 12.1525 4.2834 12.1786 4.19876L12.3544 3.06611C12.3609 3.01406 12.3836 2.97174 12.4228 2.93914C12.4618 2.90661 12.5106 2.88533 12.5692 2.8756C12.6278 2.86593 12.683 2.86103 12.7352 2.86103C12.7873 2.86103 12.8491 2.86435 12.9207 2.87082C12.9923 2.8773 13.038 2.88049 13.0574 2.88049C13.6173 2.88049 14.0567 2.72275 14.3757 2.40692C14.6947 2.09126 14.8542 1.65353 14.8542 1.09355C14.8542 0.709483 14.7288 0.431193 14.4782 0.25862V0.25871ZM13.4774 1.86502C13.3342 1.96265 13.1193 2.01145 12.8329 2.01145L12.5204 2.02124L12.6864 0.976371C12.6993 0.904859 12.7416 0.868983 12.8133 0.868983H12.989C13.1323 0.868983 13.2462 0.87552 13.3309 0.888503C13.4154 0.901576 13.4969 0.942197 13.575 1.01052C13.6532 1.07889 13.6922 1.17822 13.6922 1.30835C13.6922 1.58187 13.6205 1.76731 13.4774 1.86502Z" fill="#009CDE"/>
</svg>
