<svg width="51" height="34" viewBox="0 0 51 34" fill="none" xmlns="http://www.w3.org/2000/svg">
<path d="M9.09344 19.3053C9.38867 19.705 9.68847 20.0995 9.99349 20.4908C9.68716 20.1002 9.38736 19.7044 9.09344 19.3053Z" fill="url(#paint0_linear_111_4478)"/>
<path d="M10.4568 21.0753C10.69 21.366 10.9258 21.654 11.1649 21.9395C10.9252 21.654 10.69 21.366 10.4568 21.0753Z" fill="url(#paint1_linear_111_4478)"/>
<path d="M11.6457 22.5071C11.483 22.319 11.323 22.1302 11.1643 21.9395C11.3237 22.1302 11.4844 22.319 11.6457 22.5071Z" fill="url(#paint2_linear_111_4478)"/>
<path d="M18.7563 29.4155C18.7772 29.4325 18.7981 29.4495 18.8171 29.4658C18.7968 29.4508 18.7766 29.4332 18.7563 29.4155C17.9111 28.7323 17.0692 28.0086 16.2567 27.2654C16.1692 27.1844 16.081 27.1027 15.9935 27.0211C16.081 27.1021 16.1698 27.1837 16.2573 27.2647C17.0699 28.008 17.9118 28.7317 18.7563 29.4155Z" fill="url(#paint3_linear_111_4478)"/>
<path d="M18.8925 23.0067C19.0369 23.1432 19.1806 23.2784 19.3223 23.4097C19.1806 23.2791 19.0369 23.1439 18.8925 23.0067Z" fill="url(#paint4_linear_111_4478)"/>
<path d="M19.464 23.5397C19.85 23.8963 20.2478 24.2516 20.6541 24.603C20.2471 24.2523 19.85 23.8976 19.464 23.5397C19.4163 23.4979 19.3699 23.4541 19.3223 23.4097C19.3699 23.4541 19.4176 23.4972 19.464 23.5397Z" fill="url(#paint5_linear_111_4478)"/>
<path d="M25.1082 28.0321C24.3917 27.5416 23.6791 27.0302 22.9868 26.4998C22.6112 26.2137 22.2474 25.9257 21.8993 25.6429C21.476 25.3006 21.0606 24.9531 20.6544 24.6024C21.0613 24.9531 21.4773 25.3006 21.8999 25.6422C22.2481 25.925 22.6119 26.2124 22.9874 26.4992C23.6798 27.0295 24.3917 27.5416 25.1082 28.0321Z" fill="url(#paint6_linear_111_4478)"/>
<path d="M45.971 12.3126L45.3473 13.4315C43.9201 15.9925 42.2768 18.4549 40.4577 20.754C39.7262 21.6815 38.9633 22.5861 38.1913 23.4431C36.2292 25.6259 34.0751 27.6677 31.7897 29.5096C30.8792 30.2457 29.923 30.9667 28.9491 31.6532C27.891 32.3985 26.8042 33.1104 25.7199 33.7649L25.33 34L24.9401 33.7649C24.0812 33.2463 23.2301 32.6996 22.4065 32.1359C22.2471 32.0275 22.0878 31.9177 21.9297 31.8067C21.8559 31.7551 21.7814 31.7035 21.7083 31.6513C21.5685 31.5526 21.4287 31.4533 21.2889 31.3534C20.8232 31.019 20.3634 30.6767 19.9108 30.3286C19.5581 30.0576 19.2106 29.7839 18.869 29.5082C18.8527 29.4952 18.8344 29.4802 18.8148 29.4651C18.7958 29.4488 18.7749 29.4318 18.754 29.4148C18.2087 28.9733 17.6646 28.5148 17.1283 28.0445C16.8344 27.7878 16.5431 27.5272 16.2551 27.264C16.1676 27.183 16.0787 27.1014 15.9912 27.0204C15.9905 27.0204 15.9905 27.0204 15.9905 27.0204C15.9115 26.9466 15.8331 26.8734 15.7554 26.7996C15.7548 26.799 15.7548 26.799 15.7541 26.7983C15.7489 26.7937 15.743 26.7879 15.7378 26.7826C15.7352 26.78 15.7325 26.7781 15.7299 26.7754L15.0716 26.1014L14.0566 25.0622L14.0539 25.0596L13.5804 24.5743L12.3819 23.3464C12.2166 23.1615 12.052 22.976 11.8887 22.7886C11.8084 22.6952 11.7261 22.6011 11.6451 22.5064C11.4838 22.3183 11.3231 22.1296 11.1637 21.9388C11.1637 21.9388 11.1637 21.9388 11.1637 21.9382C11.0442 21.7951 10.9253 21.6521 10.8071 21.5084C10.6889 21.3641 10.572 21.2197 10.4557 21.0747C10.3009 20.8807 10.1468 20.6861 9.99393 20.4908C9.6889 20.0995 9.38911 19.7044 9.09388 19.3053V19.3047C8.43158 18.4072 7.79671 17.4895 7.19124 16.5529C7.02077 16.2903 6.85225 16.0258 6.687 15.76C6.26049 15.0781 5.85031 14.3871 5.45581 13.6875C5.40617 13.6013 5.35914 13.517 5.31146 13.4315C4.71382 12.3597 4.14166 11.2454 3.61326 10.1226C2.71125 8.21343 1.91636 6.23829 1.25145 4.25465C0.887638 3.17695 0.549957 2.06266 0.253425 0.947075L0 0H0.979733C3.33697 0 5.45581 1.48593 6.25657 3.69621L6.27878 3.75891C6.98027 5.69813 7.81435 7.61579 8.7562 9.45834C9.22255 10.3721 9.73005 11.2931 10.2696 12.2009C10.363 12.359 10.4577 12.5177 10.5524 12.6738C10.7875 13.0618 11.0298 13.4472 11.2761 13.8286C11.4929 14.1643 11.7143 14.4981 11.9403 14.8286C12.3316 15.404 12.7352 15.971 13.1519 16.5301C13.5223 17.0284 13.9031 17.5215 14.2923 18.0062C14.4876 18.2485 14.6842 18.4895 14.8834 18.7286V18.7292C15.1114 19.0022 15.3413 19.2727 15.5745 19.5411L15.5751 19.5404L16.1088 20.0982L16.7547 20.7736L16.9566 20.9839L16.9748 21.0035L18.8912 23.0054L18.8906 23.0061C18.8919 23.0074 18.8925 23.008 18.8938 23.0094C18.9324 23.0453 18.9709 23.0819 19.0088 23.1184C19.1139 23.2164 19.2178 23.3144 19.321 23.4091C19.3216 23.4091 19.3216 23.4091 19.3216 23.4091C19.3693 23.4535 19.4157 23.4966 19.4627 23.5397C19.4634 23.5404 19.464 23.541 19.4647 23.541C19.4673 23.5443 19.4699 23.5462 19.4725 23.5482C19.7593 23.814 20.0525 24.0773 20.3504 24.3385C20.4503 24.4267 20.5515 24.5149 20.6534 24.6024C20.7547 24.6899 20.8572 24.7781 20.9598 24.865C21.0179 24.9146 21.0773 24.9649 21.1361 25.0139L21.2693 25.1262H21.27C21.4777 25.3 21.6867 25.4724 21.8983 25.6435C22.2465 25.9263 22.6103 26.2137 22.9858 26.5005C23.4953 26.8904 24.0152 27.2705 24.5397 27.6389C24.6481 27.716 24.7572 27.7924 24.8663 27.8675C24.9466 27.9224 25.0263 27.9779 25.1066 28.0328C25.1804 28.0837 25.2562 28.1347 25.3294 28.1843C26.1288 27.6441 26.9146 27.0779 27.6703 26.4998C29.9811 24.7356 32.1522 22.7559 34.1228 20.6136C34.8844 19.7899 35.6283 18.9271 36.3344 18.048C36.9412 17.2929 37.5342 16.5111 38.094 15.7241C39.6178 13.5876 42.073 12.3126 44.6621 12.3126H45.971Z" fill="url(#paint7_linear_111_4478)"/>
<path d="M14.8841 18.7299C13.2897 16.8187 11.8384 14.7881 10.553 12.6745C10.4583 12.5177 10.3636 12.3596 10.2702 12.2016H10.2709C10.3643 12.359 10.459 12.5177 10.5537 12.6738C11.8391 14.7881 13.291 16.8187 14.8841 18.7299Z" fill="url(#paint8_linear_111_4478)"/>
<path d="M15.5749 19.5418C15.3405 19.2746 15.1105 19.0042 14.8832 18.7306C15.1112 19.0029 15.3424 19.2733 15.5749 19.5418Z" fill="url(#paint9_linear_111_4478)"/>
<path d="M16.9579 20.9853L16.7561 20.7749L16.1101 20.0996L15.5765 19.5418L15.5758 19.5424C15.342 19.2746 15.1121 19.0042 14.8848 18.7306V18.7299C14.6856 18.4909 14.489 18.2505 14.2937 18.0075C13.9044 17.5222 13.5236 17.0297 13.1533 16.5314C12.7372 15.9723 12.3335 15.4047 11.9417 14.8299L7.19257 16.5536C7.79804 17.4896 8.43291 18.4079 9.09521 19.3053V19.306C9.39043 19.7057 9.69023 20.1002 9.99525 20.4915C10.1481 20.6874 10.3022 20.8814 10.457 21.0754C10.5733 21.2204 10.6909 21.3654 10.8084 21.5091C10.926 21.6528 11.0449 21.7958 11.1651 21.9389C11.1651 21.9395 11.1651 21.9395 11.1651 21.9395C11.3244 22.1296 11.4851 22.319 11.6464 22.5071C11.7274 22.6018 11.8097 22.6959 11.8901 22.7893C12.054 22.9767 12.2179 23.1622 12.3832 23.3471L13.5817 24.575L14.0553 25.0603L13.6248 25.6651L14.0579 25.0629L16.9762 21.0049L16.9579 20.9853Z" fill="url(#paint10_linear_111_4478)"/>
<path d="M24.5411 27.6389L21.2897 31.3547C20.824 31.0203 20.3641 30.678 19.9115 30.3299C19.5588 30.0588 19.2113 29.7852 18.8697 29.5095C18.8534 29.4965 18.8351 29.4815 18.8155 29.4664C18.7966 29.4501 18.7757 29.4331 18.7548 29.4161C18.2094 28.9746 17.6653 28.5161 17.1291 28.0458C16.8351 27.7891 16.5438 27.5285 16.2558 27.2653C16.1683 27.1843 16.0794 27.1027 15.9919 27.0217C15.9913 27.0217 15.9913 27.0217 15.9913 27.0217C15.9122 26.9479 15.8339 26.8747 15.7561 26.8009C15.7555 26.8003 15.7555 26.8003 15.7548 26.7996L19.4654 23.5423C19.468 23.5456 19.4706 23.5475 19.4732 23.5495C19.76 23.8153 20.0532 24.0786 20.3511 24.3398C20.451 24.428 20.5522 24.5162 20.6541 24.6037C20.7554 24.6912 20.8579 24.7794 20.9605 24.8663C21.0186 24.9159 21.078 24.9662 21.1368 25.0152L21.2701 25.1275H21.2707C21.4784 25.3013 21.6874 25.4737 21.8991 25.6448C22.2472 25.9276 22.611 26.215 22.9866 26.5018C23.4967 26.8904 24.0166 27.2705 24.5411 27.6389Z" fill="url(#paint11_linear_111_4478)"/>
<path d="M50.6596 0L50.4068 0.947075C50.1116 2.05548 49.7759 3.16715 49.4101 4.25596C49.1737 4.95941 48.919 5.66547 48.657 6.35128C47.6956 8.86593 45.2489 10.555 42.5723 10.555H41.341L41.9028 9.459C42.6813 7.93715 43.3854 6.36435 44.0027 4.76803H34.1877L33.7357 5.30689L28.9154 11.056C29.1081 11.2506 29.2988 11.4413 29.4889 11.6249C29.805 11.9331 30.1198 12.2316 30.4222 12.5132C30.8938 12.9495 31.3765 13.3838 31.8618 13.8005C31.997 13.9161 32.1329 14.0324 32.27 14.1467C33.0917 14.839 33.5796 15.8116 33.6423 16.8867C33.7057 17.9526 33.3223 19.0107 32.5914 19.788L32.1309 20.2792L31.5921 19.8775C30.6077 19.1414 29.6319 18.3595 28.6927 17.5516C27.8671 16.8455 27.0441 16.0957 26.2447 15.3217C26.1108 15.1911 25.971 15.0552 25.8247 14.9109C25.7992 14.8854 25.7737 14.8599 25.7463 14.8345L23.1252 17.9069H25.9246L19.4734 23.5502L15.7563 26.8016L7.96285 33.6186L13.6251 25.6664L14.0555 25.0616L16.9575 20.9859L17.6047 20.0767L19.1076 17.9657H17.3892L22.4845 11.3022C22.2029 10.9678 21.9182 10.6242 21.6373 10.2741C20.2278 8.52433 18.9156 6.67264 17.7347 4.76869H12.2613C9.89227 4.76869 7.83092 3.24945 7.12943 0.986917L6.79828 0.00261517L7.84398 0.000653793H20.6295L20.8463 0.384056C21.4557 1.46829 22.12 2.54927 22.8215 3.59693C23.7078 4.92414 24.6699 6.22719 25.6921 7.47602L29.8083 2.56886L31.9611 0.000653793H50.6596V0Z" fill="url(#paint12_linear_111_4478)"/>
<defs>
<linearGradient id="paint0_linear_111_4478" x1="9.5434" y1="20.3661" x2="9.5434" y2="19.3027" gradientUnits="userSpaceOnUse">
<stop stop-color="#2C5DFE"/>
<stop offset="1" stop-color="#2DADFC"/>
</linearGradient>
<linearGradient id="paint1_linear_111_4478" x1="10.8108" y1="21.8479" x2="10.8108" y2="21.0732" gradientUnits="userSpaceOnUse">
<stop stop-color="#2C5DFE"/>
<stop offset="1" stop-color="#2DADFC"/>
</linearGradient>
<linearGradient id="paint2_linear_111_4478" x1="11.4049" y1="22.4472" x2="11.4049" y2="21.9384" gradientUnits="userSpaceOnUse">
<stop stop-color="#2C5DFE"/>
<stop offset="1" stop-color="#2DADFC"/>
</linearGradient>
<linearGradient id="paint3_linear_111_4478" x1="17.4049" y1="29.2078" x2="17.4049" y2="27.015" gradientUnits="userSpaceOnUse">
<stop stop-color="#2C5DFE"/>
<stop offset="1" stop-color="#2DADFC"/>
</linearGradient>
<linearGradient id="paint4_linear_111_4478" x1="18.8514" y1="23.007" x2="19.1631" y2="23.2521" gradientUnits="userSpaceOnUse">
<stop stop-color="#072FA0"/>
<stop offset="1" stop-color="#072FA0" stop-opacity="0"/>
</linearGradient>
<linearGradient id="paint5_linear_111_4478" x1="19.2097" y1="23.3943" x2="20.157" y2="24.1392" gradientUnits="userSpaceOnUse">
<stop stop-color="#072FA0"/>
<stop offset="1" stop-color="#072FA0" stop-opacity="0"/>
</linearGradient>
<linearGradient id="paint6_linear_111_4478" x1="20.4117" y1="24.4103" x2="23.396" y2="26.7569" gradientUnits="userSpaceOnUse">
<stop stop-color="#072FA0"/>
<stop offset="1" stop-color="#072FA0" stop-opacity="0"/>
</linearGradient>
<linearGradient id="paint7_linear_111_4478" x1="22.9857" y1="14.6069" x2="22.9857" y2="37.3953" gradientUnits="userSpaceOnUse">
<stop stop-color="#2C5DFE"/>
<stop offset="1" stop-color="#2DADFC"/>
</linearGradient>
<linearGradient id="paint8_linear_111_4478" x1="15.8443" y1="20.9048" x2="12.1061" y2="14.6832" gradientUnits="userSpaceOnUse">
<stop stop-color="#072FA0"/>
<stop offset="1" stop-color="#072FA0" stop-opacity="0"/>
</linearGradient>
<linearGradient id="paint9_linear_111_4478" x1="15.6604" y1="19.8536" x2="15.1672" y2="19.0328" gradientUnits="userSpaceOnUse">
<stop stop-color="#072FA0"/>
<stop offset="1" stop-color="#072FA0" stop-opacity="0"/>
</linearGradient>
<linearGradient id="paint10_linear_111_4478" x1="16.883" y1="24.3471" x2="10.4637" y2="17.9278" gradientUnits="userSpaceOnUse">
<stop stop-color="#072FA0"/>
<stop offset="1" stop-color="#072FA0" stop-opacity="0"/>
</linearGradient>
<linearGradient id="paint11_linear_111_4478" x1="15.2179" y1="22.2882" x2="21.2318" y2="28.3021" gradientUnits="userSpaceOnUse">
<stop stop-color="#072FA0"/>
<stop offset="1" stop-color="#072FA0" stop-opacity="0"/>
</linearGradient>
<linearGradient id="paint12_linear_111_4478" x1="28.7297" y1="-2.08243" x2="28.7297" y2="20.1261" gradientUnits="userSpaceOnUse">
<stop stop-color="#2C5DFE"/>
<stop offset="1" stop-color="#2DADFC"/>
</linearGradient>
</defs>
</svg>
