<svg width="28" height="28" viewBox="0 0 28 28" fill="none" xmlns="http://www.w3.org/2000/svg">
<path fill-rule="evenodd" clip-rule="evenodd" d="M13.9993 4.66675C8.84735 4.66675 4.66602 8.84808 4.66602 14.0001C4.66602 19.1521 8.84735 23.3334 13.9993 23.3334C19.1514 23.3334 23.3327 19.1521 23.3327 14.0001C23.3327 8.84808 19.1514 4.66675 13.9993 4.66675ZM17.7327 14.9334H14.9327V17.7334C14.9327 18.2467 14.5127 18.6667 13.9993 18.6667C13.486 18.6667 13.066 18.2467 13.066 17.7334V14.9334H10.266C9.75268 14.9334 9.33268 14.5134 9.33268 14.0001C9.33268 13.4867 9.75268 13.0667 10.266 13.0667H13.066V10.2667C13.066 9.75341 13.486 9.33341 13.9993 9.33341C14.5127 9.33341 14.9327 9.75341 14.9327 10.2667V13.0667H17.7327C18.246 13.0667 18.666 13.4867 18.666 14.0001C18.666 14.5134 18.246 14.9334 17.7327 14.9334Z" fill="white"/>
</svg>
