<svg width="25" height="18" viewBox="0 0 25 18" fill="none" xmlns="http://www.w3.org/2000/svg">
<g clip-path="url(#clip0_131_8489)">
<rect width="25" height="18" rx="3" fill="white"/>
<path fill-rule="evenodd" clip-rule="evenodd" d="M0 12H25V18H0V12Z" fill="#249F58"/>
<path fill-rule="evenodd" clip-rule="evenodd" d="M12.5001 12C14.143 12 15.4763 10.656 15.4763 9C15.4763 7.344 14.143 6 12.5001 6C10.8573 6 9.52393 7.344 9.52393 9C9.52393 10.656 10.8573 12 12.5001 12ZM12.5001 10.8C13.4858 10.8 14.2858 9.9936 14.2858 9C14.2858 8.0064 13.4858 7.2 12.5001 7.2C11.5144 7.2 10.7144 8.0064 10.7144 9C10.7144 9.9936 11.5144 10.8 12.5001 10.8Z" fill="#1A47B8"/>
<path d="M12.5 9.59999C12.8288 9.59999 13.0953 9.33137 13.0953 8.99999C13.0953 8.66862 12.8288 8.39999 12.5 8.39999C12.1713 8.39999 11.9048 8.66862 11.9048 8.99999C11.9048 9.33137 12.1713 9.59999 12.5 9.59999Z" fill="#1A47B8"/>
<path fill-rule="evenodd" clip-rule="evenodd" d="M0 0H25V6H0V0Z" fill="#FF6C2D"/>
</g>
<defs>
<clipPath id="clip0_131_8489">
<rect width="25" height="18" rx="3" fill="white"/>
</clipPath>
</defs>
</svg>
