<svg width="80" height="80" viewBox="0 0 80 80" fill="none" xmlns="http://www.w3.org/2000/svg">
<path d="M73.1657 36.68C67.1991 36.58 60.8324 30.18 64.2324 22.6133C54.2991 25.9467 44.9991 17.3133 46.9324 7.41332C23.1657 2.41332 6.66573 21.98 6.66573 40.0467C6.66573 58.4467 21.5991 73.38 39.9991 73.38C59.6324 73.38 75.1324 56.4467 73.1657 36.68ZM28.3324 50.0467C25.5657 50.0467 23.3324 47.8133 23.3324 45.0467C23.3324 42.28 25.5657 40.0467 28.3324 40.0467C31.0991 40.0467 33.3324 42.28 33.3324 45.0467C33.3324 47.8133 31.0991 50.0467 28.3324 50.0467ZM34.9991 33.38C32.2324 33.38 29.9991 31.1467 29.9991 28.38C29.9991 25.6133 32.2324 23.38 34.9991 23.38C37.7657 23.38 39.9991 25.6133 39.9991 28.38C39.9991 31.1467 37.7657 33.38 34.9991 33.38ZM49.9991 53.38C48.1657 53.38 46.6657 51.88 46.6657 50.0467C46.6657 48.2133 48.1657 46.7133 49.9991 46.7133C51.8324 46.7133 53.3324 48.2133 53.3324 50.0467C53.3324 51.88 51.8324 53.38 49.9991 53.38Z" fill="white"/>
</svg>
