<svg width="20" height="12" viewBox="0 0 20 12" fill="none" xmlns="http://www.w3.org/2000/svg">
<path d="M3.75669 0.000671387H8.54464C9.213 0.000671387 9.62869 0.545439 9.47278 1.21601L7.24364 10.7866C7.08633 11.4548 6.41715 12 5.74833 12H0.960842C0.29342 12 -0.123208 11.4548 0.0327067 10.7866L2.26278 1.21601C2.41869 0.545439 3.08751 0.000671387 3.75669 0.000671387Z" fill="#E21836"/>
<path d="M8.14603 0H13.6521C14.3203 0 14.019 0.544767 13.8618 1.21534L11.633 10.7859C11.4766 11.4541 11.5254 11.9994 10.8558 11.9994H5.34972C4.68008 11.9994 4.26567 11.4541 4.42299 10.7859L6.65166 1.21534C6.80991 0.544767 7.47733 0 8.14603 0Z" fill="#00447C"/>
<path d="M13.4339 0H18.2219C18.8911 0 19.3068 0.544767 19.1496 1.21534L16.9209 10.7859C16.7635 11.4541 16.0939 11.9994 15.4247 11.9994H10.639C9.96935 11.9994 9.554 11.4541 9.71085 10.7859L11.94 1.21534C12.0959 0.544767 12.7643 0 13.4339 0Z" fill="#007B84"/>
<path d="M5.00713 3.06707C4.51477 3.07209 4.36935 3.06707 4.32291 3.0561C4.30505 3.14094 3.9728 4.6736 3.97187 4.67488C3.90033 4.98496 3.84828 5.20599 3.67147 5.34872C3.57111 5.4317 3.45394 5.47172 3.3181 5.47172C3.09975 5.47172 2.97254 5.36331 2.95118 5.15768L2.9471 5.08707C2.9471 5.08707 3.01362 4.67173 3.01362 4.6694C3.01362 4.6694 3.36233 3.2727 3.42476 3.08808C3.42803 3.07757 3.42896 3.07209 3.42978 3.06707C2.75104 3.07302 2.63072 3.06707 2.62243 3.0561C2.61788 3.07115 2.60108 3.15775 2.60108 3.15775L2.24502 4.73195L2.21444 4.86546L2.15527 5.30216C2.15527 5.4317 2.18071 5.53743 2.23136 5.62682C2.39358 5.91029 2.85631 5.95277 3.11807 5.95277C3.45534 5.95277 3.77172 5.88112 3.98552 5.75029C4.35663 5.53101 4.45373 5.18825 4.54032 4.88366L4.58047 4.7274C4.58047 4.7274 4.93968 3.27678 5.00071 3.08808C5.00305 3.07757 5.00398 3.07209 5.00713 3.06707ZM6.22932 4.23729C6.14273 4.23729 5.98448 4.2583 5.84234 4.32797C5.79076 4.35446 5.74197 4.38504 5.69051 4.4155L5.73696 4.2478L5.71151 4.21955C5.41007 4.28059 5.34262 4.28876 5.06417 4.32797L5.04083 4.34349C5.0085 4.61156 4.97979 4.8131 4.85994 5.34001C4.81431 5.53421 4.76692 5.73027 4.71943 5.92399L4.73226 5.94862C5.0176 5.93356 5.10419 5.93356 5.35219 5.93765L5.37226 5.91583C5.40377 5.75443 5.40785 5.71661 5.47764 5.38973C5.51044 5.23475 5.57882 4.89421 5.61255 4.77296C5.67452 4.74425 5.73567 4.71601 5.79402 4.71601C5.93302 4.71601 5.91609 4.83726 5.91073 4.88558C5.90477 4.96668 5.85413 5.2316 5.80219 5.45905L5.76753 5.60586C5.74337 5.71428 5.71688 5.81966 5.69273 5.92715L5.70323 5.94862C5.98448 5.93356 6.07026 5.93356 6.31043 5.93765L6.33867 5.91583C6.38209 5.66375 6.39481 5.59629 6.47183 5.22926L6.51058 5.06063C6.58585 4.73059 6.62366 4.56324 6.56671 4.42693C6.50649 4.27417 6.36201 4.23729 6.22932 4.23729ZM7.59465 4.58284C7.44515 4.61155 7.34981 4.63068 7.25505 4.64306C7.1611 4.65811 7.06949 4.67176 6.92501 4.69184L6.91357 4.70222L6.90307 4.71051C6.88802 4.81811 6.87751 4.91112 6.85756 5.02047C6.84064 5.13356 6.81461 5.26205 6.77225 5.44667C6.73945 5.588 6.72253 5.63724 6.70386 5.68696C6.68565 5.73667 6.66558 5.78499 6.6287 5.92398L6.63734 5.93682L6.64458 5.94861C6.7796 5.94219 6.86794 5.93764 6.95874 5.93682C7.04942 5.93355 7.14336 5.93682 7.28877 5.93764L7.30149 5.92725L7.31515 5.91581C7.33615 5.79047 7.3393 5.75675 7.35214 5.6956C7.36486 5.63001 7.3868 5.53921 7.4406 5.29671C7.46604 5.1828 7.4944 5.06925 7.52078 4.95302C7.5482 4.83725 7.57691 4.72323 7.60422 4.60933L7.60014 4.59556L7.59465 4.58284ZM7.59784 4.11694C7.46199 4.03676 7.22357 4.0622 7.06311 4.17295C6.90311 4.28149 6.8849 4.43553 7.02028 4.51676C7.15378 4.59472 7.39314 4.57149 7.55221 4.45981C7.71185 4.34894 7.73181 4.19629 7.59784 4.11694ZM8.41936 5.97373C8.6942 5.97373 8.97592 5.89799 9.18797 5.67322C9.35112 5.49093 9.42592 5.21972 9.45183 5.10803C9.53621 4.73785 9.4705 4.56502 9.38799 4.45975C9.26266 4.29928 9.04116 4.24782 8.81137 4.24782C8.67319 4.24782 8.34409 4.26147 8.08699 4.4985C7.90237 4.66947 7.81706 4.90147 7.7656 5.1239C7.71366 5.35054 7.65391 5.75853 8.02911 5.91036C8.14488 5.96008 8.31176 5.97373 8.41936 5.97373ZM8.39789 5.14083C8.46126 4.86051 8.53607 4.62523 8.72699 4.62523C8.8766 4.62523 8.88746 4.80029 8.82094 5.08154C8.80903 5.14398 8.75442 5.3761 8.68054 5.47495C8.62896 5.54789 8.56793 5.59212 8.50047 5.59212C8.4804 5.59212 8.36101 5.59212 8.35915 5.41484C8.35821 5.32732 8.37607 5.23792 8.39789 5.14083ZM10.1389 5.93768L10.1603 5.91586C10.1908 5.75446 10.1958 5.71653 10.2633 5.38976C10.297 5.23478 10.3668 4.89425 10.3996 4.77299C10.4617 4.74417 10.5218 4.71592 10.582 4.71592C10.72 4.71592 10.7032 4.83718 10.6977 4.88549C10.6927 4.96672 10.6421 5.23152 10.5892 5.45897L10.5564 5.60578C10.5313 5.71431 10.504 5.81958 10.4799 5.92718L10.4904 5.94865C10.7726 5.9336 10.8551 5.9336 11.0966 5.93768L11.1258 5.91586C11.1682 5.66367 11.1796 5.59621 11.259 5.2293L11.2968 5.06055C11.3724 4.73051 11.4107 4.56328 11.3547 4.42697C11.2927 4.27421 11.1473 4.23733 11.0165 4.23733C10.9298 4.23733 10.7707 4.25822 10.6294 4.32801C10.5788 4.3545 10.5282 4.38496 10.4785 4.41553L10.5218 4.24783L10.4985 4.21947C10.1972 4.28062 10.1284 4.28879 9.85025 4.32801L9.8289 4.34353C9.79517 4.61159 9.76775 4.81302 9.64789 5.34005C9.60226 5.53424 9.55488 5.7303 9.5075 5.92403L9.52022 5.94865C9.80602 5.9336 9.89133 5.9336 10.1389 5.93768ZM12.2121 5.9486C12.2299 5.862 12.3353 5.34874 12.3362 5.34874C12.3362 5.34874 12.4259 4.97215 12.4314 4.95849C12.4314 4.95849 12.4597 4.91928 12.4879 4.90376H12.5295C12.9215 4.90376 13.3641 4.90376 13.7111 4.64853C13.9472 4.47347 14.1086 4.21498 14.1806 3.90082C14.1992 3.82379 14.213 3.73218 14.213 3.64057C14.213 3.52025 14.1888 3.40121 14.1191 3.3082C13.9421 3.06067 13.5898 3.05612 13.1831 3.05426C13.1818 3.05426 12.9826 3.05612 12.9826 3.05612C12.462 3.06254 12.2532 3.06067 12.1674 3.05017C12.1602 3.0881 12.1466 3.15555 12.1466 3.15555C12.1466 3.15555 11.9601 4.01985 11.9601 4.02125C11.9601 4.02125 11.5138 5.85885 11.4928 5.94544C11.9473 5.93996 12.1337 5.93996 12.2121 5.9486ZM12.5577 4.41326C12.5577 4.41326 12.756 3.55071 12.755 3.55398L12.7615 3.50975L12.7643 3.47602L12.8435 3.48419C12.8435 3.48419 13.2524 3.51931 13.262 3.52025C13.4234 3.58268 13.4899 3.74362 13.4435 3.95368C13.4011 4.14566 13.2766 4.30706 13.1166 4.38501C12.9848 4.45107 12.8234 4.45655 12.6571 4.45655H12.5495L12.5577 4.41326ZM13.7922 5.1568C13.7398 5.38017 13.6796 5.78816 14.0529 5.93358C14.172 5.98422 14.2786 5.99928 14.3871 5.99379C14.5015 5.98761 14.6076 5.93019 14.7059 5.84757C14.697 5.88153 14.6881 5.91549 14.6793 5.94956L14.6962 5.97139C14.9647 5.96007 15.0481 5.96007 15.339 5.96228L15.3654 5.94221C15.4079 5.69247 15.4479 5.44996 15.5583 4.97218C15.6121 4.74333 15.6658 4.51669 15.721 4.28877L15.7123 4.26368C15.4119 4.31935 15.3316 4.33125 15.0427 4.37221L15.0207 4.39007C15.0178 4.41329 15.0148 4.43558 15.012 4.45787C14.9671 4.38528 14.9019 4.32331 14.8015 4.28469C14.673 4.23415 14.3712 4.29927 14.1118 4.53548C13.9295 4.70411 13.8419 4.93519 13.7922 5.1568ZM14.4231 5.17046C14.4874 4.89516 14.5613 4.66222 14.7527 4.66222C14.8737 4.66222 14.9374 4.7739 14.9245 4.96436C14.9142 5.01186 14.9031 5.06192 14.8899 5.11852C14.8708 5.20033 14.85 5.28144 14.8298 5.36267C14.8093 5.41822 14.7854 5.47062 14.7591 5.50551C14.7099 5.5753 14.5927 5.6186 14.5252 5.6186C14.5061 5.6186 14.388 5.6186 14.3839 5.44448C14.383 5.35777 14.4008 5.26849 14.4231 5.17046ZM17.7177 4.26145L17.6945 4.23496C17.3972 4.29518 17.3434 4.30475 17.0703 4.34162L17.0503 4.3617C17.0493 4.36496 17.0485 4.36998 17.0471 4.37453L17.0462 4.36998C16.8429 4.83901 16.8488 4.73783 16.6834 5.10708C16.6824 5.09027 16.6824 5.07977 16.6815 5.06191L16.6401 4.26145L16.614 4.23496C16.3027 4.29518 16.2953 4.30475 16.0078 4.34162L15.9854 4.3617C15.9822 4.37127 15.9822 4.38177 15.9803 4.39321L15.9822 4.39729C16.0181 4.58098 16.0095 4.54002 16.0456 4.82991C16.0624 4.97217 16.0848 5.11525 16.1016 5.25576C16.1299 5.49091 16.1458 5.60668 16.1805 5.96554C15.9863 6.28601 15.9403 6.40726 15.7533 6.68851L15.7546 6.69131L15.623 6.89951C15.6079 6.92145 15.5943 6.93651 15.5751 6.94292C15.5541 6.95331 15.5268 6.95518 15.4889 6.95518H15.416L15.3075 7.31579L15.6795 7.32221C15.8978 7.32127 16.0351 7.21916 16.1089 7.08192L16.3428 6.68116H16.3391L16.3637 6.65292C16.521 6.31425 17.7177 4.26145 17.7177 4.26145ZM13.7922 8.99753H13.6344L14.2184 7.06599H14.4121L14.4736 6.86701L14.4796 7.08828C14.4724 7.22505 14.58 7.34631 14.8626 7.32623H15.1895L15.302 6.9543H15.179C15.1083 6.9543 15.0755 6.93645 15.0796 6.89817L15.0736 6.67305H14.4683V6.67422C14.2726 6.6783 13.6881 6.69301 13.5698 6.72452C13.4266 6.76139 13.2757 6.86993 13.2757 6.86993L13.335 6.67072H12.7687L12.6507 7.06599L12.0589 9.02706H11.9441L11.8315 9.3963H12.9593L12.9215 9.51942H13.4772L13.5141 9.3963H13.67L13.7922 8.99753ZM13.3295 7.45846C13.2388 7.48355 13.0701 7.55964 13.0701 7.55964L13.2201 7.06599H13.67L13.5615 7.42566C13.5615 7.42566 13.4225 7.43383 13.3295 7.45846ZM13.3381 8.16369C13.3381 8.16369 13.1968 8.18143 13.1038 8.20244C13.0122 8.23021 12.8404 8.31774 12.8404 8.31774L12.9954 7.80401H13.4476L13.3381 8.16369ZM13.086 9.00208H12.6348L12.7656 8.56853H13.2155L13.086 9.00208ZM14.1728 7.80401H14.8233L14.7299 8.10674H14.0707L13.9718 8.43771H14.5485L14.1118 9.05261C14.0812 9.09778 14.0538 9.11377 14.0233 9.12649C13.9928 9.14201 13.9526 9.16021 13.9062 9.16021H13.7462L13.6362 9.52269H14.0547C14.2723 9.52269 14.4008 9.42373 14.4956 9.29384L14.7951 8.88398L14.8594 9.30014C14.8731 9.3781 14.9291 9.42373 14.967 9.44147C15.0089 9.46247 15.0522 9.49853 15.1134 9.5039C15.1789 9.5067 15.2263 9.50892 15.2578 9.50892H15.4635L15.5869 9.10326H15.5058C15.4593 9.10326 15.3791 9.09544 15.3654 9.08086C15.3518 9.06312 15.3518 9.03581 15.3444 8.99426L15.2792 8.57717H15.0121L15.1292 8.43771H15.7871L15.8883 8.10674H15.2792L15.3741 7.80401H15.9813L16.0939 7.43068H14.2836L14.1728 7.80401ZM8.6787 9.08638L8.83053 8.58129H9.45454L9.56856 8.20562H8.94397L9.03931 7.89473H9.64967L9.76275 7.53096H8.23558L8.12483 7.89473H8.47179L8.37924 8.20562H8.03135L7.91605 8.58771H8.26289L8.06053 9.25595C8.03322 9.34441 8.07336 9.37813 8.0988 9.41921C8.12483 9.45924 8.15121 9.48573 8.21049 9.50079C8.27164 9.51444 8.31354 9.52261 8.37049 9.52261H9.07397L9.19931 9.10645L8.88748 9.14928C8.82726 9.14928 8.6605 9.14204 8.6787 9.08638ZM8.75027 6.66844L8.59214 6.95424C8.5583 7.01668 8.52784 7.05543 8.50041 7.07328C8.47626 7.08834 8.42841 7.09464 8.35909 7.09464H8.27658L8.16629 7.46027H8.44031C8.57207 7.46027 8.67325 7.41195 8.72157 7.38779C8.7735 7.36002 8.78715 7.37589 8.8273 7.33714L8.91984 7.25697H9.77551L9.88906 6.87629H9.26271L9.37207 6.66844H8.75027ZM10.0135 9.09372C9.99892 9.07271 10.0094 9.03572 10.0317 8.95869L10.2656 8.1846H11.0976C11.2188 8.18285 11.3063 8.18145 11.3633 8.17737C11.4244 8.17095 11.491 8.14913 11.5634 8.10991C11.6382 8.06883 11.6765 8.02554 11.7088 7.97582C11.7449 7.92622 11.8028 7.81769 11.8525 7.65034L12.1465 6.67074L11.2831 6.67576C11.2831 6.67576 11.0173 6.71497 10.9002 6.75827C10.7821 6.80658 10.6134 6.94149 10.6134 6.94149L10.6913 6.67296H10.158L9.41132 9.14927C9.38483 9.24543 9.36709 9.31522 9.36301 9.35711C9.36161 9.40228 9.41996 9.44698 9.45777 9.4807C9.50247 9.51443 9.56852 9.50894 9.63189 9.51443C9.69853 9.51945 9.79329 9.5226 9.92412 9.5226H10.334L10.4598 9.0978L10.0929 9.13246C10.0537 9.13246 10.0253 9.11146 10.0135 9.09372ZM10.4165 7.66178H11.2904L11.2348 7.8359C11.227 7.83998 11.2083 7.82726 11.1194 7.83776H10.3627L10.4165 7.66178ZM10.5915 7.0778H11.4728L11.4094 7.28751C11.4094 7.28751 10.994 7.28343 10.9275 7.29568C10.6348 7.34633 10.4639 7.50271 10.4639 7.50271L10.5915 7.0778ZM11.2544 8.41898C11.2471 8.445 11.2357 8.46087 11.2197 8.47278C11.202 8.48421 11.1733 8.4883 11.1304 8.4883H11.0059L11.0133 8.27625H10.4953L10.4743 9.31292C10.4735 9.38773 10.4807 9.43102 10.5355 9.46568C10.5902 9.50898 10.7588 9.51446 10.9858 9.51446H11.3104L11.4275 9.12643L11.145 9.14195L11.0511 9.14744C11.0382 9.14195 11.026 9.13693 11.0123 9.12328C11.0004 9.11149 10.9803 9.11873 10.9836 9.04392L10.9858 8.77819L11.2821 8.76593C11.4421 8.76593 11.5105 8.71388 11.5689 8.66429C11.6245 8.61679 11.6427 8.56217 11.6638 8.4883L11.7135 8.25303H11.3063L11.2544 8.41898Z" fill="#FEFEFE"/>
</svg>
