<svg width="12" height="12" viewBox="0 0 12 12" fill="none" xmlns="http://www.w3.org/2000/svg">
<path d="M9.22489 7.54535C9.4242 7.63077 9.50961 7.9155 9.50961 8.05786C9.53809 8.28564 9.48114 8.39954 9.39572 8.39954C9.3103 8.39954 9.19641 8.31412 9.08252 8.11481C8.96863 7.9155 8.91168 7.71619 8.96863 7.6023C9.05405 7.54535 9.13947 7.51688 9.22489 7.54535Z" fill="#F28A1A"/>
<path d="M8.05735 8.42798C8.17124 8.42798 8.31361 8.48492 8.45597 8.59882C8.68376 8.79813 8.76917 9.02591 8.65528 9.19675C8.59834 9.28216 8.45597 9.33911 8.34208 9.33911C8.19972 9.33911 8.05735 9.28216 7.97193 9.19675C7.74415 8.99744 7.6872 8.71271 7.82957 8.54187C7.85804 8.48492 7.94346 8.42798 8.05735 8.42798Z" fill="#F28A1A"/>
<path d="M5.3529 10.6773C2.39172 10.6773 0 8.28561 0 5.3529C0 2.4202 2.39172 0 5.3529 0C8.31408 0 10.7058 2.39172 10.7058 5.3529C10.7058 6.34945 10.4211 7.28906 9.96551 8.0863C9.93704 8.11477 9.90856 8.11477 9.90856 8.05783C9.70926 6.74807 8.91201 6.03625 7.7731 5.80847C7.65921 5.78 7.65921 5.72305 7.80157 5.72305C8.17172 5.69458 8.65576 5.69458 8.94049 5.75152C8.96896 5.60916 8.96896 5.46679 8.96896 5.3529C8.96896 3.41675 7.37448 1.82226 5.43832 1.82226C3.50217 1.82226 1.90768 3.41675 1.90768 5.3529C1.90768 7.28906 3.50217 8.88354 5.43832 8.88354H5.60916C5.55221 8.57034 5.52374 8.25714 5.55221 7.91546C5.55221 7.68768 5.60916 7.65921 5.69458 7.83004C6.17862 8.68423 6.89044 9.42453 8.25714 9.73773C9.36758 9.99398 10.478 10.2787 11.7024 11.7878C11.8162 11.9301 11.6454 12.0725 11.5315 11.9586C10.3072 10.8766 9.19674 10.5065 8.17172 10.5065C6.89044 10.535 6.12167 10.6773 5.3529 10.6773Z" fill="#F28A1A"/>
</svg>
