<svg width="32" height="32" viewBox="0 0 32 32" fill="none" xmlns="http://www.w3.org/2000/svg">
<path fill-rule="evenodd" clip-rule="evenodd" d="M15.5588 26.1333C16.7321 26.1333 17.6921 25.1733 17.6921 24H13.4255C13.4255 25.1733 14.3748 26.1333 15.5588 26.1333ZM21.9588 19.7333V14.4C21.9588 11.1253 20.2095 8.38398 17.1588 7.65865V6.93331C17.1588 6.04798 16.4441 5.33331 15.5588 5.33331C14.6735 5.33331 13.9588 6.04798 13.9588 6.93331V7.65865C10.8975 8.38398 9.1588 11.1146 9.1588 14.4V19.7333L7.7828 21.1093C7.1108 21.7813 7.58013 22.9333 8.52946 22.9333H22.5775C23.5268 22.9333 24.0068 21.7813 23.3348 21.1093L21.9588 19.7333Z" fill="#6B7A99"/>
</svg>
