<svg width="130" height="112" viewBox="0 0 130 112" fill="none" xmlns="http://www.w3.org/2000/svg">
<path d="M104.353 57.1466L98.8707 65.855L90.3216 60.473L84.8393 69.1814L93.3884 74.5634L98.8707 65.855L107.42 71.237L112.902 62.5286L104.353 57.1466ZM90.9729 97.3623L96.4552 88.6538L87.9061 83.2718L82.4238 91.9802L65.3255 81.2162L70.8078 72.5078L62.2587 67.1258L67.741 58.4174L76.2902 63.7994L81.7725 55.091L73.2233 49.7089L78.7057 41.0005L70.1565 35.6185L64.6742 44.3269L73.2233 49.7089L67.741 58.4174L59.1919 53.0353L53.7096 61.7437L45.1605 56.3617L39.6782 65.0701L31.1291 59.6881L25.6468 68.3965L17.0977 63.0145L11.6154 71.7229L3.06624 66.3409L8.54855 57.6325L-0.000565047 52.2505L10.964 34.8337L19.5132 40.2157L14.0309 48.9241L22.58 54.3061L28.0623 45.5977L36.6114 50.9797L42.0937 42.2713L33.5446 36.8893L28.0623 45.5977L19.5132 40.2157L24.9955 31.5073L16.4464 26.1252L21.9287 17.4168L30.4778 22.7988L35.9601 14.0904L27.411 8.70841L32.8933 -8.16078e-06L49.9915 10.764L44.5092 19.4724L53.0583 24.8545L47.576 33.5629L56.1251 38.9449L61.6074 30.2365L53.0583 24.8545L58.5406 16.146L92.7371 37.6741L87.2548 46.3825L95.8039 51.7646L101.286 43.0561L126.934 59.2022L121.451 67.9106L130 73.2926L119.036 90.7095L110.487 85.3274L105.004 94.0359L113.553 99.4179L108.071 108.126L99.522 102.744L94.0397 111.453L76.9415 100.689L82.4238 91.9802L90.9729 97.3623Z" fill="#2C5DFE"/>
</svg>
