<svg width="30" height="30" viewBox="0 0 30 30" fill="none" xmlns="http://www.w3.org/2000/svg">
<path fill-rule="evenodd" clip-rule="evenodd" d="M13.79 19.29C14.18 19.68 14.81 19.68 15.2 19.29L18.79 15.7C19.18 15.31 19.18 14.68 18.79 14.29L15.2 10.7C15.0132 10.5127 14.7595 10.4075 14.495 10.4075C14.2305 10.4075 13.9768 10.5127 13.79 10.7C13.4 11.09 13.4 11.72 13.79 12.11L15.67 14H7C6.45 14 6 14.45 6 15C6 15.55 6.45 16 7 16H15.67L13.79 17.88C13.4 18.27 13.41 18.91 13.79 19.29ZM22 6H8C6.89 6 6 6.9 6 8V11C6 11.55 6.45 12 7 12C7.55 12 8 11.55 8 11V9C8 8.45 8.45 8 9 8H21C21.55 8 22 8.45 22 9V21C22 21.55 21.55 22 21 22H9C8.45 22 8 21.55 8 21V19C8 18.45 7.55 18 7 18C6.45 18 6 18.45 6 19V22C6 23.1 6.9 24 8 24H22C23.1 24 24 23.1 24 22V8C24 6.9 23.1 6 22 6Z" fill="white"/>
</svg>
