<svg width="32" height="32" viewBox="0 0 32 32" fill="none" xmlns="http://www.w3.org/2000/svg">
<path fill-rule="evenodd" clip-rule="evenodd" d="M20.5413 8.03759C20.36 8.03759 20.2 8.13359 20.104 8.28292L20.0293 8.44292L14.504 20.8696C14.3333 21.1789 14.2266 21.5203 14.2266 21.8936C14.2266 23.0776 15.1866 24.0376 16.3706 24.0376C17.3946 24.0376 18.2586 23.3123 18.4613 22.3416L18.472 22.3096L21.0746 8.57092C21.0746 8.27225 20.84 8.03759 20.5413 8.03759ZM5.77863 13.4349C6.32263 13.9789 7.19729 14.0216 7.79463 13.5309C10.7386 11.1203 14.4506 10.1389 18.0133 10.5869L19.2826 7.72825C14.6426 6.89625 9.72529 8.04825 5.87463 11.1949C5.19196 11.7603 5.14929 12.8056 5.77863 13.4349ZM26.984 13.4349C27.6133 12.8056 27.5706 11.7603 26.8773 11.1949C25.4266 10.0109 23.8266 9.11492 22.1413 8.49625L21.576 11.5043C22.7813 12.0056 23.912 12.6669 24.9573 13.5203C25.576 14.0109 26.44 13.9789 26.984 13.4349ZM22.6853 17.7336C23.3253 17.0936 23.2826 15.9949 22.536 15.4723C22.0453 15.1203 21.5333 14.8216 21 14.5549L20.4133 17.6696C20.5306 17.7443 20.648 17.8189 20.7546 17.9043C21.3626 18.3309 22.1733 18.2456 22.6853 17.7336ZM10.0666 17.7229C10.6 18.2563 11.4213 18.2989 12.04 17.8616C13.0426 17.1576 14.184 16.7309 15.3466 16.5603L16.712 13.4883C14.44 13.4243 12.1466 14.0643 10.216 15.4509C9.47996 15.9949 9.42662 17.0829 10.0666 17.7229Z" fill="#6B7A99"/>
</svg>
