<svg width="452" height="304" viewBox="0 0 452 304" fill="none" xmlns="http://www.w3.org/2000/svg">
<path d="M81.1349 172.247C83.769 175.814 86.4438 179.334 89.1654 182.824C86.4322 179.339 83.7573 175.808 81.1349 172.247Z" fill="white"/>
<path d="M93.2994 188.04C95.3799 190.634 97.4837 193.204 99.6166 195.75C97.4779 193.204 95.3799 190.634 93.2994 188.04Z" fill="white"/>
<path d="M103.907 200.815C102.456 199.136 101.028 197.452 99.6121 195.75C101.034 197.452 102.468 199.136 103.907 200.815Z" fill="white"/>
<path d="M167.35 262.454C167.536 262.605 167.723 262.757 167.892 262.902C167.711 262.768 167.53 262.611 167.35 262.454C159.809 256.358 152.297 249.901 145.047 243.269C144.266 242.546 143.48 241.818 142.699 241.09C143.48 241.812 144.272 242.541 145.053 243.263C152.303 249.895 159.814 256.352 167.35 262.454Z" fill="white"/>
<path d="M168.565 205.272C169.853 206.49 171.135 207.697 172.4 208.868C171.135 207.703 169.853 206.496 168.565 205.272Z" fill="white"/>
<path d="M173.663 210.028C177.107 213.21 180.656 216.38 184.281 219.515C180.651 216.386 177.107 213.221 173.663 210.028C173.238 209.655 172.824 209.265 172.399 208.868C172.824 209.265 173.25 209.649 173.663 210.028Z" fill="white"/>
<path d="M224.023 250.111C217.63 245.734 211.272 241.171 205.095 236.439C201.744 233.886 198.498 231.316 195.392 228.793C191.616 225.739 187.909 222.639 184.285 219.51C187.915 222.639 191.627 225.739 195.398 228.787C198.504 231.311 201.75 233.875 205.101 236.433C211.278 241.165 217.63 245.734 224.023 250.111Z" fill="white"/>
<path d="M410.166 109.857L404.601 119.84C391.868 142.69 377.205 164.66 360.975 185.173C354.449 193.448 347.642 201.52 340.754 209.166C323.247 228.641 304.028 246.859 283.637 263.293C275.513 269.86 266.982 276.294 258.292 282.419C248.852 289.068 239.155 295.42 229.481 301.26L226.002 303.358L222.522 301.26C214.859 296.633 207.266 291.755 199.917 286.726C198.495 285.758 197.073 284.779 195.663 283.788C195.004 283.328 194.34 282.868 193.687 282.401C192.44 281.521 191.193 280.636 189.946 279.744C185.791 276.76 181.688 273.707 177.65 270.6C174.503 268.182 171.402 265.74 168.355 263.281C168.209 263.164 168.046 263.03 167.871 262.896C167.702 262.751 167.515 262.599 167.329 262.448C162.463 258.508 157.608 254.417 152.824 250.221C150.202 247.931 147.602 245.606 145.032 243.257C144.251 242.535 143.459 241.806 142.678 241.084C142.672 241.084 142.672 241.084 142.672 241.084C141.967 240.425 141.268 239.772 140.574 239.114C140.568 239.108 140.568 239.108 140.563 239.102C140.516 239.061 140.464 239.009 140.417 238.962C140.394 238.939 140.37 238.921 140.347 238.898L134.473 232.884L125.417 223.612L125.393 223.589L121.168 219.259L110.474 208.303C109 206.654 107.532 204.999 106.075 203.326C105.358 202.493 104.624 201.654 103.901 200.809C102.462 199.13 101.028 197.446 99.606 195.744C99.606 195.744 99.606 195.744 99.606 195.739C98.5395 194.462 97.4789 193.186 96.4241 191.904C95.3693 190.616 94.3261 189.328 93.2888 188.035C91.9076 186.304 90.5323 184.567 89.1686 182.825C86.4471 179.334 83.7723 175.808 81.1382 172.247V172.242C75.229 164.234 69.5645 156.047 64.1623 147.69C62.6413 145.347 61.1377 142.987 59.6633 140.615C55.8579 134.531 52.1981 128.365 48.6782 122.124C48.2353 121.355 47.8158 120.603 47.3903 119.84C42.0581 110.276 36.953 100.334 32.2385 90.3167C24.1905 73.2825 17.0983 55.6598 11.1658 37.9612C7.91976 28.3456 4.90687 18.4037 2.26113 8.45007L0 0H8.74145C29.7734 0 48.6782 13.2579 55.8229 32.9786L56.0211 33.5381C62.2799 50.8403 69.7218 67.9503 78.1253 84.39C82.2862 92.5429 86.8143 100.76 91.6279 108.86C92.4613 110.271 93.3063 111.687 94.1513 113.079C96.2493 116.541 98.4113 119.979 100.608 123.383C102.543 126.378 104.519 129.356 106.535 132.305C110.026 137.439 113.627 142.497 117.345 147.486C120.65 151.932 124.047 156.332 127.52 160.656C129.263 162.818 131.017 164.969 132.794 167.102V167.107C134.828 169.543 136.88 171.956 138.96 174.351L138.966 174.345L143.727 179.322L149.491 185.348L151.291 187.224L151.454 187.399L168.553 205.261L168.547 205.267C168.559 205.278 168.564 205.284 168.576 205.296C168.92 205.617 169.264 205.943 169.602 206.269C170.54 207.143 171.467 208.017 172.387 208.862C172.393 208.862 172.393 208.862 172.393 208.862C172.819 209.259 173.232 209.643 173.652 210.028C173.658 210.034 173.664 210.04 173.669 210.04C173.693 210.069 173.716 210.086 173.739 210.104C176.298 212.476 178.914 214.824 181.572 217.155C182.463 217.942 183.367 218.729 184.276 219.51C185.179 220.29 186.094 221.077 187.009 221.852C187.527 222.295 188.058 222.744 188.582 223.181L189.771 224.183H189.777C191.63 225.734 193.495 227.272 195.383 228.799C198.489 231.322 201.735 233.886 205.086 236.445C209.632 239.924 214.271 243.315 218.95 246.602C219.917 247.29 220.891 247.972 221.864 248.642C222.581 249.131 223.292 249.627 224.008 250.116C224.667 250.571 225.343 251.025 225.996 251.468C233.129 246.649 240.139 241.596 246.882 236.439C267.5 220.698 286.871 203.035 304.453 183.92C311.248 176.572 317.886 168.873 324.186 161.029C329.599 154.293 334.891 147.317 339.885 140.295C353.481 121.232 375.387 109.857 398.488 109.857H410.166Z" fill="white"/>
<path d="M132.799 167.113C118.574 150.062 105.625 131.944 94.1564 113.085C93.3114 111.687 92.4664 110.276 91.6331 108.866H91.6389C92.4722 110.271 93.3172 111.687 94.1622 113.079C105.631 131.944 118.586 150.062 132.799 167.113Z" fill="white"/>
<path d="M138.964 174.358C136.872 171.974 134.821 169.561 132.793 167.12C134.827 169.55 136.89 171.962 138.964 174.358Z" fill="white"/>
<path d="M151.304 187.236L149.503 185.36L143.739 179.334L138.978 174.357L138.972 174.363C136.886 171.974 134.835 169.561 132.807 167.119V167.114C131.029 164.981 129.275 162.836 127.533 160.668C124.059 156.338 120.662 151.944 117.358 147.498C113.645 142.509 110.044 137.445 106.547 132.317L64.1747 147.696C69.5769 156.047 75.2414 164.241 81.1506 172.248V172.254C83.7847 175.82 86.4595 179.34 89.1811 182.831C90.5447 184.579 91.92 186.31 93.3012 188.041C94.3385 189.334 95.3875 190.628 96.4365 191.91C97.4854 193.192 98.5461 194.469 99.6184 195.745C99.6184 195.751 99.6184 195.751 99.6184 195.751C101.04 197.446 102.474 199.137 103.913 200.815C104.636 201.66 105.37 202.499 106.087 203.332C107.55 205.005 109.012 206.66 110.487 208.309L121.181 219.265L125.406 223.595L121.565 228.992L125.429 223.618L151.467 187.411L151.304 187.236Z" fill="white"/>
<path d="M218.963 246.602L189.953 279.756C185.798 276.772 181.695 273.718 177.657 270.612C174.51 268.193 171.409 265.752 168.362 263.292C168.216 263.176 168.053 263.042 167.878 262.908C167.709 262.762 167.522 262.611 167.336 262.459C162.47 258.52 157.615 254.429 152.831 250.233C150.209 247.942 147.609 245.617 145.039 243.269C144.258 242.546 143.466 241.818 142.685 241.095C142.679 241.095 142.679 241.095 142.679 241.095C141.974 240.437 141.275 239.784 140.581 239.125C140.575 239.119 140.575 239.119 140.57 239.114L173.676 210.051C173.7 210.08 173.723 210.098 173.746 210.115C176.305 212.487 178.921 214.836 181.579 217.167C182.47 217.953 183.374 218.74 184.283 219.521C185.186 220.302 186.101 221.089 187.016 221.864C187.535 222.307 188.065 222.755 188.589 223.192L189.778 224.195H189.784C191.637 225.745 193.502 227.283 195.39 228.81C198.496 231.334 201.742 233.898 205.093 236.456C209.645 239.924 214.283 243.315 218.963 246.602Z" fill="white"/>
<path d="M452 0L449.745 8.45007C447.111 18.3396 444.115 28.2582 440.852 37.9729C438.742 44.2493 436.469 50.5489 434.132 56.6679C425.554 79.1043 403.724 94.1746 379.842 94.1746H368.857L373.869 84.3959C380.815 70.8175 387.098 56.7845 392.605 42.5417H305.033L301 47.3495L257.992 98.6444C259.711 100.381 261.413 102.083 263.109 103.72C265.929 106.471 268.738 109.134 271.437 111.646C275.644 115.539 279.951 119.414 284.281 123.132C285.487 124.164 286.699 125.201 287.923 126.221C295.254 132.398 299.607 141.075 300.167 150.668C300.732 160.178 297.311 169.619 290.79 176.554L286.682 180.936L281.874 177.352C273.092 170.785 264.385 163.809 256.005 156.6C248.639 150.301 241.296 143.61 234.163 136.705C232.968 135.539 231.721 134.327 230.416 133.039C230.189 132.812 229.961 132.585 229.716 132.357L206.33 159.77H231.307L173.748 210.121L140.583 239.131L71.0474 299.954L121.567 229.003L125.408 223.606L151.3 187.242L157.075 179.13L170.484 160.295H155.152L200.613 100.841C198.102 97.8577 195.561 94.7924 193.055 91.6687C180.479 76.0565 168.771 59.5351 158.235 42.5476H109.399C88.2622 42.5476 69.8702 28.9925 63.6114 8.80555L60.6567 0.0233333L69.9868 0.00583333H184.063L185.998 3.42665C191.435 13.1005 197.361 22.7453 203.62 32.0928C211.528 43.9346 220.113 55.5607 229.233 66.7032L265.959 22.9201L285.166 0.00583333H452V0Z" fill="white"/>
</svg>
