<svg width="32" height="32" viewBox="0 0 32 32" fill="none" xmlns="http://www.w3.org/2000/svg">
<path fill-rule="evenodd" clip-rule="evenodd" d="M17.1946 5.80665L11.2853 11.716C10.8906 12.1107 10.6666 12.6547 10.6666 13.22V23.876C10.6666 25.0493 11.6266 26.0093 12.7999 26.0093H22.3999C23.2533 26.0093 24.0213 25.4973 24.3626 24.7187L27.8399 16.6013C28.7359 14.4893 27.1893 12.1427 24.8959 12.1427H18.8693L19.8826 7.25732C19.9893 6.72399 19.8293 6.17999 19.4453 5.79599C18.8159 5.17732 17.8133 5.17732 17.1946 5.80665ZM6.39994 26.0093C7.57327 26.0093 8.53327 25.0493 8.53327 23.876V15.3427C8.53327 14.1693 7.57327 13.2093 6.39994 13.2093C5.2266 13.2093 4.2666 14.1693 4.2666 15.3427V23.876C4.2666 25.0493 5.2266 26.0093 6.39994 26.0093Z" fill="white"/>
</svg>
