<svg width="30" height="30" viewBox="0 0 30 30" fill="none" xmlns="http://www.w3.org/2000/svg">
<path fill-rule="evenodd" clip-rule="evenodd" d="M14.34 18.0213C14.73 18.4113 15.36 18.4113 15.75 18.0213L22.11 11.6613C22.5 11.2713 22.5 10.6413 22.11 10.2513L17.16 5.30126C16.78 4.90126 16.15 4.90126 15.76 5.29126L9.39 11.6613C9 12.0513 9 12.6813 9.39 13.0713L14.34 18.0213ZM16.46 7.41126L20 10.9513L15.05 15.9013L11.51 12.3613L16.46 7.41126ZM23.41 18.4113L21.29 16.2913C21.11 16.1113 20.85 16.0013 20.59 16.0013H20.32L18.32 18.0013H20.23L22 20.0013H8L9.78 18.0013H11.83L9.83 16.0013H9.41C9.14 16.0013 8.89 16.1113 8.7 16.2913L6.58 18.4113C6.21 18.7913 6 19.3013 6 19.8313V23.0013C6 24.1013 6.9 25.0013 8 25.0013H22C23.1 25.0013 24 24.1113 24 23.0013V19.8313C24 19.3013 23.79 18.7913 23.41 18.4113Z" fill="white"/>
</svg>
