<svg width="123" height="86" viewBox="0 0 123 86" fill="none" xmlns="http://www.w3.org/2000/svg">
<path d="M122.371 9.40569C122.492 10.043 122.762 12.3113 122.874 13.764C123.191 17.1194 122.958 20.5967 121.606 23.7272C121.391 24.2146 121.177 25.0768 119.134 24.5238C117.007 23.9521 115.888 23.1555 116.131 22.4431C116.69 20.6998 117.418 18.8534 117.063 16.9788C116.56 14.2889 116.541 11.6177 115.767 9.0402C115.646 8.60906 115.506 8.17792 115.366 7.75615L115.282 7.4843L115.254 7.41869L115.207 7.29684C115.151 7.1375 115.067 6.9407 114.881 6.91258C114.76 6.90321 114.648 6.97817 114.564 7.06252C114.526 7.10001 114.489 7.15627 114.461 7.20313L114.424 7.27813C114.414 7.29688 114.424 7.29685 114.405 7.3156L112.81 8.66527C111.868 9.47132 110.917 10.2586 109.891 10.9428C108.128 12.1238 106.067 12.8643 104.201 13.8952C103.763 14.1389 103.483 14.8044 103.017 15.0855C102.625 15.3199 101.991 15.7323 101.515 15.8354C101.31 15.8823 101.086 15.9103 100.974 16.079C100.452 16.8664 99.8362 16.3603 98.7263 14.1952C98.4838 13.7172 98.0268 13.1829 97.9988 12.7611C97.9988 12.7424 97.9895 12.7049 97.9895 12.6861C97.7003 11.1115 98.6237 11.3084 99.146 10.9054C101.73 8.93709 104.397 7.10003 107.037 5.20675L109.49 3.50091C109.9 3.21035 110.301 2.91979 110.693 2.61049L111.476 2.0013C111.84 1.72012 112.204 1.42955 112.586 1.16712C113.398 0.58601 114.303 -0.0700711 115.226 0.0611466H115.207C115.702 -0.0138349 116.215 -0.0232168 116.728 0.0517648C117.213 0.136119 117.698 0.28611 118.117 0.548545C118.929 1.03592 119.6 1.73884 120.132 2.61987C120.412 3.04164 120.598 3.5665 120.794 4.07263C120.981 4.56938 121.205 5.1224 121.363 5.57229C121.746 6.76263 122.053 7.92484 122.193 9.08705C122.221 9.17141 122.343 9.27448 122.371 9.40569Z" fill="#2C5DFE"/>
<path d="M85.643 42.4057C87.1819 41.1685 92.0973 36.2103 95.082 32.883L100.035 26.9126C101.602 24.86 103.103 22.7511 104.661 20.6891C105.043 20.1642 105.454 19.6675 105.818 19.1333L106.881 17.5118L109.045 14.2876L110.145 12.6848C110.518 12.16 110.882 11.6164 111.199 11.054L113.223 7.73604C114.081 6.35825 115.387 3.93077 117.253 4.9149C119.202 5.92716 119.444 8.19535 117.98 10.7728C117.075 12.31 116.245 13.8939 115.247 15.3748L112.244 19.8081L110.77 22.0388C110.304 22.798 109.726 23.4728 109.222 24.2039C108.177 25.6379 107.17 27.1 106.209 28.5903C100.37 37.1757 92.9928 44.552 85.2606 51.394C78.2373 57.4957 70.5238 62.7069 62.5864 67.5245L56.8782 70.7299C55.9175 71.2548 54.9941 71.8453 54.0148 72.3233L51.0767 73.7667L48.1294 75.2101C47.1407 75.6693 46.1707 76.2036 45.1447 76.5785C43.1114 77.3939 41.0781 78.1906 39.0261 78.9592C37.2726 79.6715 35.4352 80.1307 33.6164 80.6369L28.1414 82.0708L22.5824 83.1113C20.7263 83.4393 18.8982 83.8704 17.0234 84.0672C15.2699 84.3016 13.2273 85.0233 11.2966 85.2951C9.711 85.595 7.02474 85.7356 5.42048 85.7075C4.73027 85.6887 4.01211 85.6512 3.34989 85.7825C0.290596 86.4104 -0.558153 85.7168 0.33725 83.205C0.533119 82.652 0.234608 81.9771 0.934142 81.5554C0.962123 81.5366 1.01808 81.4992 1.04606 81.4804C3.12601 79.8215 5.38317 80.3088 7.631 80.0745C18.5717 78.6311 29.3445 75.9224 39.6417 71.939C41.2179 71.311 42.8222 70.7768 44.3705 70.0832L48.9968 67.9743C52.1214 66.6528 55.0221 64.872 57.9508 63.1943C59.5737 62.2945 60.9635 61.0292 62.6517 60.195L62.6237 60.2138C64.2466 59.1172 65.8509 57.983 67.4924 56.9427C73.5737 52.7343 79.6736 47.9824 84.9248 43.2117C85.13 43.0055 85.3445 42.6775 85.643 42.4057Z" fill="#2C5DFE"/>
</svg>
