<svg width="32" height="32" viewBox="0 0 32 32" fill="none" xmlns="http://www.w3.org/2000/svg">
<path fill-rule="evenodd" clip-rule="evenodd" d="M23.6366 17.0453C23.6793 16.7039 23.7113 16.3626 23.7113 15.9999C23.7113 15.6373 23.6793 15.2959 23.6366 14.9546L25.8873 13.1946C26.0899 13.0346 26.1433 12.7466 26.0153 12.5119L23.8819 8.82125C23.7539 8.58659 23.4659 8.50125 23.2313 8.58659L20.5753 9.65325C20.0206 9.22659 19.4233 8.87459 18.7726 8.60792L18.3673 5.78125C18.3353 5.52525 18.1113 5.33325 17.8446 5.33325H13.5779C13.3113 5.33325 13.0873 5.52525 13.0553 5.78125L12.6499 8.60792C11.9993 8.87459 11.4019 9.23725 10.8473 9.65325L8.19127 8.58659C7.94593 8.49059 7.6686 8.58659 7.5406 8.82125L5.40727 12.5119C5.2686 12.7466 5.3326 13.0346 5.53527 13.1946L7.78593 14.9546C7.74327 15.2959 7.71127 15.6479 7.71127 15.9999C7.71127 16.3519 7.74327 16.7039 7.78593 17.0453L5.53527 18.8053C5.3326 18.9653 5.27927 19.2533 5.40727 19.4879L7.5406 23.1786C7.6686 23.4133 7.9566 23.4986 8.19127 23.4133L10.8473 22.3466C11.4019 22.7733 11.9993 23.1253 12.6499 23.3919L13.0553 26.2186C13.0873 26.4746 13.3113 26.6666 13.5779 26.6666H17.8446C18.1113 26.6666 18.3353 26.4746 18.3673 26.2186L18.7726 23.3919C19.4233 23.1253 20.0206 22.7626 20.5753 22.3466L23.2313 23.4133C23.4766 23.5093 23.7539 23.4133 23.8819 23.1786L26.0153 19.4879C26.1433 19.2533 26.0899 18.9653 25.8873 18.8053L23.6366 17.0453ZM15.7113 19.7333C13.6526 19.7333 11.9779 18.0586 11.9779 15.9999C11.9779 13.9413 13.6526 12.2666 15.7113 12.2666C17.7699 12.2666 19.4446 13.9413 19.4446 15.9999C19.4446 18.0586 17.7699 19.7333 15.7113 19.7333Z" fill="white"/>
</svg>
