<svg width="24" height="24" viewBox="0 0 24 24" fill="none" xmlns="http://www.w3.org/2000/svg">
<path fill-rule="evenodd" clip-rule="evenodd" d="M15.2008 3.2002H6.40078C5.52078 3.2002 4.80078 3.9202 4.80078 4.8002V15.2002C4.80078 15.6402 5.16078 16.0002 5.60078 16.0002C6.04078 16.0002 6.40078 15.6402 6.40078 15.2002V5.6002C6.40078 5.1602 6.76078 4.8002 7.20078 4.8002H15.2008C15.6408 4.8002 16.0008 4.4402 16.0008 4.0002C16.0008 3.5602 15.6408 3.2002 15.2008 3.2002ZM15.6728 6.8722L19.5368 10.7362C19.8328 11.0322 20.0008 11.4402 20.0008 11.8642V19.2002C20.0008 20.0802 19.2808 20.8002 18.4008 20.8002H9.59278C8.71278 20.8002 8.00078 20.0802 8.00078 19.2002L8.00878 8.0002C8.00878 7.1202 8.72078 6.4002 9.60078 6.4002H14.5368C14.9608 6.4002 15.3688 6.5682 15.6728 6.8722ZM15.2008 12.0002H18.8008L14.4008 7.6002V11.2002C14.4008 11.6402 14.7608 12.0002 15.2008 12.0002Z" fill="#6B7A99"/>
</svg>
