<svg width="130" height="112" viewBox="0 0 130 112" fill="none" xmlns="http://www.w3.org/2000/svg">
<path d="M104.353 57.1462L98.8705 65.8545L90.3215 60.4726L84.8392 69.1809L93.3883 74.5629L98.8705 65.8545L107.42 71.2365L112.902 62.5282L104.353 57.1462ZM90.9728 97.3616L96.4551 88.6532L87.906 83.2713L82.4237 91.9796L65.3256 81.2156L70.8079 72.5073L62.2588 67.1253L67.7411 58.417L76.2902 63.7989L81.7724 55.0906L73.2234 49.7086L78.7056 41.0002L70.1566 35.6183L64.6743 44.3266L73.2234 49.7086L67.7411 58.417L59.1921 53.035L53.7098 61.7433L45.1607 56.3613L39.6785 65.0697L31.1294 59.6877L25.6471 68.3961L17.0981 63.0141L11.6158 71.7224L3.06677 66.3405L8.54904 57.6321L-1.47054e-05 52.2501L10.9645 34.8334L19.5136 40.2154L14.0313 48.9238L22.5804 54.3057L28.0626 45.5974L36.6117 50.9794L42.0939 42.271L33.5449 36.889L28.0626 45.5974L19.5136 40.2154L24.9958 31.507L16.4468 26.1251L21.9291 17.4167L30.4781 22.7987L35.9604 14.0903L27.4113 8.70836L32.8936 7.12644e-06L49.9917 10.764L44.5094 19.4723L53.0585 24.8543L47.5762 33.5627L56.1253 38.9446L61.6075 30.2363L53.0585 24.8543L58.5407 16.146L92.737 37.6739L87.2547 46.3822L95.8038 51.7642L101.286 43.0559L126.933 59.2018L121.451 67.9102L130 73.2921L119.035 90.7088L110.486 85.3269L105.004 94.0352L113.553 99.4172L108.071 108.126L99.5219 102.744L94.0396 111.452L76.9415 100.688L82.4237 91.9796L90.9728 97.3616Z" fill="white"/>
</svg>
