<svg width="45" height="34" viewBox="0 0 45 34" fill="none" xmlns="http://www.w3.org/2000/svg">
<path fill-rule="evenodd" clip-rule="evenodd" d="M12.5187 2.4412C13.8924 2.36225 15.2645 2.36857 16.6382 2.36857C16.6477 2.36857 23.599 2.36857 23.599 2.36857C24.9995 2.36857 26.3717 2.36225 27.7446 2.4412C28.9927 2.51225 30.2085 2.66383 31.4188 3.00252C33.9664 3.71463 36.1912 5.202 37.7993 7.31069C39.398 9.40596 40.2633 11.971 40.2633 14.6047C40.2633 17.2415 39.398 19.8049 37.7993 21.9002C36.1912 24.0081 33.9664 25.4963 31.4188 26.2084C30.2085 26.5471 28.9927 26.6978 27.7446 26.7697C26.3717 26.8486 24.9995 26.8415 23.6259 26.8415C23.6164 26.8415 16.6635 26.8423 16.6635 26.8423C15.2645 26.8415 13.8924 26.8486 12.5187 26.7697C11.2713 26.6978 10.0556 26.5471 8.84529 26.2084C6.29765 25.4963 4.07291 24.0081 2.46474 21.9002C0.866055 19.8049 0 17.2415 0 14.6054C0 11.971 0.866055 9.40596 2.46474 7.31069C4.07291 5.202 6.29765 3.71463 8.84529 3.00252C10.0556 2.66383 11.2713 2.51225 12.5187 2.4412Z" fill="#2C5DFE"/>
<g filter="url(#filter0_dd_131_8584)">
<path fill-rule="evenodd" clip-rule="evenodd" d="M28.0264 25.2632C33.9126 25.2632 38.6843 20.4915 38.6843 14.6053C38.6843 8.7191 33.9126 3.94738 28.0264 3.94738C22.1402 3.94738 17.3684 8.7191 17.3684 14.6053C17.3684 20.4915 22.1402 25.2632 28.0264 25.2632Z" fill="white"/>
</g>
<defs>
<filter id="filter0_dd_131_8584" x="11.0526" y="3.89e-06" width="33.9476" height="33.9475" filterUnits="userSpaceOnUse" color-interpolation-filters="sRGB">
<feFlood flood-opacity="0" result="BackgroundImageFix"/>
<feColorMatrix in="SourceAlpha" type="matrix" values="0 0 0 0 0 0 0 0 0 0 0 0 0 0 0 0 0 0 127 0" result="hardAlpha"/>
<feOffset dy="2.32258"/>
<feGaussianBlur stdDeviation="0.387097"/>
<feColorMatrix type="matrix" values="0 0 0 0 0 0 0 0 0 0 0 0 0 0 0 0 0 0 0.06 0"/>
<feBlend mode="normal" in2="BackgroundImageFix" result="effect1_dropShadow_131_8584"/>
<feColorMatrix in="SourceAlpha" type="matrix" values="0 0 0 0 0 0 0 0 0 0 0 0 0 0 0 0 0 0 127 0" result="hardAlpha"/>
<feOffset dy="2.32258"/>
<feGaussianBlur stdDeviation="3.09677"/>
<feColorMatrix type="matrix" values="0 0 0 0 0 0 0 0 0 0 0 0 0 0 0 0 0 0 0.15 0"/>
<feBlend mode="normal" in2="effect1_dropShadow_131_8584" result="effect2_dropShadow_131_8584"/>
<feBlend mode="normal" in="SourceGraphic" in2="effect2_dropShadow_131_8584" result="shape"/>
</filter>
</defs>
</svg>
