<svg width="82" height="24" viewBox="0 0 82 24" fill="none" xmlns="http://www.w3.org/2000/svg">
<path d="M8.25362 16.6592L8 16.5099L7.74638 16.6592L3.75201 19.0103L4.65148 14.2494L4.70136 13.9854L4.50872 13.7981L1.09502 10.479L5.68844 9.90614L5.97032 9.87099L6.08444 9.61086L8 5.24455L9.91556 9.61086L10.0297 9.87099L10.3116 9.90614L14.905 10.479L11.4913 13.7981L11.2986 13.9854L11.3485 14.2494L12.248 19.0103L8.25362 16.6592Z" fill="#FACC14" stroke="#E7B008"/>
<path d="M24.7423 16.6527L24.5 16.5185L24.2577 16.6527L19.9501 19.039L20.9104 14.255L20.9659 13.9783L20.7577 13.7878L17.144 10.4808L22.0365 9.90658L22.3136 9.87406L22.4314 9.62123L24.5 5.18347L26.5686 9.62123L26.6864 9.87406L26.9635 9.90658L31.856 10.4808L28.2423 13.7878L28.0341 13.9783L28.0896 14.255L29.0499 19.039L24.7423 16.6527Z" fill="#FACC14" stroke="#E7B008"/>
<path d="M41.2536 16.6592L41 16.5099L40.7464 16.6592L36.752 19.0103L37.6515 14.2494L37.7014 13.9854L37.5087 13.7981L34.095 10.479L38.6884 9.90614L38.9703 9.87099L39.0844 9.61086L41 5.24455L42.9156 9.61086L43.0297 9.87099L43.3116 9.90614L47.905 10.479L44.4913 13.7981L44.2986 13.9854L44.3485 14.2494L45.248 19.0103L41.2536 16.6592Z" fill="#FACC14" stroke="#E7B008"/>
<path d="M57.7423 16.6527L57.5 16.5185L57.2577 16.6527L52.9501 19.039L53.9104 14.255L53.9659 13.9783L53.7577 13.7878L50.144 10.4808L55.0365 9.90658L55.3136 9.87406L55.4314 9.62123L57.5 5.18347L59.5686 9.62123L59.6864 9.87406L59.9635 9.90658L64.856 10.4808L61.2423 13.7878L61.0341 13.9783L61.0896 14.255L62.0499 19.039L57.7423 16.6527Z" fill="#FACC14" stroke="#E7B008"/>
<path d="M74.2536 16.6592L74 16.5099L73.7464 16.6592L69.752 19.0103L70.6515 14.2494L70.7014 13.9854L70.5087 13.7981L67.095 10.479L71.6884 9.90614L71.9703 9.87099L72.0844 9.61086L74 5.24455L75.9156 9.61086L76.0297 9.87099L76.3116 9.90614L80.905 10.479L77.4913 13.7981L77.2986 13.9854L77.3485 14.2494L78.248 19.0103L74.2536 16.6592Z" fill="#FACC14" stroke="#E7B008"/>
</svg>
