<svg width="40" height="40" viewBox="0 0 40 40" fill="none" xmlns="http://www.w3.org/2000/svg">
<path d="M26.6667 16.5563C28.4667 16.5563 30.15 16.9729 31.6667 17.6896V10.5229C31.6667 9.13959 30.8 7.88959 29.5 7.40626L19.5 3.65626C18.75 3.37292 17.9167 3.37292 17.1667 3.65626L7.16667 7.40626C5.86667 7.90626 5 9.13959 5 10.5396V18.3729C5 26.7896 10.6833 34.6396 18.3333 36.5563C18.3833 36.5396 18.4167 36.5229 18.4667 36.5229C16.3333 34.4063 15 31.4729 15 28.2229C15 21.7729 20.2167 16.5563 26.6667 16.5563Z" fill="white"/>
<path d="M26.6667 19.8896C22.0667 19.8896 18.3333 23.6229 18.3333 28.2229C18.3333 32.8229 22.0667 36.5563 26.6667 36.5563C31.2667 36.5563 35 32.8229 35 28.2229C35 23.6229 31.2667 19.8896 26.6667 19.8896ZM30.8333 29.0563H27.5V32.3896C27.5 32.8563 27.1333 33.2229 26.6667 33.2229C26.2 33.2229 25.8333 32.8563 25.8333 32.3896V29.0563H22.5C22.0333 29.0563 21.6667 28.6896 21.6667 28.2229C21.6667 27.7563 22.0333 27.3896 22.5 27.3896H25.8333V24.0563C25.8333 23.5896 26.2 23.2229 26.6667 23.2229C27.1333 23.2229 27.5 23.5896 27.5 24.0563V27.3896H30.8333C31.3 27.3896 31.6667 27.7563 31.6667 28.2229C31.6667 28.6896 31.3 29.0563 30.8333 29.0563Z" fill="white"/>
</svg>
