<svg width="20" height="7" viewBox="0 0 20 7" fill="none" xmlns="http://www.w3.org/2000/svg">
<path d="M18.6553 0.0876465H17.398C17.0178 0.0876465 16.7254 0.204606 16.55 0.584723L14.1523 6.05256H15.8482C15.8482 6.05256 16.1406 5.32157 16.1991 5.14613C16.3746 5.14613 18.0412 5.14613 18.2752 5.14613C18.3336 5.3508 18.4798 6.02332 18.4798 6.02332H20.0003L18.6553 0.0876465ZM16.667 3.91806C16.8132 3.56718 17.3102 2.25139 17.3102 2.25139C17.3102 2.28063 17.4564 1.90051 17.5149 1.69583L17.6319 2.22215C17.6319 2.22215 17.9535 3.6549 18.012 3.9473H16.667V3.91806Z" fill="#3362AB"/>
<path d="M14.2692 4.09357C14.2692 5.32164 13.1581 6.14035 11.433 6.14035C10.702 6.14035 10.0002 5.99415 9.62012 5.81871L9.85404 4.47368L10.0587 4.5614C10.585 4.79532 10.9359 4.88304 11.5792 4.88304C12.047 4.88304 12.5441 4.7076 12.5441 4.29825C12.5441 4.03509 12.3394 3.85965 11.6961 3.56725C11.0821 3.27485 10.2634 2.80702 10.2634 1.95906C10.2634 0.789474 11.4037 0 13.0119 0C13.626 0 14.1523 0.116959 14.4739 0.263158L14.24 1.54971L14.123 1.43275C13.8306 1.31579 13.4505 1.19883 12.895 1.19883C12.2809 1.22807 11.9885 1.49123 11.9885 1.72515C11.9885 1.9883 12.3394 2.19298 12.895 2.45614C13.8306 2.89474 14.2692 3.39181 14.2692 4.09357Z" fill="#3362AB"/>
<path d="M0 0.146225L0.0292398 0.0292664H2.54386C2.89474 0.0292664 3.15789 0.146225 3.24561 0.526342L3.80117 3.15792C3.24561 1.75441 1.95906 0.614062 0 0.146225Z" fill="#F9B50B"/>
<path d="M7.33939 0.0877114L4.79553 6.02338H3.07039L1.6084 1.05262C2.66103 1.72514 3.53822 2.77777 3.85986 3.50876L4.0353 4.1228L5.61425 0.0584717H7.33939V0.0877114Z" fill="#3362AB"/>
<path d="M8.01167 0.0584717H9.61986L8.59647 6.02338H6.98828L8.01167 0.0584717Z" fill="#3362AB"/>
</svg>
