<svg width="28" height="19" viewBox="0 0 28 19" fill="none" xmlns="http://www.w3.org/2000/svg">
<path d="M5.02539 10.6704C5.18856 10.8913 5.35426 11.1094 5.52285 11.3256C5.35354 11.1097 5.18784 10.891 5.02539 10.6704Z" fill="url(#paint0_linear_102_4210)"/>
<path d="M5.7793 11.6484C5.90818 11.8091 6.0385 11.9683 6.17063 12.126C6.03814 11.9683 5.90818 11.8091 5.7793 11.6484Z" fill="url(#paint1_linear_102_4210)"/>
<path d="M6.43598 12.4397C6.34609 12.3357 6.25765 12.2314 6.16992 12.126C6.25801 12.2314 6.34681 12.3357 6.43598 12.4397Z" fill="url(#paint2_linear_102_4210)"/>
<path d="M10.3669 16.258C10.3784 16.2674 10.39 16.2768 10.4005 16.2858C10.3893 16.2775 10.3781 16.2678 10.3669 16.258C9.89975 15.8804 9.43442 15.4804 8.98533 15.0696C8.93695 15.0248 8.88822 14.9797 8.83984 14.9346C8.88822 14.9793 8.93731 15.0245 8.98569 15.0692C9.43478 15.48 9.90011 15.88 10.3669 16.258Z" fill="url(#paint3_linear_102_4210)"/>
<path d="M10.4414 12.7158C10.5212 12.7913 10.6006 12.866 10.6789 12.9386C10.6006 12.8664 10.5212 12.7916 10.4414 12.7158Z" fill="url(#paint4_linear_102_4210)"/>
<path d="M10.758 13.0103C10.9714 13.2074 11.1912 13.4038 11.4158 13.598C11.1909 13.4042 10.9714 13.2081 10.758 13.0103C10.7317 12.9872 10.706 12.963 10.6797 12.9385C10.706 12.963 10.7324 12.9869 10.758 13.0103Z" fill="url(#paint5_linear_102_4210)"/>
<path d="M13.8777 15.4938C13.4817 15.2227 13.0878 14.94 12.7052 14.6469C12.4976 14.4887 12.2965 14.3295 12.1041 14.1732C11.8702 13.9841 11.6406 13.792 11.416 13.5981C11.6409 13.792 11.8709 13.9841 12.1045 14.1729C12.2969 14.3292 12.4979 14.488 12.7055 14.6465C13.0882 14.9396 13.4817 15.2227 13.8777 15.4938Z" fill="url(#paint6_linear_102_4210)"/>
<path d="M25.4085 6.80529L25.0638 7.42369C24.275 8.83918 23.3667 10.2002 22.3613 11.4709C21.957 11.9835 21.5353 12.4835 21.1086 12.9572C20.0242 14.1636 18.8336 15.2921 17.5704 16.3102C17.0672 16.717 16.5387 17.1156 16.0004 17.495C15.4156 17.9069 14.8149 18.3004 14.2156 18.6621L14.0001 18.7921L13.7846 18.6621C13.3099 18.3755 12.8395 18.0733 12.3842 17.7618C12.2962 17.7018 12.2081 17.6412 12.1207 17.5798C12.0799 17.5513 12.0388 17.5228 11.9983 17.4939C11.9211 17.4394 11.8438 17.3845 11.7666 17.3293C11.5092 17.1444 11.255 16.9553 11.0048 16.7629C10.8099 16.613 10.6178 16.4618 10.429 16.3094C10.42 16.3022 10.4099 16.2939 10.3991 16.2856C10.3886 16.2766 10.3771 16.2672 10.3655 16.2578C10.0641 16.0138 9.76335 15.7604 9.46697 15.5004C9.30452 15.3586 9.14351 15.2145 8.98431 15.069C8.93593 15.0243 8.88684 14.9791 8.83846 14.9344C8.8381 14.9344 8.8381 14.9344 8.8381 14.9344C8.79442 14.8936 8.7511 14.8532 8.70814 14.8124C8.70778 14.812 8.70778 14.812 8.70742 14.8116C8.70453 14.8091 8.70128 14.8059 8.69839 14.803C8.69695 14.8015 8.6955 14.8004 8.69406 14.799L8.33017 14.4264L7.76917 13.8521L7.76772 13.8506L7.506 13.5824L6.84355 12.9037C6.75222 12.8016 6.66125 12.699 6.57099 12.5954C6.52659 12.5438 6.48111 12.4918 6.43634 12.4395C6.34717 12.3355 6.25837 12.2312 6.17028 12.1258C6.17028 12.1258 6.17028 12.1258 6.17028 12.1254C6.10422 12.0463 6.03851 11.9673 5.97317 11.8879C5.90783 11.8081 5.84321 11.7283 5.77895 11.6482C5.69339 11.5409 5.6082 11.4334 5.52372 11.3254C5.35513 11.1092 5.18943 10.8908 5.02626 10.6702V10.6698C4.6602 10.1738 4.30931 9.66661 3.97465 9.14893C3.88043 9.0038 3.78729 8.8576 3.69596 8.71067C3.46022 8.33378 3.23351 7.95184 3.01547 7.5652C2.98803 7.51755 2.96204 7.47098 2.93568 7.42369C2.60537 6.83128 2.28913 6.21541 1.99707 5.59484C1.49853 4.53962 1.05919 3.44795 0.691684 2.35158C0.490605 1.75592 0.303966 1.14005 0.14007 0.523456L0 0H0.541506C1.84437 0 3.01547 0.821287 3.45806 2.04292L3.47033 2.07758C3.85805 3.1494 4.31905 4.20931 4.83962 5.2277C5.09738 5.73275 5.37788 6.24176 5.67607 6.74356C5.72769 6.83092 5.78004 6.91864 5.83238 7.00492C5.96234 7.21936 6.09627 7.43235 6.23237 7.64318C6.35223 7.82873 6.47461 8.01321 6.59952 8.19588C6.81576 8.51392 7.03886 8.82727 7.26918 9.13629C7.47387 9.41174 7.68433 9.6843 7.89949 9.95216C8.00743 10.0861 8.11609 10.2193 8.2262 10.3514V10.3518C8.35219 10.5027 8.47926 10.6521 8.60814 10.8005L8.6085 10.8002L8.90344 11.1085L9.26048 11.4817L9.37203 11.598L9.38213 11.6088L10.4413 12.7153L10.441 12.7156C10.4417 12.7164 10.442 12.7167 10.4428 12.7175C10.4641 12.7373 10.4854 12.7575 10.5063 12.7777C10.5644 12.8319 10.6218 12.886 10.6789 12.9384C10.6792 12.9384 10.6792 12.9384 10.6792 12.9384C10.7056 12.9629 10.7312 12.9868 10.7572 13.0106C10.7576 13.0109 10.7579 13.0113 10.7583 13.0113C10.7597 13.0131 10.7612 13.0142 10.7626 13.0153C10.9211 13.1622 11.0832 13.3077 11.2478 13.4521C11.303 13.5008 11.359 13.5496 11.4153 13.5979C11.4713 13.6463 11.5279 13.6951 11.5846 13.7431C11.6167 13.7705 11.6496 13.7983 11.6821 13.8254L11.7557 13.8875H11.7561C11.8709 13.9835 11.9864 14.0788 12.1034 14.1734C12.2958 14.3297 12.4969 14.4885 12.7045 14.647C12.986 14.8625 13.2734 15.0726 13.5633 15.2762C13.6232 15.3188 13.6835 15.3611 13.7438 15.4026C13.7882 15.4329 13.8322 15.4636 13.8766 15.4939C13.9174 15.5221 13.9593 15.5502 13.9997 15.5777C14.4416 15.2791 14.8759 14.9661 15.2936 14.6467C16.5708 13.6716 17.7708 12.5774 18.8599 11.3933C19.2809 10.9381 19.692 10.4612 20.0823 9.97527C20.4177 9.55795 20.7455 9.12582 21.0548 8.69081C21.8971 7.50997 23.2541 6.80529 24.6851 6.80529H25.4085Z" fill="url(#paint7_linear_102_4210)"/>
<path d="M8.22591 10.3524C7.3447 9.29608 6.54255 8.17372 5.83209 7.00551C5.77975 6.91887 5.7274 6.8315 5.67578 6.74414H5.67614C5.72777 6.83114 5.78011 6.91887 5.83246 7.00515C6.54291 8.17372 7.34542 9.29608 8.22591 10.3524Z" fill="url(#paint8_linear_102_4210)"/>
<path d="M8.60887 10.8009C8.47927 10.6533 8.35219 10.5038 8.22656 10.3525C8.35255 10.5031 8.48035 10.6525 8.60887 10.8009Z" fill="url(#paint9_linear_102_4210)"/>
<path d="M9.37198 11.5989L9.26043 11.4826L8.9034 11.1094L8.60846 10.8011L8.6081 10.8014C8.47886 10.6534 8.35178 10.504 8.22615 10.3527V10.3523C8.11605 10.2202 8.00738 10.0874 7.89944 9.95306C7.68429 9.68484 7.47382 9.41264 7.26913 9.13719C7.03917 8.82817 6.81607 8.51446 6.59947 8.19678L3.97461 9.14947C4.30926 9.66679 4.66016 10.1744 5.02621 10.6704V10.6707C5.18939 10.8917 5.35509 11.1097 5.52368 11.326C5.60815 11.4343 5.69335 11.5415 5.77891 11.6487C5.84317 11.7288 5.90815 11.809 5.97313 11.8884C6.03811 11.9678 6.10381 12.0469 6.17024 12.1259C6.17024 12.1263 6.17024 12.1263 6.17024 12.1263C6.25832 12.2314 6.34713 12.3361 6.4363 12.44C6.48106 12.4924 6.52655 12.5443 6.57095 12.596C6.66156 12.6996 6.75217 12.8021 6.84351 12.9043L7.50595 13.583L7.76768 13.8512L7.52978 14.1855L7.76912 13.8526L9.38209 11.6097L9.37198 11.5989Z" fill="url(#paint10_linear_102_4210)"/>
<path d="M13.5633 15.2759L11.7662 17.3297C11.5088 17.1449 11.2546 16.9557 11.0045 16.7633C10.8095 16.6135 10.6175 16.4622 10.4287 16.3099C10.4196 16.3026 10.4095 16.2943 10.3987 16.286C10.3882 16.277 10.3767 16.2676 10.3651 16.2582C10.0637 16.0142 9.76297 15.7608 9.46659 15.5008C9.30413 15.359 9.14313 15.2149 8.98392 15.0694C8.93555 15.0247 8.88645 14.9796 8.83808 14.9348C8.83771 14.9348 8.83771 14.9348 8.83771 14.9348C8.79403 14.894 8.75071 14.8536 8.70775 14.8128C8.70739 14.8124 8.70739 14.8124 8.70703 14.812L10.7579 13.0117C10.7593 13.0135 10.7608 13.0146 10.7622 13.0157C10.9207 13.1626 11.0828 13.3081 11.2474 13.4525C11.3026 13.5012 11.3586 13.55 11.4149 13.5984C11.4709 13.6467 11.5276 13.6955 11.5842 13.7435C11.6164 13.7709 11.6492 13.7987 11.6817 13.8258L11.7553 13.8879H11.7557C11.8705 13.9839 11.986 14.0792 12.103 14.1738C12.2954 14.3301 12.4965 14.4889 12.7041 14.6474C12.986 14.8622 13.2734 15.0723 13.5633 15.2759Z" fill="url(#paint11_linear_102_4210)"/>
<path d="M28.0003 0L27.8606 0.523456C27.6974 1.13608 27.5119 1.75051 27.3097 2.3523C27.179 2.7411 27.0382 3.13135 26.8935 3.5104C26.3621 4.90027 25.0098 5.83382 23.5304 5.83382H22.8499L23.1603 5.22806C23.5907 4.38692 23.9798 3.51762 24.321 2.63533H18.8962L18.6463 2.93316L15.9821 6.11072C16.0886 6.2183 16.194 6.32371 16.2991 6.42515C16.4738 6.59554 16.6478 6.76053 16.815 6.91612C17.0756 7.15727 17.3424 7.39734 17.6106 7.62766C17.6853 7.69155 17.7604 7.75581 17.8362 7.81899C18.2904 8.20165 18.5601 8.73919 18.5947 9.3334C18.6297 9.92256 18.4178 10.5074 18.0139 10.937L17.7594 11.2085L17.4615 10.9864C16.9175 10.5796 16.3782 10.1475 15.859 9.7009C15.4027 9.31065 14.9479 8.89622 14.506 8.46844C14.432 8.39623 14.3547 8.32114 14.2739 8.24136C14.2598 8.22728 14.2457 8.2132 14.2305 8.19912L12.7818 9.89729H14.3291L10.7635 13.0164L8.70898 14.8134L4.40148 18.5812L7.53103 14.186L7.76893 13.8517L9.37287 11.5991L9.73062 11.0965L10.5613 9.92978H9.61149L12.4277 6.24682C12.2721 6.06198 12.1147 5.87209 11.9595 5.6786C11.1804 4.71147 10.4552 3.68802 9.80246 2.63569H6.77725C5.46789 2.63569 4.32856 1.79599 3.94084 0.545477L3.75781 0.00144543L4.33578 0.000361357H11.4024L11.5223 0.212271C11.8591 0.811537 12.2262 1.409 12.614 1.98805C13.1038 2.72161 13.6356 3.44182 14.2006 4.13206L16.4756 1.41983L17.6655 0.000361357H28.0003V0Z" fill="url(#paint12_linear_102_4210)"/>
<defs>
<linearGradient id="paint0_linear_102_4210" x1="5.27409" y1="11.2567" x2="5.27409" y2="10.6689" gradientUnits="userSpaceOnUse">
<stop stop-color="#2C5DFE"/>
<stop offset="1" stop-color="#2DADFC"/>
</linearGradient>
<linearGradient id="paint1_linear_102_4210" x1="5.97493" y1="12.0754" x2="5.97493" y2="11.6473" gradientUnits="userSpaceOnUse">
<stop stop-color="#2C5DFE"/>
<stop offset="1" stop-color="#2DADFC"/>
</linearGradient>
<linearGradient id="paint2_linear_102_4210" x1="6.30291" y1="12.4066" x2="6.30291" y2="12.1254" gradientUnits="userSpaceOnUse">
<stop stop-color="#2C5DFE"/>
<stop offset="1" stop-color="#2DADFC"/>
</linearGradient>
<linearGradient id="paint3_linear_102_4210" x1="9.61993" y1="16.1432" x2="9.61993" y2="14.9312" gradientUnits="userSpaceOnUse">
<stop stop-color="#2C5DFE"/>
<stop offset="1" stop-color="#2DADFC"/>
</linearGradient>
<linearGradient id="paint4_linear_102_4210" x1="10.4187" y1="12.716" x2="10.591" y2="12.8515" gradientUnits="userSpaceOnUse">
<stop stop-color="#072FA0"/>
<stop offset="1" stop-color="#072FA0" stop-opacity="0"/>
</linearGradient>
<linearGradient id="paint5_linear_102_4210" x1="10.6175" y1="12.93" x2="11.1411" y2="13.3417" gradientUnits="userSpaceOnUse">
<stop stop-color="#072FA0"/>
<stop offset="1" stop-color="#072FA0" stop-opacity="0"/>
</linearGradient>
<linearGradient id="paint6_linear_102_4210" x1="11.2819" y1="13.492" x2="12.9314" y2="14.789" gradientUnits="userSpaceOnUse">
<stop stop-color="#072FA0"/>
<stop offset="1" stop-color="#072FA0" stop-opacity="0"/>
</linearGradient>
<linearGradient id="paint7_linear_102_4210" x1="12.7044" y1="8.07336" x2="12.7044" y2="20.6687" gradientUnits="userSpaceOnUse">
<stop stop-color="#2C5DFE"/>
<stop offset="1" stop-color="#2DADFC"/>
</linearGradient>
<linearGradient id="paint8_linear_102_4210" x1="8.75663" y1="11.5545" x2="6.69051" y2="8.11578" gradientUnits="userSpaceOnUse">
<stop stop-color="#072FA0"/>
<stop offset="1" stop-color="#072FA0" stop-opacity="0"/>
</linearGradient>
<linearGradient id="paint9_linear_102_4210" x1="8.65609" y1="10.9733" x2="8.38351" y2="10.5196" gradientUnits="userSpaceOnUse">
<stop stop-color="#072FA0"/>
<stop offset="1" stop-color="#072FA0" stop-opacity="0"/>
</linearGradient>
<linearGradient id="paint10_linear_102_4210" x1="9.33058" y1="13.457" x2="5.7826" y2="9.909" gradientUnits="userSpaceOnUse">
<stop stop-color="#072FA0"/>
<stop offset="1" stop-color="#072FA0" stop-opacity="0"/>
</linearGradient>
<linearGradient id="paint11_linear_102_4210" x1="8.41028" y1="12.3186" x2="11.7342" y2="15.6425" gradientUnits="userSpaceOnUse">
<stop stop-color="#072FA0"/>
<stop offset="1" stop-color="#072FA0" stop-opacity="0"/>
</linearGradient>
<linearGradient id="paint12_linear_102_4210" x1="15.8795" y1="-1.15097" x2="15.8795" y2="11.1238" gradientUnits="userSpaceOnUse">
<stop stop-color="#2C5DFE"/>
<stop offset="1" stop-color="#2DADFC"/>
</linearGradient>
</defs>
</svg>
