<svg width="32" height="32" viewBox="0 0 32 32" fill="none" xmlns="http://www.w3.org/2000/svg">
<path fill-rule="evenodd" clip-rule="evenodd" d="M16.5335 5.33334C11.5308 5.33334 7.4668 9.39734 7.4668 14.4C7.4668 19.4027 11.5308 23.4667 16.5335 23.4667H17.0668V26.6667C22.2508 24.1707 25.6001 19.2 25.6001 14.4C25.6001 9.39734 21.5361 5.33334 16.5335 5.33334ZM17.6001 20.8H15.4668V18.6667H17.6001V20.8ZM18.0268 15.7013C18.0161 15.712 18.0055 15.7333 17.9948 15.7547C17.9415 15.84 17.8881 15.9253 17.8455 16.0107C17.8241 16.0427 17.8135 16.0853 17.8028 16.128C17.7708 16.2027 17.7388 16.2773 17.7175 16.352C17.6428 16.576 17.6108 16.8107 17.6108 17.0773H15.4668C15.4668 16.5333 15.5521 16.0747 15.6801 15.6907C15.6801 15.68 15.6801 15.6693 15.6908 15.6587C15.7015 15.616 15.7335 15.5947 15.7441 15.552C15.8081 15.3813 15.8828 15.232 15.9788 15.0827C16.0108 15.0293 16.0535 14.976 16.0855 14.9227C16.1175 14.88 16.1388 14.8267 16.1708 14.7947L16.1815 14.8053C17.0775 13.632 18.5388 13.2693 18.6561 11.9467C18.7521 10.9013 18.0055 9.888 16.9815 9.67467C15.8721 9.44 14.8695 10.0907 14.5281 11.04C14.3788 11.424 14.0268 11.7333 13.5895 11.7333H13.3761C12.7361 11.7333 12.2668 11.104 12.4481 10.4853C13.0348 8.544 14.9761 7.18934 17.1735 7.50934C18.9761 7.776 20.4161 9.25867 20.7255 11.0613C21.1948 13.664 18.9868 14.2933 18.0268 15.7013Z" fill="white"/>
</svg>
