<svg width="30" height="30" viewBox="0 0 30 30" fill="none" xmlns="http://www.w3.org/2000/svg">
<path fill-rule="evenodd" clip-rule="evenodd" d="M17.59 5.59C17.21 5.21 16.7 5 16.17 5H9C7.9 5 7 5.9 7 7V23C7 24.1 7.89 25 8.99 25H21C22.1 25 23 24.1 23 23V11.83C23 11.3 22.79 10.79 22.41 10.42L17.59 5.59ZM18 19H16V21C16 21.55 15.55 22 15 22C14.45 22 14 21.55 14 21V19H12C11.45 19 11 18.55 11 18C11 17.45 11.45 17 12 17H14V15C14 14.45 14.45 14 15 14C15.55 14 16 14.45 16 15V17H18C18.55 17 19 17.45 19 18C19 18.55 18.55 19 18 19ZM16 11V6.5L21.5 12H17C16.45 12 16 11.55 16 11Z" fill="#6B7A99"/>
</svg>
