<svg width="32" height="32" viewBox="0 0 32 32" fill="none" xmlns="http://www.w3.org/2000/svg">
<path fill-rule="evenodd" clip-rule="evenodd" d="M22.0093 9.97646C20.2706 8.23779 17.8066 7.23512 15.0973 7.51246C11.1826 7.90712 7.96125 11.0858 7.52392 15.0005C6.93725 20.1738 10.9372 24.5365 15.9826 24.5365C19.3853 24.5365 22.3079 22.5418 23.6733 19.6725C24.0146 18.9578 23.5026 18.1365 22.7133 18.1365C22.3186 18.1365 21.9453 18.3498 21.7746 18.7018C20.5693 21.2938 17.6786 22.9365 14.5212 22.2325C12.1532 21.7098 10.2439 19.7791 9.74258 17.4111C8.84658 13.2725 11.9932 9.60312 15.9826 9.60312C17.7533 9.60312 19.3319 10.3391 20.4839 11.5018L18.8733 13.1125C18.2013 13.7845 18.6706 14.9365 19.6199 14.9365H23.4493C24.0359 14.9365 24.5159 14.4565 24.5159 13.8698V10.0405C24.5159 9.09112 23.3639 8.61112 22.6919 9.28312L22.0093 9.97646Z" fill="#6B7A99"/>
</svg>
