<svg width="25" height="18" viewBox="0 0 25 18" fill="none" xmlns="http://www.w3.org/2000/svg">
<g clip-path="url(#clip0_131_8384)">
<rect width="25" height="18" rx="3" fill="white"/>
<path fill-rule="evenodd" clip-rule="evenodd" d="M0 0H10.7143V8.4H0V0Z" fill="#1A47B8"/>
<path fill-rule="evenodd" clip-rule="evenodd" d="M10.7143 0V1.2H25V0H10.7143ZM10.7143 2.4V3.6H25V2.4H10.7143ZM10.7143 4.8V6H25V4.8H10.7143ZM10.7143 7.2V8.4H25V7.2H10.7143ZM0 9.6V10.8H25V9.6H0ZM0 12V13.2H25V12H0ZM0 14.4V15.6H25V14.4H0ZM0 16.8V18H25V16.8H0Z" fill="#F93939"/>
<path fill-rule="evenodd" clip-rule="evenodd" d="M1.19043 1.20001V2.40001H2.38091V1.20001H1.19043ZM3.57138 1.20001V2.40001H4.76186V1.20001H3.57138ZM5.95233 1.20001V2.40001H7.14281V1.20001H5.95233ZM8.33329 1.20001V2.40001H9.52376V1.20001H8.33329ZM7.14281 2.40001V3.60001H8.33329V2.40001H7.14281ZM4.76186 2.40001V3.60001H5.95233V2.40001H4.76186ZM2.38091 2.40001V3.60001H3.57138V2.40001H2.38091ZM1.19043 3.60001V4.80001H2.38091V3.60001H1.19043ZM3.57138 3.60001V4.80001H4.76186V3.60001H3.57138ZM5.95233 3.60001V4.80001H7.14281V3.60001H5.95233ZM8.33329 3.60001V4.80001H9.52376V3.60001H8.33329ZM1.19043 6.00001V7.20001H2.38091V6.00001H1.19043ZM3.57138 6.00001V7.20001H4.76186V6.00001H3.57138ZM5.95233 6.00001V7.20001H7.14281V6.00001H5.95233ZM8.33329 6.00001V7.20001H9.52376V6.00001H8.33329ZM7.14281 4.80001V6.00001H8.33329V4.80001H7.14281ZM4.76186 4.80001V6.00001H5.95233V4.80001H4.76186ZM2.38091 4.80001V6.00001H3.57138V4.80001H2.38091Z" fill="white"/>
</g>
<defs>
<clipPath id="clip0_131_8384">
<rect width="25" height="18" rx="3" fill="white"/>
</clipPath>
</defs>
</svg>
