<svg width="24" height="24" viewBox="0 0 24 24" fill="none" xmlns="http://www.w3.org/2000/svg">
<path d="M17.8303 7.62125L17.2003 6.22125L15.8003 5.59125C15.4103 5.41125 15.4103 4.86125 15.8003 4.68125L17.2003 4.05125L17.8303 2.65125C18.0103 2.26125 18.5603 2.26125 18.7403 2.65125L19.3703 4.05125L20.7703 4.68125C21.1603 4.86125 21.1603 5.41125 20.7703 5.59125L19.3703 6.22125L18.7403 7.62125C18.5703 8.01125 18.0103 8.01125 17.8303 7.62125ZM21.0703 12.3512L20.7503 11.6312C20.5703 11.2412 20.0203 11.2412 19.8403 11.6312L19.5203 12.3512L18.7903 12.6712C18.4003 12.8512 18.4003 13.4012 18.7903 13.5812L19.5103 13.9012L19.8303 14.6312C20.0103 15.0212 20.5603 15.0212 20.7403 14.6312L21.0603 13.9112L21.7903 13.5912C22.1803 13.4112 22.1803 12.8612 21.7903 12.6812L21.0703 12.3512ZM16.0303 14.0012L17.2603 14.9312C17.6603 15.2312 17.7703 15.7913 17.5203 16.2312L15.9003 19.0312C15.6503 19.4712 15.1103 19.6512 14.6503 19.4512L13.2203 18.8512C13.0203 18.9812 12.8003 19.1112 12.5803 19.2212L12.3903 20.7612C12.3303 21.2612 11.9003 21.6412 11.4003 21.6412H8.17029C7.67029 21.6412 7.24029 21.2612 7.18029 20.7612L6.99029 19.2212C6.77029 19.1112 6.56029 18.9912 6.35029 18.8512L4.92029 19.4512C4.46029 19.6512 3.92029 19.4712 3.67029 19.0312L2.05029 16.2312C1.80029 15.7913 1.91029 15.2413 2.31029 14.9312L3.54029 14.0012C3.54029 13.8812 3.54029 13.7512 3.54029 13.6312C3.54029 13.5112 3.54029 13.3812 3.55029 13.2612L2.32029 12.3312C1.92029 12.0312 1.81029 11.4712 2.06029 11.0312L3.68029 8.23125C3.93029 7.79125 4.47029 7.61125 4.93029 7.81125L6.36029 8.41125C6.56029 8.28125 6.78029 8.15125 7.00029 8.04125L7.19029 6.50125C7.24029 6.01125 7.67029 5.63125 8.17029 5.63125H11.4003C11.9003 5.63125 12.3303 6.01125 12.3903 6.51125L12.5803 8.05125C12.8003 8.16125 13.0103 8.28125 13.2203 8.42125L14.6503 7.82125C15.1103 7.62125 15.6503 7.80125 15.9003 8.24125L17.5203 11.0412C17.7703 11.4812 17.6603 12.0312 17.2603 12.3412L16.0303 13.2712C16.0403 13.3912 16.0403 13.5112 16.0403 13.6412C16.0403 13.7712 16.0403 13.8812 16.0303 14.0012ZM12.7903 13.6312C12.7903 11.9712 11.4503 10.6312 9.79029 10.6312C8.13029 10.6312 6.79029 11.9712 6.79029 13.6312C6.79029 15.2912 8.13029 16.6312 9.79029 16.6312C11.4503 16.6312 12.7903 15.2912 12.7903 13.6312Z" fill="#E3E5E8" fill-opacity="0.5"/>
</svg>
