<svg width="22" height="32" viewBox="0 0 22 32" fill="none" xmlns="http://www.w3.org/2000/svg">
<path d="M2.82007 18.8216C3.9896 17.4309 5.17196 16.0487 6.35004 14.6637C7.07571 13.8149 7.84196 13.0026 8.49283 12.0945C8.67067 11.8451 8.78086 11.535 9.03848 11.3513L9.0356 11.3556C9.22636 11.0963 9.39792 10.8148 9.61505 10.5762C10.429 9.66576 11.2169 8.66053 12.0505 7.83132C12.085 7.79867 12.0967 7.72607 12.1428 7.67636C12.3592 7.43419 13.1506 6.59844 13.631 6.03449C14.7443 4.73615 15.8725 3.45709 17.198 2.35021C17.4056 2.17638 20.0601 -0.474581 20.6732 0.0748303C21.3127 0.64497 19.1327 3.51736 18.8022 3.84108C17.9988 4.63478 17.1021 5.35058 16.4755 6.28722C15.5585 7.65807 14.3858 8.80527 13.3385 10.0611C12.3963 11.189 11.3913 12.2627 10.4569 13.3928C9.58001 14.4562 8.80709 15.6138 7.88962 16.6407C7.09725 17.5284 6.15178 18.2797 5.30599 19.1224C5.10694 19.3205 4.99796 19.6748 4.78451 19.8942C4.60842 20.0766 4.32442 20.3912 4.10346 20.5344C4.00804 20.5975 3.90407 20.6549 3.85639 20.753C3.63751 21.2102 0.861975 24.0402 0.130745 23.3623C-0.581979 22.7029 1.80446 20.0305 2.82007 18.8216Z" fill="#2C5DFE"/>
<path d="M7.1279 24.6108C7.95376 24.0201 8.78532 23.4398 9.6176 22.8632C10.1267 22.5069 10.6677 22.2018 11.1277 21.7632C11.2543 21.6427 11.329 21.4443 11.5132 21.412L11.5097 21.4127C11.6433 21.2908 11.7649 21.1445 11.9177 21.0456C12.491 20.6805 13.0477 20.2307 13.6354 19.9394C13.6587 19.9272 13.6669 19.8758 13.6993 19.8541C13.8529 19.7589 14.4101 19.443 14.7488 19.2081C15.5332 18.6677 16.329 18.148 17.2657 17.8611C17.411 17.8173 19.2842 16.8874 19.7225 17.6094C20.1778 18.3625 18.6426 19.6895 18.4079 19.8006C17.8426 20.076 17.2091 20.246 16.7663 20.7157C16.1209 21.405 15.297 21.8 14.5557 22.3358C13.8918 22.8182 13.1838 23.225 12.5249 23.714C11.904 24.1726 11.362 24.7536 10.714 25.1677C10.1569 25.5219 9.48815 25.6989 8.88981 25.9923C8.74957 26.0619 8.67504 26.2986 8.52213 26.3783C8.396 26.4452 8.19667 26.5685 8.04206 26.5835C7.97358 26.5892 7.90012 26.5883 7.8679 26.6482C7.71583 26.9192 5.75757 27.9386 5.23596 27.0529C4.72999 26.191 6.41469 25.1219 7.1279 24.6108Z" fill="#2C5DFE"/>
<path d="M11.9994 29.877C12.6364 29.5844 13.2747 29.2983 13.9137 29.0156C14.3079 28.8424 14.7181 28.7141 15.0754 28.4626C15.1731 28.392 15.238 28.2458 15.3746 28.2635L15.3711 28.2642C15.4757 28.1923 15.573 28.1013 15.687 28.0585C16.1253 27.8904 16.5564 27.6483 17.0008 27.5476C17.0181 27.5442 17.0277 27.5012 17.0513 27.4931C17.1687 27.4496 17.5927 27.3185 17.8548 27.2055C18.4576 26.9401 19.069 26.7005 19.7707 26.6828C19.8814 26.6783 21.3033 26.3517 21.5957 27.0547C21.8975 27.7867 20.7071 28.5234 20.531 28.5613C20.0999 28.6561 19.6266 28.6461 19.2799 28.9332C18.7718 29.3513 18.1466 29.4841 17.5769 29.7533C17.067 29.997 16.5243 30.165 16.0157 30.4154C15.5398 30.649 15.1127 31.0033 14.6174 31.1928C14.1888 31.3556 13.69 31.3438 13.2352 31.4466C13.1284 31.4709 13.0625 31.6482 12.9466 31.6812C12.8509 31.7068 12.7001 31.7638 12.5837 31.7387C12.5348 31.7277 12.4811 31.7108 12.4529 31.7506C12.328 31.9394 10.8376 32.3205 10.4934 31.4633C10.1599 30.6245 11.4486 30.1322 11.9994 29.877Z" fill="#2C5DFE"/>
</svg>
