<svg width="80" height="80" viewBox="0 0 80 80" fill="none" xmlns="http://www.w3.org/2000/svg">
<path d="M35.679 44.0291V30.6958C35.679 28.8625 34.179 27.3625 32.3457 27.3625H19.0124V20.6958H32.3457C34.179 20.6958 35.679 19.1958 35.679 17.3625C35.679 15.5291 34.179 14.0291 32.3457 14.0291H27.3457C27.3457 12.1958 25.8457 10.6958 24.0124 10.6958C22.179 10.6958 20.679 12.1958 20.679 14.0291H15.679C13.8457 14.0291 12.3457 15.5291 12.3457 17.3625V30.6958C12.3457 32.5291 13.8457 34.0291 15.679 34.0291H29.0124V40.6958H15.679C13.8457 40.6958 12.3457 42.1958 12.3457 44.0291C12.3457 45.8625 13.8457 47.3625 15.679 47.3625H20.679C20.679 49.1958 22.179 50.6958 24.0124 50.6958C25.8457 50.6958 27.3457 49.1958 27.3457 47.3625H32.3457C34.179 47.3625 35.679 45.8625 35.679 44.0291Z" fill="white"/>
<path d="M61.9457 44.7625L45.4457 61.2625L38.379 54.1958C37.079 52.8958 34.979 52.8958 33.679 54.1958C32.379 55.4958 32.379 57.5958 33.679 58.8958L43.1124 68.3291C44.4124 69.6291 46.5124 69.6291 47.8124 68.3291L66.679 49.4625C67.979 48.1625 67.979 46.0625 66.679 44.7625C65.3457 43.4625 63.2457 43.4625 61.9457 44.7625Z" fill="white"/>
</svg>
