<svg width="24" height="24" viewBox="0 0 24 24" fill="none" xmlns="http://www.w3.org/2000/svg">
<path d="M20.3695 4.85525C19.5401 4.60805 18.4327 5.52725 18.1231 7.03349C18.0178 7.71402 17.9856 8.40387 18.0271 9.09125C17.7309 9.06047 17.4569 8.91988 17.2591 8.69717C16.1335 7.42277 12.3022 3.08117 11.2918 1.86629C11.1941 1.74256 11.0729 1.63927 10.9353 1.56235C10.7977 1.48542 10.6463 1.43635 10.4897 1.41794C10.3331 1.39953 10.1745 1.41215 10.0227 1.45506C9.87104 1.49797 9.72927 1.57035 9.60553 1.66805C9.48179 1.76576 9.37851 1.88687 9.30158 2.02449C9.22466 2.16211 9.17559 2.31353 9.15718 2.47012C9.13877 2.6267 9.15138 2.78537 9.1943 2.93708C9.23721 3.08879 9.30959 3.23056 9.40729 3.35429C11.2164 5.90741 12.4121 7.72229 12.4121 7.72229L11.8582 8.18213C11.8582 8.18213 9.83353 6.11813 7.34617 3.50453C6.01321 2.10149 4.42633 3.74453 5.50009 5.03813C6.57385 6.33173 9.45577 10.1761 9.45577 10.1761L8.90233 10.6359C8.90233 10.6359 6.22969 7.79429 4.97113 6.65525C3.71257 5.51621 2.38969 6.92789 3.46345 8.22005L7.17817 12.6922L6.77785 13.3369C6.77785 13.3369 5.36617 12.0135 3.49465 10.1362C2.29465 8.93621 0.75865 10.2241 1.83289 11.5162C2.90713 12.8084 4.77817 14.6842 8.61193 19.3013C11.3724 22.6239 14.9652 24.3197 19.7652 20.3324C24.0113 16.8053 22.1739 12.7153 21.87 10.4717C21.5748 8.27861 21.5422 5.20469 20.3695 4.85525Z" fill="#2C5DFE"/>
<path d="M20.3699 4.85514C20.1141 4.79034 19.8437 4.81683 19.6053 4.93002C20.0085 6.05802 20.0853 7.93002 20.2835 9.39402C20.5773 11.5631 22.3538 15.5169 18.2488 18.9268C13.6087 22.7812 11.0056 19.4961 8.61426 19.2988C11.3747 22.6214 14.9675 24.3172 19.7675 20.3299C24.0136 16.8028 22.1762 12.7127 21.8723 10.4692C21.5752 8.2785 21.5426 5.20458 20.3699 4.85514Z" fill="#2C5DFE"/>
<path d="M20.3695 4.85525C19.5401 4.60805 18.4327 5.52725 18.1231 7.03349C18.0178 7.71402 17.9856 8.40387 18.0271 9.09125C17.7309 9.06047 17.4569 8.91988 17.2591 8.69717C16.1335 7.42277 12.3022 3.08117 11.2918 1.86629C11.1941 1.74256 11.0729 1.63927 10.9353 1.56235C10.7977 1.48542 10.6463 1.43635 10.4897 1.41794C10.3331 1.39953 10.1745 1.41215 10.0227 1.45506C9.87104 1.49797 9.72927 1.57035 9.60553 1.66805C9.48179 1.76576 9.37851 1.88687 9.30158 2.02449C9.22466 2.16211 9.17559 2.31353 9.15718 2.47012C9.13877 2.6267 9.15138 2.78537 9.1943 2.93708C9.23721 3.08879 9.30959 3.23056 9.40729 3.35429C11.2164 5.90741 12.4121 7.72229 12.4121 7.72229L11.8582 8.18213C11.8582 8.18213 9.83353 6.11813 7.34617 3.50453C6.01321 2.10149 4.42633 3.74453 5.50009 5.03813C6.57385 6.33173 9.45577 10.1761 9.45577 10.1761L8.90233 10.6359C8.90233 10.6359 6.22969 7.79429 4.97113 6.65525C3.71257 5.51621 2.38969 6.92789 3.46345 8.22005L7.17817 12.6922L6.77785 13.3369C6.77785 13.3369 5.36617 12.0135 3.49465 10.1362C2.29465 8.93621 0.75865 10.2241 1.83289 11.5162C2.90713 12.8084 4.77817 14.6842 8.61193 19.3013C11.3724 22.6239 14.9652 24.3197 19.7652 20.3324C24.0113 16.8053 22.1739 12.7153 21.87 10.4717C21.5748 8.27861 21.5422 5.20469 20.3695 4.85525V4.85525Z" stroke="#43347C" stroke-width="0.6" stroke-linecap="round" stroke-linejoin="round"/>
<path d="M18.027 9.09118C17.9641 10.5974 16.334 11.64 16.1463 13.6675M14.3674 2.07022C15.1228 2.58344 15.7742 3.23489 16.2874 3.99022M15.5674 1.35022C16.1339 1.73513 16.6225 2.22372 17.0074 2.79022M5.48744 18.672C4.52628 18.0185 3.69719 17.1895 3.04376 16.2283M3.96008 19.5902C3.23907 19.1002 2.61726 18.4782 2.12744 17.7571" stroke="#43347C" stroke-width="0.6" stroke-linecap="round" stroke-linejoin="round"/>
</svg>
