<svg width="32" height="32" viewBox="0 0 32 32" fill="none" xmlns="http://www.w3.org/2000/svg">
<path fill-rule="evenodd" clip-rule="evenodd" d="M15.5589 26.1333C16.7323 26.1333 17.6923 25.1733 17.6923 24H13.4256C13.4256 25.1733 14.3749 26.1333 15.5589 26.1333ZM21.9589 19.7333V14.4C21.9589 11.1253 20.2096 8.384 17.1589 7.65866V6.93333C17.1589 6.04799 16.4443 5.33333 15.5589 5.33333C14.6736 5.33333 13.9589 6.04799 13.9589 6.93333V7.65866C10.8976 8.384 9.15892 11.1147 9.15892 14.4V19.7333L7.78292 21.1093C7.11092 21.7813 7.58025 22.9333 8.52958 22.9333H22.5776C23.5269 22.9333 24.0069 21.7813 23.3349 21.1093L21.9589 19.7333Z" fill="white"/>
</svg>
