<svg width="30" height="30" viewBox="0 0 30 30" fill="none" xmlns="http://www.w3.org/2000/svg">
<path fill-rule="evenodd" clip-rule="evenodd" d="M15.5 5C10.81 5 7 8.81 7 13.5C7 18.19 10.81 22 15.5 22H16V25C20.86 22.66 24 18 24 13.5C24 8.81 20.19 5 15.5 5ZM16.5 19.5H14.5V17.5H16.5V19.5ZM16.8997 14.72C16.8897 14.73 16.8797 14.75 16.8697 14.77C16.8197 14.85 16.7697 14.93 16.7297 15.01C16.7097 15.04 16.6997 15.08 16.6897 15.12C16.6597 15.19 16.6297 15.26 16.6097 15.33C16.5397 15.54 16.5097 15.76 16.5097 16.01H14.4997C14.4997 15.5 14.5797 15.07 14.6997 14.71C14.6997 14.7 14.6997 14.69 14.7097 14.68C14.7197 14.64 14.7497 14.62 14.7597 14.58C14.8197 14.42 14.8897 14.28 14.9797 14.14C15.0097 14.09 15.0497 14.04 15.0797 13.99C15.1097 13.95 15.1297 13.9 15.1597 13.87L15.1697 13.88C16.0097 12.78 17.3797 12.44 17.4897 11.2C17.5797 10.22 16.8797 9.27 15.9197 9.07C14.8797 8.85 13.9397 9.46 13.6197 10.35C13.4797 10.71 13.1497 11 12.7397 11H12.5397C11.9397 11 11.4997 10.41 11.6697 9.83C12.2197 8.01 14.0397 6.74 16.0997 7.04C17.7897 7.29 19.1397 8.68 19.4297 10.37C19.8697 12.81 17.7997 13.4 16.8997 14.72Z" fill="#6B7A99"/>
</svg>
