<svg width="79" height="79" viewBox="0 0 79 79" fill="none" xmlns="http://www.w3.org/2000/svg">
<g clip-path="url(#clip0_65_3538)">
<path d="M33.968 17.1924L33.1373 17.415L29.9616 32.8737L44.4476 28.9922L33.968 17.1924Z" fill="#6DDC29"/>
<path d="M48.783 27.8305L62.1786 24.2412L53.925 14.9335C52.5693 13.4046 50.4789 12.7683 48.5059 13.297L38.3034 16.0307L48.783 27.8305Z" fill="#6DDC29"/>
<path d="M62.599 28.3022L40.1951 34.3053L47.3946 61.1745L62.599 28.3022Z" fill="#6DDC29"/>
<path d="M43.5005 62.2179L36.301 35.3487L13.8971 41.3519L43.5005 62.2179Z" fill="#6DDC29"/>
<path d="M25.6262 34.0354L28.7759 18.5836L18.5994 21.3104C16.6264 21.8391 15.1342 23.4353 14.7246 25.4372L12.2306 37.6247L25.6262 34.0354Z" fill="#6DDC29"/>
</g>
<defs>
<clipPath id="clip0_65_3538">
<rect width="64" height="64" fill="white" transform="translate(0 16.6946) scale(1.00786) rotate(-15)"/>
</clipPath>
</defs>
</svg>
