<svg width="19" height="5" viewBox="0 0 19 5" fill="none" xmlns="http://www.w3.org/2000/svg">
<path d="M3.90206 0.627722L3.97261 0.627957L4.02874 0.608844L4.0849 0.589732L4.13456 0.539336L4.18426 0.488973L4.21038 0.421812L4.23656 0.354684L4.23747 0.255836L4.23841 0.157056L4.21517 0.118429L4.1919 0.0798357L4.15143 0.0547882L4.11092 0.029708H3.9361L3.87658 0.0563646L3.81706 0.0829874L3.78253 0.120005L3.74799 0.157056L3.72083 0.220998L3.69371 0.284941L3.68858 0.38456L3.68348 0.484179L3.70869 0.533703L3.73398 0.583194L3.78273 0.605324L3.83145 0.62742L3.90206 0.627722ZM15.1532 3.46513H15.407V3.30978L15.4362 3.11712C15.4523 3.01116 15.4789 2.84331 15.4953 2.74423C15.5116 2.64508 15.532 2.51954 15.5405 2.46512C15.5491 2.41077 15.5718 2.29308 15.5909 2.20355C15.6101 2.11399 15.634 2.01722 15.6441 1.98842C15.6542 1.95965 15.6625 1.92944 15.6626 1.92132C15.6628 1.91321 15.6844 1.86097 15.7108 1.80524L15.7587 1.70388L15.8219 1.61989L15.8851 1.53593L15.9543 1.48392C15.9923 1.45529 16.0535 1.41736 16.0903 1.39956L16.157 1.3672L16.3024 1.36821L16.4477 1.36925L16.505 1.38759L16.5622 1.40596L16.5718 1.39999L16.5814 1.39403L16.582 1.35694C16.5822 1.33652 16.5947 1.26061 16.6096 1.18818L16.6368 1.05654L16.6063 1.04457C16.5769 1.03371 16.5474 1.02362 16.5175 1.01433L16.4594 0.995986L16.3548 0.996288L16.2501 0.996523L16.1648 1.02657L16.0795 1.05654L16.0155 1.09517L15.9515 1.1338L15.8682 1.22101L15.785 1.30819L15.7402 1.37585C15.7157 1.41307 15.694 1.44184 15.6921 1.43979C15.6902 1.43778 15.7036 1.36023 15.7218 1.26752C15.74 1.17477 15.7552 1.08712 15.7555 1.07274L15.756 1.04655H15.3257V1.05399C15.3257 1.05805 15.315 1.13262 15.3019 1.21967C15.2888 1.30675 15.2624 1.47477 15.2434 1.59309C15.2205 1.73463 15.1974 1.87609 15.1739 2.01752C15.1535 2.13977 15.1321 2.26189 15.1097 2.38378C15.0936 2.47008 15.0649 2.62191 15.046 2.72099C15.0271 2.82014 14.9961 2.97974 14.977 3.07567L14.9209 3.3576L14.8994 3.46513H15.1532ZM9.25988 3.46513H9.50811L9.51558 3.36008C9.51971 3.30237 9.53372 3.18589 9.5468 3.10139C9.55988 3.01686 9.58664 2.84827 9.60625 2.72679C9.6311 2.57657 9.65812 2.42673 9.68736 2.27728C9.71234 2.15161 9.74057 2.02671 9.75006 1.99972C9.75962 1.97269 9.76743 1.94345 9.76743 1.9347C9.76743 1.92592 9.78611 1.87817 9.80891 1.82858C9.83171 1.77899 9.87419 1.70307 9.90336 1.65985L9.95637 1.58126L10.0273 1.51554L10.0982 1.44989L10.1857 1.40811L10.2732 1.3663L10.4069 1.36703L10.5406 1.36774L10.6063 1.38735C10.6425 1.39815 10.6752 1.407 10.679 1.407C10.6828 1.407 10.6859 1.39466 10.6859 1.37954C10.6859 1.36445 10.699 1.28787 10.715 1.20934C10.731 1.13085 10.7441 1.06331 10.7441 1.05926C10.7441 1.0552 10.7061 1.04035 10.6598 1.02626C10.6134 1.01218 10.5493 0.997428 10.5173 0.993438L10.4592 0.986263L10.3836 0.999641C10.342 1.00698 10.2802 1.02321 10.2463 1.03572C10.2122 1.04819 10.1561 1.07649 10.1215 1.09862C10.087 1.12079 10.0332 1.16391 10.002 1.19445C9.97079 1.22503 9.91838 1.28669 9.88546 1.33146C9.85984 1.36626 9.83436 1.40113 9.80901 1.43611L9.79238 1.45934L9.80247 1.41287C9.80804 1.38725 9.82353 1.30353 9.83687 1.22681C9.85018 1.15006 9.864 1.07807 9.86732 1.06694L9.87355 1.04655H9.43008V1.07458C9.43008 1.09001 9.41697 1.18285 9.40104 1.28096C9.38502 1.3791 9.35863 1.54307 9.34243 1.6454C9.3262 1.74774 9.29734 1.92565 9.27839 2.04076C9.25814 2.16301 9.23681 2.28516 9.21431 2.40701C9.17056 2.63975 9.12579 2.87231 9.08003 3.10468C9.06044 3.20383 9.03701 3.32085 9.02799 3.36487C9.0189 3.40883 9.01152 3.44937 9.01152 3.45494V3.46516H9.25988V3.46513ZM3.41017 3.46513H3.66028L3.66732 3.44679C3.67124 3.43663 3.67439 3.41011 3.67439 3.38784C3.67439 3.36551 3.69015 3.24946 3.70933 3.13003C3.75322 2.85786 3.79819 2.58583 3.84426 2.314C3.86401 2.19946 3.8848 2.08509 3.90659 1.97095C3.9251 1.87505 3.95353 1.72591 3.96976 1.6396C3.98596 1.55326 4.01788 1.389 4.04064 1.27456C4.06341 1.16012 4.08487 1.06194 4.08832 1.05634L4.09466 1.04611L3.84174 1.04923L3.58882 1.05235L3.5677 1.20354C3.55616 1.28669 3.53081 1.45153 3.51143 1.56979C3.49209 1.68812 3.46278 1.86868 3.44632 1.97095C3.4264 2.09327 3.40514 2.21539 3.38261 2.33727C3.364 2.43635 3.3355 2.58808 3.31924 2.67442C3.30301 2.76079 3.27387 2.91255 3.25449 3.0117C3.23511 3.11085 3.20913 3.24162 3.19672 3.30241C3.18428 3.36316 3.17097 3.42462 3.16708 3.43901L3.16007 3.46513H3.41017ZM0.28256 3.46513H0.565054L0.58534 3.34016C0.596472 3.27139 0.618266 3.13925 0.633724 3.04657L0.697666 2.66282C0.717382 2.54449 0.746956 2.36922 0.763352 2.27333C0.779749 2.1774 0.805836 2.02859 0.82126 1.94265C0.836717 1.85664 0.852309 1.78341 0.855863 1.77983L0.862401 1.77332H2.38176L2.39021 1.78174L2.39866 1.79019L2.38545 1.85731C2.37824 1.89427 2.35682 2.00817 2.33787 2.1105C2.31893 2.21284 2.28707 2.38549 2.26706 2.49426C2.24603 2.60866 2.22464 2.723 2.20288 2.83727C2.18752 2.91718 2.15647 3.08463 2.13387 3.20933C2.11131 3.33403 2.09287 3.4426 2.09293 3.45064L2.09307 3.46513H2.66043L2.67297 3.3925C2.67991 3.35257 2.69098 3.28058 2.69769 3.23263C2.70432 3.18461 2.72045 3.08251 2.73343 3.00583C2.74641 2.92915 2.77232 2.77735 2.79107 2.66862C2.80978 2.55991 2.84116 2.37412 2.86074 2.25582C2.88033 2.13749 2.90936 1.96485 2.92532 1.87214C2.94551 1.75572 2.96653 1.63943 2.98836 1.52328C3.0071 1.42414 3.03835 1.25672 3.0578 1.15116C3.07725 1.04568 3.10632 0.886073 3.12248 0.796514C3.13864 0.706988 3.16808 0.544768 3.18793 0.436062C3.20778 0.327357 3.23283 0.200478 3.24359 0.154072L3.26318 0.0697765H2.6887L2.68089 0.125034C2.67663 0.155379 2.66275 0.240446 2.65007 0.313978C2.63736 0.387544 2.61436 0.518312 2.59887 0.604653C2.58338 0.691027 2.55508 0.855829 2.53597 0.970972C2.51723 1.08374 2.49919 1.1966 2.48185 1.3096L2.46247 1.43892L2.04083 1.44747L1.61915 1.45599L1.26601 1.44761C1.07176 1.44301 0.911758 1.43829 0.910417 1.43721C0.909109 1.43607 0.915715 1.39091 0.925103 1.33679C0.937476 1.26701 0.950653 1.1974 0.964635 1.12793C0.982474 1.03887 0.999808 0.949714 1.01661 0.860456C1.03287 0.774149 1.05124 0.666886 1.05751 0.622123C1.06375 0.57736 1.07686 0.502788 1.08662 0.456382C1.09638 0.410043 1.11488 0.312369 1.12776 0.239373C1.1406 0.166377 1.15432 0.0983445 1.15824 0.0882183L1.16528 0.0697765H0.595432L0.577225 0.171541C0.567166 0.227504 0.553787 0.307272 0.547484 0.34885C0.541147 0.390427 0.519922 0.523845 0.500307 0.645359C0.480691 0.766873 0.451721 0.947401 0.435928 1.04652L0.37212 1.44767C0.349688 1.58739 0.326016 1.72695 0.30117 1.86627C0.280481 1.98071 0.259391 2.09504 0.237898 2.20932C0.222776 2.28925 0.193973 2.44098 0.173855 2.54656C0.152764 2.65711 0.131003 2.7676 0.108638 2.87795C0.0928791 2.9547 0.0754768 3.04362 0.0699778 3.07561C0.0644118 3.10756 0.0464395 3.19984 0.0299425 3.28058C0.0134791 3.36132 0 3.43586 0 3.44625V3.4651H0.28256V3.46513ZM17.1976 3.5217L17.3081 3.52314L17.4128 3.5061C17.4703 3.49682 17.5436 3.48173 17.5755 3.47271C17.6075 3.46362 17.6651 3.44015 17.7034 3.4205L17.7732 3.38476L17.8332 3.33191L17.8932 3.27907L17.9565 3.19484C17.9912 3.1484 18.0227 3.1027 18.0264 3.09308L18.0331 3.07561L18.0273 3.13375C18.0231 3.17264 18.0177 3.21147 18.0112 3.25007C18.0055 3.28202 17.9976 3.34351 17.9933 3.38667L17.9856 3.46513H18.4418V3.30821L18.4766 3.01166C18.4957 2.84854 18.524 2.63143 18.5394 2.52906C18.5548 2.42669 18.5786 2.28027 18.5923 2.20352C18.606 2.12676 18.6302 1.98808 18.6461 1.89537C18.6621 1.80266 18.6908 1.64041 18.7101 1.53492C18.7293 1.42937 18.7601 1.26195 18.7785 1.16283C18.7969 1.06368 18.8255 0.90931 18.8421 0.819784C18.8586 0.730258 18.8882 0.573269 18.9079 0.470967C18.9285 0.36424 18.9498 0.257614 18.9718 0.151155C18.9873 0.0776562 19 0.0135128 18.9999 0.00875148V0H18.5022L18.4948 0.0726938C18.4908 0.112662 18.4717 0.244771 18.4525 0.366319C18.4297 0.509795 18.4065 0.653171 18.3828 0.796514C18.369 0.8792 18.3554 0.961886 18.3419 1.04461L18.3356 1.08337L18.316 1.07502C18.3052 1.07042 18.2467 1.05416 18.1859 1.0389L18.0755 1.01118L17.9243 0.999406L17.7731 0.987637L17.6452 0.99954L17.5173 1.01148L17.4011 1.04088L17.2848 1.07026L17.1743 1.12414L17.0638 1.17802L16.9824 1.23824L16.901 1.2985L16.8307 1.37391C16.792 1.41535 16.7362 1.48392 16.7066 1.52627L16.6528 1.60326L16.5896 1.73476C16.5548 1.80712 16.5125 1.90292 16.4956 1.94768C16.4786 1.99248 16.4488 2.09169 16.4291 2.16821L16.3936 2.30736L16.376 2.48802L16.3585 2.66865L16.3717 2.81397L16.3849 2.95936L16.4004 3.0117C16.4091 3.04043 16.4271 3.09174 16.4405 3.12557L16.4651 3.18726L16.5099 3.24785L16.5546 3.30844L16.6057 3.35029L16.6568 3.3922L16.7266 3.42684C16.765 3.44582 16.8293 3.47053 16.8696 3.48153C16.9099 3.49259 16.9753 3.50584 17.015 3.511C17.0548 3.51613 17.1369 3.52099 17.1976 3.5217ZM17.3959 3.19189L17.3081 3.19648L17.2489 3.18582C17.2163 3.17999 17.1641 3.16419 17.1329 3.15085L17.0763 3.12661L17.0286 3.08751L16.981 3.04848L16.9102 2.91285L16.894 2.83727L16.8779 2.76163L16.8793 2.61047L16.8806 2.45932L16.8994 2.3256L16.9182 2.19188L16.9473 2.09887C16.9634 2.0477 16.9765 1.99942 16.9766 1.99157C16.9767 1.98376 16.9925 1.94191 17.0118 1.89859C17.0343 1.84846 17.0581 1.7989 17.0832 1.75002C17.1033 1.71163 17.1408 1.65184 17.1664 1.6171C17.1922 1.58237 17.2381 1.53002 17.2684 1.50079C17.2988 1.47161 17.3469 1.43326 17.3756 1.41565L17.4276 1.38363L17.5191 1.35198L17.6105 1.32033L17.8024 1.32022H17.9942L18.1047 1.35091C18.1655 1.36774 18.23 1.38729 18.2481 1.39433L18.281 1.4071L18.2746 1.43902C18.2711 1.45659 18.2572 1.53375 18.2438 1.61046C18.2305 1.68721 18.2041 1.83374 18.1853 1.93608C18.1665 2.03841 18.1376 2.19279 18.1211 2.27909C18.1046 2.3654 18.0807 2.47531 18.0679 2.52323C18.0549 2.57255 18.0416 2.62174 18.0281 2.6709C18.0189 2.70409 17.9969 2.76173 17.9793 2.79878C17.9617 2.8359 17.9309 2.88982 17.9109 2.91855C17.8908 2.94735 17.8569 2.98725 17.8355 3.00717C17.8141 3.02716 17.7678 3.06256 17.7327 3.08597L17.6687 3.12848L17.4838 3.18716L17.3959 3.19189ZM13.2673 3.51757L13.4243 3.51304L13.5231 3.48776L13.6219 3.46241L13.6859 3.43224C13.7211 3.41567 13.7786 3.38278 13.8138 3.35927C13.849 3.33584 13.9035 3.29117 13.9348 3.26006C13.9661 3.22894 14.0126 3.1759 14.0381 3.14217C14.0636 3.10837 14.086 3.08231 14.0879 3.08419C14.0898 3.0861 14.0839 3.13978 14.0748 3.20363C14.0658 3.26754 14.0583 3.35247 14.0581 3.39244L14.0579 3.46506H14.4848L14.4913 3.29946L14.4978 3.13371L14.5282 2.91858C14.545 2.80026 14.572 2.62499 14.5884 2.52906C14.6046 2.4332 14.633 2.27098 14.6514 2.16861C14.6697 2.06628 14.6988 1.9067 14.7159 1.81396L14.7472 1.64537L14.7482 1.49975L14.7492 1.35409L14.7163 1.2868L14.6834 1.21947L14.6388 1.17661L14.5941 1.13373L14.5208 1.09661L14.4475 1.05943L14.2289 1.01081L14.0785 0.999373L13.928 0.987939L13.7343 0.999943C13.6276 1.00651 13.4777 1.01952 13.401 1.02888L13.2614 1.04578L13.0712 1.04652L13.0574 1.11341C13.0498 1.15016 13.0286 1.23751 13.0104 1.30755C12.9921 1.37756 12.979 1.43651 12.981 1.43859C12.9831 1.44067 13.0339 1.4291 13.094 1.41294C13.1541 1.39674 13.2818 1.37019 13.3777 1.35382L13.5521 1.32411L13.7091 1.31768L13.8661 1.31117L14.0684 1.34665L14.1358 1.37994L14.2033 1.41327L14.2411 1.4696L14.2789 1.5259L14.2784 1.61469L14.2778 1.70351L14.2578 1.80095L14.2377 1.89842L13.8193 1.89993L13.4009 1.90141L13.264 1.93896C13.1887 1.95962 13.1053 1.98704 13.0787 1.99989C13.0521 2.01276 13.0254 2.02329 13.0195 2.02329C13.0136 2.02329 12.9688 2.0481 12.92 2.07851L12.8312 2.13367L12.7613 2.20348C12.7228 2.24187 12.6736 2.29945 12.652 2.3314C12.6304 2.36335 12.5953 2.43015 12.5741 2.47987L12.5354 2.57017L12.5177 2.67167L12.4999 2.77323V2.98632L12.5168 3.075L12.5338 3.16369L12.5653 3.2216C12.5826 3.25335 12.6144 3.29999 12.6359 3.32514L12.6751 3.37091L12.7446 3.41316L12.8141 3.45541L12.8937 3.47787C12.9375 3.49024 13.0042 3.5053 13.0418 3.51127L13.1103 3.52206L13.2673 3.51754V3.51757ZM13.4127 3.19243L13.3196 3.19729L13.258 3.18156C13.2241 3.17298 13.1727 3.15373 13.1438 3.13888L13.0912 3.11175L13.0624 3.07762C13.0466 3.05877 13.0225 3.02189 13.0087 2.99557L12.9838 2.94769L12.979 2.83597L12.974 2.72418L12.9938 2.65634C13.0046 2.61909 13.03 2.55431 13.0503 2.51253L13.0871 2.43655L13.1577 2.36654L13.2282 2.29653L13.303 2.26048L13.3778 2.22447L13.4708 2.20234L13.5638 2.18025H14.1453L14.1637 2.18786L14.182 2.19543L14.1666 2.2867C14.1581 2.33687 14.1378 2.42763 14.1214 2.48842C14.1052 2.54918 14.0764 2.63847 14.0575 2.68686C14.0386 2.73531 14.0232 2.77809 14.0232 2.78195C14.0232 2.78587 14.0041 2.82111 13.9807 2.86034L13.9382 2.93166L13.8685 3.00077C13.8302 3.03876 13.7945 3.06981 13.7894 3.06981C13.7843 3.06981 13.7608 3.08298 13.7372 3.09894L13.6943 3.12795L13.6 3.15782L13.5057 3.18763L13.4127 3.19243ZM11.3546 3.5219L11.4826 3.52327L11.6278 3.50604C11.7077 3.49661 11.8141 3.48089 11.8642 3.47113C11.9248 3.45896 11.9849 3.44468 12.0444 3.42838C12.0935 3.4145 12.1378 3.39951 12.143 3.39512C12.1482 3.39066 12.162 3.33788 12.1738 3.27783C12.1855 3.21778 12.2003 3.13724 12.2067 3.09891C12.213 3.06052 12.2163 3.02706 12.2139 3.02457C12.2116 3.02203 12.203 3.02528 12.1949 3.03172C12.1867 3.03825 12.1297 3.06223 12.0681 3.0851L11.9562 3.12667L11.7967 3.15759L11.6372 3.18844L11.5017 3.18384L11.3661 3.17918L11.2891 3.15246L11.2121 3.12574L11.1526 3.07373L11.0932 3.02166L11.0537 2.94973L11.0142 2.87788L10.9953 2.78168L10.9765 2.68555L10.9767 2.56078L10.9768 2.43602L10.9996 2.28486L11.0225 2.13367L11.0467 2.05226C11.06 2.0075 11.075 1.95519 11.0801 1.93601C11.0852 1.9168 11.1065 1.86187 11.1275 1.81389C11.1484 1.76594 11.1859 1.69181 11.2106 1.64916L11.2556 1.57167L11.3109 1.51437L11.3662 1.45706L11.4247 1.42078L11.4832 1.38447L11.5584 1.3613C11.5998 1.34856 11.6729 1.33203 11.7208 1.32458L11.8081 1.31097L11.9359 1.31741L12.0638 1.32381L12.215 1.35409L12.3662 1.3843L12.4276 1.40724C12.4614 1.41984 12.4906 1.4302 12.4924 1.4302C12.4942 1.4302 12.5023 1.38702 12.5104 1.33424C12.5185 1.2815 12.5329 1.19469 12.5425 1.14137C12.552 1.08799 12.5575 1.04206 12.5547 1.03927C12.5519 1.03646 12.5065 1.02925 12.4537 1.02325C12.401 1.01724 12.2577 1.00658 12.1353 0.999507L11.9127 0.986732L11.7556 0.998769L11.5987 1.01084L11.4824 1.03525L11.3661 1.05969L11.2912 1.08964C11.25 1.1061 11.1897 1.13584 11.1572 1.15569C11.1259 1.17467 11.0953 1.19445 11.0651 1.21504C11.047 1.22785 10.9922 1.27774 10.9431 1.32596L10.8541 1.41361L10.8044 1.48643C10.7771 1.5265 10.7298 1.60999 10.6993 1.67206L10.6439 1.78486L10.6014 1.90691C10.5781 1.97407 10.5454 2.08395 10.529 2.15111L10.499 2.27319L10.4881 2.38367L10.4772 2.49416L10.4773 2.63948L10.4774 2.7848L10.4884 2.8694L10.4994 2.95393L10.5342 3.0409L10.569 3.12788L10.6093 3.19075L10.6494 3.25362L10.7134 3.31662L10.7774 3.37956L10.845 3.41537L10.9128 3.45105L11.0016 3.47579C11.0505 3.48934 11.1211 3.50493 11.1586 3.51036C11.1961 3.51586 11.2843 3.52096 11.3547 3.52176H11.3546V3.5219ZM7.65686 3.52183L7.78478 3.52327L7.91263 3.5116C7.98305 3.5052 8.09812 3.49182 8.16843 3.48186C8.23885 3.47197 8.36036 3.44977 8.43856 3.4326L8.58069 3.40136L8.5878 3.34891C8.59165 3.32011 8.60765 3.23431 8.62327 3.15826L8.65167 3.01995L8.64537 3.01371L8.6391 3.00747L8.59564 3.02843C8.57174 3.03996 8.49727 3.06753 8.43021 3.08959L8.30822 3.12973L8.1802 3.1546L8.05218 3.17935L7.84872 3.17982L7.64523 3.18015L7.57545 3.15789C7.53709 3.14565 7.48066 3.12325 7.45005 3.10806L7.39442 3.08057L7.30258 2.99752L7.26674 2.93491L7.23089 2.87224L7.20843 2.79372L7.18596 2.71512L7.18583 2.56973L7.18566 2.42435L7.20558 2.29468L7.22559 2.16496L7.57552 2.14859L8.22235 2.15278L8.86915 2.15691L8.88867 2.07409C8.89943 2.02852 8.91586 1.93433 8.92518 1.86479L8.94215 1.73832L8.94252 1.63196L8.94292 1.52557L8.92451 1.44613L8.90604 1.36673L8.87559 1.31416C8.85889 1.28525 8.82932 1.24334 8.81004 1.22101C8.79072 1.19871 8.75622 1.16726 8.73339 1.15113C8.71049 1.135 8.66566 1.10788 8.63367 1.09088L8.57556 1.05996L8.474 1.03548L8.3724 1.01104L8.2473 0.999071L8.1221 0.987101L8.00585 0.994678L7.88956 1.00222L7.75001 1.02901L7.61049 1.05584L7.52324 1.09068C7.47526 1.10982 7.40203 1.14483 7.36049 1.1684C7.31891 1.19197 7.26137 1.23033 7.23264 1.25363C7.2038 1.27697 7.15394 1.3223 7.12185 1.35439C7.08973 1.38651 7.04218 1.44412 7.0163 1.48251C6.99035 1.5209 6.95058 1.5889 6.92784 1.63367C6.90518 1.67846 6.87564 1.74123 6.86219 1.77322C6.84881 1.80517 6.82434 1.87059 6.80797 1.91854C6.79154 1.96652 6.76573 2.05809 6.75067 2.12207C6.7329 2.19956 6.71754 2.27755 6.70463 2.35598L6.68606 2.47367L6.68626 2.64669L6.68646 2.8197L6.7041 2.89528C6.71379 2.93686 6.73243 2.99966 6.74537 3.03483C6.75831 3.07001 6.78239 3.12232 6.79879 3.15115C6.81515 3.17989 6.85015 3.22619 6.87651 3.25409C6.90283 3.28192 6.95061 3.32424 6.9826 3.34801C7.01452 3.37178 7.07145 3.40531 7.10904 3.42241L7.17741 3.45353L7.27274 3.4766C7.32515 3.48931 7.40428 3.50429 7.44857 3.50999C7.49276 3.51569 7.58655 3.52106 7.65686 3.52183ZM7.87585 1.88377C7.55396 1.88377 7.29058 1.88149 7.29058 1.87864C7.29058 1.87586 7.30432 1.83528 7.32112 1.78851C7.33789 1.74177 7.36739 1.67223 7.38661 1.63394L7.42165 1.56429L7.49853 1.48781L7.57545 1.41126L7.65106 1.37515C7.69261 1.35526 7.74756 1.3336 7.77315 1.32703C7.79876 1.32046 7.87196 1.31174 7.9359 1.30768L8.05222 1.30021L8.14154 1.31171L8.2308 1.32318L8.29572 1.35288L8.36063 1.38259L8.39624 1.42098C8.41579 1.44207 8.43909 1.47316 8.44808 1.49002L8.46427 1.52074L8.475 1.58887L8.48577 1.657L8.47346 1.77037L8.46119 1.88377H7.87585ZM4.41585 4.54655L4.42289 4.52814C4.42681 4.51805 4.42997 4.49428 4.42997 4.4753C4.42997 4.45639 4.43821 4.38748 4.44831 4.32227C4.45837 4.25692 4.48197 4.10673 4.50081 3.98847C4.51963 3.87014 4.54779 3.6922 4.56342 3.59312C4.57827 3.4992 4.59239 3.40521 4.60583 3.31112C4.61351 3.25513 4.62287 3.20936 4.62665 3.20936C4.63041 3.20936 4.64657 3.23411 4.66257 3.26432L4.6916 3.31927L4.75605 3.38425L4.82053 3.44924L4.89986 3.48099L4.97923 3.51274L5.07378 3.52498L5.16837 3.53722L5.28838 3.52988L5.40842 3.52247L5.53838 3.48887L5.66838 3.4552L5.73812 3.42338C5.77651 3.40591 5.84451 3.36766 5.88928 3.33852L5.97069 3.28554L6.04657 3.20963C6.08831 3.16798 6.14719 3.10106 6.17737 3.06095C6.20761 3.02095 6.23232 2.98524 6.23232 2.98172C6.23232 2.97813 6.24718 2.95336 6.26532 2.92657C6.28346 2.89984 6.32054 2.82557 6.34777 2.76166C6.37503 2.69775 6.41755 2.58261 6.44236 2.50586L6.48742 2.36631L6.51073 2.24546C6.52354 2.17901 6.54003 2.06913 6.54738 2.00126L6.56069 1.87797L6.55297 1.77332L6.5453 1.66867L6.52099 1.56399L6.49675 1.45934L6.45745 1.38102L6.41818 1.30265L6.3423 1.22222L6.26646 1.14178L6.08694 1.04903L5.98809 1.02533L5.88924 1.00169L5.79039 0.994444L5.69158 0.987201L5.5815 0.999842L5.47135 1.01248L5.38152 1.03545L5.29166 1.05835L5.21357 1.09453C5.17065 1.11435 5.10815 1.14811 5.07475 1.16951C5.04132 1.1909 5.00682 1.21548 4.9981 1.22416C4.98942 1.23284 4.96853 1.24897 4.95177 1.2599L4.92122 1.27992L4.94254 1.17775C4.95431 1.12159 4.9641 1.06912 4.96437 1.06107L4.96484 1.04655H4.53847L4.50112 1.28203C4.48053 1.41156 4.44807 1.61167 4.42896 1.72681C4.38681 1.98077 4.34416 2.23463 4.30101 2.48842C4.282 2.60028 4.25058 2.77823 4.23116 2.88378C4.21175 2.98927 4.18335 3.14364 4.16799 3.2268C4.15267 3.30992 4.12377 3.46687 4.10385 3.57558C4.08034 3.70353 4.0566 3.83145 4.03263 3.95933C4.00993 4.07957 3.98673 4.19968 3.96309 4.31979C3.94404 4.41565 3.92567 4.50598 3.92215 4.5203L3.91581 4.54648H4.41585V4.54655ZM5.1451 3.20802L5.08166 3.19675L5.01819 3.18555L4.95374 3.15615L4.88927 3.12674L4.84427 3.08372L4.79924 3.04077L4.77325 2.98263C4.75893 2.95067 4.74059 2.89632 4.73244 2.86185L4.71762 2.79932L4.72356 2.69913L4.72953 2.59894L4.75947 2.44195C4.78207 2.32191 4.804 2.20174 4.82519 2.0815C4.84487 1.96957 4.87471 1.80554 4.89144 1.71706L4.92186 1.55611L4.98851 1.50065C5.0252 1.47017 5.08327 1.42927 5.11761 1.40982L5.17997 1.37441L5.26135 1.34923L5.34276 1.32401L5.55206 1.31174L5.63729 1.32992L5.7225 1.34806L5.78265 1.37575L5.84277 1.40345L5.8932 1.45415L5.94366 1.50484L5.97082 1.55853C5.98581 1.58807 6.00683 1.64584 6.01753 1.68695L6.03701 1.76169L6.03104 1.98265L6.02507 2.20358L5.99523 2.33418C5.9788 2.40604 5.94755 2.51592 5.92576 2.57832L5.88616 2.69195L5.8376 2.78389C5.81091 2.83452 5.76977 2.90283 5.74617 2.93575C5.72256 2.96868 5.68491 3.01146 5.66251 3.03064C5.63538 3.05371 5.60762 3.07598 5.57922 3.09743L5.5366 3.12926L5.33924 3.19638L5.1451 3.20802Z" fill="#B3131B"/>
</svg>
