<svg width="24" height="8" viewBox="0 0 24 8" fill="none" xmlns="http://www.w3.org/2000/svg">
<path d="M17.7114 0.935378L17.247 1.95908H18.1783L17.7114 0.935378ZM12.3528 1.56974C12.4403 1.5282 12.4919 1.43783 12.4919 1.32562C12.4919 1.21565 12.4377 1.136 12.3502 1.09858C12.2705 1.05709 12.1478 1.0523 12.0302 1.0523H11.1994V1.62268H12.0191C12.1504 1.62271 12.2601 1.62096 12.3528 1.56974ZM1.70733 0.935378L1.24821 1.95908H2.16922L1.70733 0.935378ZM23.0832 7.49348H21.7803V6.9427H23.0779C23.2066 6.9427 23.2967 6.92737 23.3509 6.87907C23.4022 6.83604 23.4312 6.77521 23.4307 6.71161C23.4307 6.63675 23.398 6.57733 23.3482 6.54177C23.2993 6.50257 23.228 6.48471 23.1105 6.48471C22.477 6.46514 21.6867 6.50251 21.6867 5.68972C21.6867 5.31722 21.9467 4.92508 22.6547 4.92508H23.9986V4.41403H22.75C22.3732 4.41403 22.0994 4.49613 21.9056 4.62383V4.41403H20.0587C19.7634 4.41403 19.4168 4.48062 19.2528 4.62383V4.41403H15.9546V4.62383C15.6922 4.45155 15.2492 4.41403 15.0449 4.41403H12.8694V4.62383C12.6618 4.44088 12.1999 4.41403 11.9185 4.41403H9.48381L8.92675 4.96256L8.40492 4.41403H4.76792V7.99825H8.3363L8.91032 7.44092L9.4511 7.99825L11.6507 8V7.15686H11.867C12.1588 7.16112 12.503 7.15034 12.8067 7.03091V7.99813H14.621V7.06392H14.7085C14.8201 7.06392 14.8312 7.06819 14.8312 7.16971V7.99793H20.3427C20.6926 7.99793 21.0584 7.91653 21.2609 7.76849V7.99793H23.0092C23.3729 7.99793 23.7282 7.95153 23.9986 7.83277V7.1651C23.8347 7.38311 23.5152 7.49363 23.0831 7.49363L23.0832 7.49348ZM11.8959 6.64718H11.054V7.50871H9.74264L8.91185 6.65846L8.04851 7.50871H5.37602V4.94021H8.08962L8.91967 5.78216L9.77784 4.94021H11.9337C12.4691 4.94021 13.0707 5.0751 13.0707 5.7864C13.0707 6.49991 12.4856 6.64718 11.8959 6.64718ZM15.9439 6.53073C16.0392 6.6561 16.053 6.77314 16.0558 6.99956V7.50873H15.3783V7.18742C15.3783 7.03289 15.3947 6.80407 15.2693 6.68464C15.1708 6.59267 15.0205 6.5707 14.7743 6.5707H14.0533V7.50873H13.3754V4.94024H14.9329C15.2746 4.94024 15.5234 4.95406 15.7448 5.06143C15.9577 5.17847 16.0917 5.33881 16.0917 5.63181C16.0916 6.04174 15.7911 6.25087 15.6135 6.31515C15.7636 6.36554 15.8863 6.45591 15.9439 6.53073ZM18.7309 5.47142H17.151V5.93835H18.6923V6.46242H17.151V6.97347L18.7309 6.97575V7.50871H16.4791V4.94021H18.7309V5.47142ZM20.4646 7.50868H19.1506V6.9579H20.4594C20.5874 6.9579 20.6781 6.9425 20.735 6.89426C20.7814 6.85456 20.8147 6.7968 20.8147 6.72686C20.8147 6.65195 20.7786 6.59252 20.7324 6.55688C20.6808 6.51773 20.6095 6.5 20.4921 6.5C19.8611 6.4803 19.071 6.51767 19.071 5.70494C19.071 5.33238 19.3283 4.94024 20.0356 4.94024H21.3883V5.48684H20.1505C20.0279 5.48684 19.9481 5.49111 19.8803 5.53336C19.8063 5.57496 19.7789 5.63663 19.7789 5.71806C19.7789 5.81494 19.8417 5.88091 19.9265 5.90939C19.9977 5.93192 20.0741 5.93849 20.1891 5.93849L20.5523 5.94752C20.9184 5.9555 21.1699 6.01326 21.3228 6.15402C21.454 6.27766 21.5246 6.43385 21.5246 6.69817C21.5245 7.25073 21.145 7.50868 20.4646 7.50868ZM15.2319 5.51285C15.1504 5.46879 15.0301 5.46645 14.91 5.46645H14.0792V6.04329H14.8989C15.0301 6.04329 15.1417 6.03906 15.2319 5.99035C15.3193 5.94226 15.3717 5.85368 15.3717 5.74383C15.3717 5.63398 15.3193 5.55445 15.2319 5.51285ZM22.7702 5.46639C22.6475 5.46639 22.5659 5.47063 22.4972 5.51279C22.426 5.55445 22.3987 5.61612 22.3987 5.69761C22.3987 5.79443 22.4588 5.8604 22.5462 5.88894C22.6174 5.91147 22.6938 5.91804 22.8061 5.91804L23.1719 5.9269C23.5408 5.93522 23.7872 5.99298 23.9374 6.13374C23.9648 6.15326 23.9812 6.17523 24 6.19726V5.46645H22.7703L22.7702 5.46639ZM11.9192 5.46639H11.0395V6.12057H11.9114C12.1706 6.12057 12.3318 6.00353 12.3319 5.78134C12.3318 5.55673 12.1628 5.46639 11.9192 5.46639ZM6.04801 5.46639V5.93338H7.52915V6.45746H6.04801V6.96844H7.70678L8.47748 6.21493L7.73952 5.46639H6.04801ZM10.3795 7.26256V5.20336L9.34365 6.2164L10.3795 7.26256ZM6.10462 3.13873V3.58129H11.7414L11.7387 2.64504H11.8478C11.9242 2.64746 11.9464 2.65386 11.9464 2.76859V3.58132H14.8618V3.36334C15.097 3.47798 15.4627 3.58132 15.9439 3.58132H17.1704L17.4329 3.01097H18.0149L18.2716 3.58132H20.635V3.03954L20.9929 3.58129H22.8869V0H21.0125V0.422959L20.7501 0H18.8267V0.422959L18.5857 0H15.9877C15.5528 0 15.1706 0.0552181 14.8618 0.209128V0H13.0689V0.209128C12.8724 0.0504851 12.6046 0 12.307 0H5.75699L5.31753 0.925035L4.8662 0H2.80317V0.422959L2.57649 0H0.817064L3.07699e-05 1.70282V3.0649L1.20818 0.496992H2.21063L3.35804 2.92826V0.496992H4.45927L5.34221 2.23899L6.15336 0.496992H7.27668V3.0649H6.58513L6.5826 1.05376L5.60424 3.0649H5.01186L4.03101 1.05198V3.0649H2.65867L2.39944 2.49212H0.994668L0.732754 3.0649H0V3.5815H1.15283L1.41274 3.01111H1.99472L2.25396 3.5815H4.5221V3.14539L4.72453 3.58331H5.90197L6.10444 3.13882L6.10462 3.13873ZM14.987 0.79631C15.205 0.59136 15.5466 0.496847 16.0115 0.496847H16.6647V1.04707H16.0252C15.7791 1.04707 15.64 1.08038 15.5061 1.19923C15.391 1.30733 15.3121 1.51172 15.3121 1.78086C15.3121 2.05598 15.3723 2.25433 15.4976 2.3839C15.6015 2.48552 15.7903 2.51634 15.9679 2.51634H16.271L17.2219 0.496934H18.2327L19.375 2.92577V0.496963H20.4023L21.5883 2.28536V0.496963H22.2794V3.06478H21.3233L20.0444 1.13746V3.06478H18.6704L18.4078 2.492H17.0063L16.7516 3.06478H15.962C15.6341 3.06478 15.2189 2.99881 14.9837 2.78075C14.7466 2.56274 14.6233 2.26739 14.6233 1.80046C14.6232 1.41957 14.6968 1.07144 14.987 0.79631ZM13.5992 0.496876H14.2876V3.06478H13.5992V0.496876ZM10.4955 0.496876H12.0472C12.392 0.496876 12.6462 0.505202 12.8643 0.619875C13.0777 0.734577 13.2057 0.902042 13.2057 1.18842C13.2057 1.59788 12.9053 1.80937 12.7303 1.87292C12.8779 1.92405 13.0041 2.01435 13.0642 2.08915C13.1594 2.21688 13.1758 2.33097 13.1758 2.56028V3.06475H12.4953L12.4928 2.74092C12.4928 2.58637 12.509 2.36415 12.3863 2.24069C12.2877 2.15041 12.1374 2.13075 11.8945 2.13075H11.1702V3.06478H10.4956L10.4955 0.496876ZM7.77562 0.496876H10.0295V1.03162H8.45037V1.49448H9.99157V2.02087H8.45037V2.5337H10.0295V3.06475H7.77562V0.496876Z" fill="#2557D6"/>
</svg>
