<svg width="256" height="4" viewBox="0 0 256 4" fill="none" xmlns="http://www.w3.org/2000/svg">
<path d="M255.985 1.60641C255.919 1.83036 255.766 2.01966 255.559 2.13366C255.508 2.16186 255.454 2.18529 255.398 2.20364C255.354 2.22165 255.308 2.23571 255.261 2.24564L255.09 2.2783L254.839 2.31562C253.661 2.42294 252.586 2.44627 251.464 2.48826L248.15 2.57225L241.455 2.67023L224.639 2.79154L227.716 2.8802H228.279C231.764 2.97351 230.538 3.14615 231.593 3.28146C236.413 3.88802 232.607 4.07465 218.195 3.97201C215.056 3.97201 211.732 3.97201 208.532 3.97201L181.134 4L153.873 3.89735L101.254 3.95334L74.9499 3.98134H61.7692C57.3898 3.98134 53.001 3.98134 48.6122 3.93468C43.5306 3.88802 38.4489 3.82114 33.3673 3.73405L25.7401 3.57541L21.9195 3.4541L20.9726 3.4121L20.4991 3.38411L20.234 3.36078H20.0825H19.9689L19.8458 3.32812C20.0636 3.0575 19.1356 3.97201 19.467 1.8817C19.8079 1.60642 19.8789 1.66241 19.9073 1.63908H20.002H20.1109H20.2624H20.5228H20.9962H21.9431C27.0658 1.55976 32.1222 1.56908 37.2117 1.55509H42.7936C36.1654 1.53642 29.5372 1.50843 22.9089 1.4711C16.0582 1.42911 10.4006 1.2938 6.41891 1.09783C2.43725 0.901868 0.141052 0.659244 0.00375298 0.383959C-0.256641 -0.157281 13.0945 0.0246868 20.9442 0.0480161C46.0682 0.17866 71.2191 0.209765 96.3969 0.141332L171.949 0.0386825C193.727 0.00602144 227.678 0.0386816 237.284 0.118001L242.492 0.169326C244.651 0.169326 246.829 0.169328 249.021 0.229984C250.116 0.251758 251.221 0.285975 252.335 0.332634C252.889 0.332634 253.443 0.379294 254.006 0.421286C254.29 0.421286 254.565 0.458615 254.877 0.495942C254.944 0.495942 255.043 0.519272 255.138 0.533269H255.204H255.242L255.351 0.561264C255.419 0.584431 255.486 0.612498 255.55 0.645246L255.644 0.69657C255.73 0.77589 256.075 0.803884 255.985 1.60641ZM122.403 1.48977C111.4 1.4711 100.364 1.4711 89.2952 1.48977H113.441H128.288H122.403Z" fill="#2C5DFE"/>
</svg>
