<svg width="429" height="4" viewBox="0 0 429 4" fill="none" xmlns="http://www.w3.org/2000/svg">
<path d="M428.975 1.60641C428.864 1.83036 428.607 2.01966 428.261 2.13366C428.175 2.16186 428.085 2.18529 427.991 2.20364C427.917 2.22165 427.84 2.23571 427.761 2.24564L427.476 2.2783L427.055 2.31562C425.08 2.42294 423.279 2.44627 421.398 2.48826L415.845 2.57225L404.626 2.67023L376.445 2.79154L381.602 2.8802H382.546C388.385 2.97351 386.331 3.14615 388.1 3.28146C396.176 3.88802 389.798 4.07465 365.647 3.97201C360.387 3.97201 354.817 3.97201 349.454 3.97201L303.541 4L257.857 3.89735L169.68 3.95334L125.6 3.98134H103.512C96.1728 3.98134 88.8181 3.98134 81.4634 3.93468C72.9477 3.88802 64.432 3.82114 55.9163 3.73405L43.1348 3.57541L36.7322 3.4541L35.1454 3.4121L34.352 3.38411L33.9077 3.36078H33.6539H33.4635L33.2572 3.32812C33.6221 3.0575 32.0671 3.97201 32.6225 1.8817C33.1937 1.60642 33.3127 1.66241 33.3603 1.63908H33.519H33.7015H33.9553H34.3917H35.1851H36.7719C45.3563 1.55976 53.8297 1.56908 62.3586 1.55509H71.7127C60.6052 1.53642 49.4978 1.50843 38.3904 1.4711C26.9101 1.42911 17.4291 1.2938 10.7567 1.09783C4.0843 0.901868 0.236372 0.659244 0.00628918 0.383959C-0.430074 -0.157281 21.9435 0.0246868 35.0978 0.0480161C77.2003 0.17866 119.348 0.209764 161.54 0.141332L288.149 0.0386825C324.645 0.00602126 381.539 0.0386815 397.636 0.118001L406.364 0.169326C409.981 0.169326 413.631 0.169328 417.304 0.229984C419.14 0.251758 420.991 0.285975 422.858 0.332634C423.786 0.332634 424.715 0.379293 425.659 0.421286C426.135 0.421286 426.595 0.458615 427.119 0.495942C427.23 0.495942 427.396 0.519272 427.555 0.533269H427.666H427.73L427.912 0.561264C428.026 0.584431 428.138 0.612498 428.245 0.645246L428.404 0.69657C428.547 0.77589 429.126 0.803884 428.975 1.60641ZM205.121 1.48977C186.682 1.4711 168.189 1.4711 149.639 1.48977H190.102H214.983H205.121Z" fill="#2C5DFE"/>
</svg>
