<svg width="582" height="4" viewBox="0 0 582 4" fill="none" xmlns="http://www.w3.org/2000/svg">
<path d="M581.966 1.60641C581.815 1.83036 581.467 2.01966 580.998 2.13366C580.881 2.16186 580.758 2.18529 580.632 2.20364C580.531 2.22165 580.426 2.23571 580.319 2.24564L579.932 2.2783L579.362 2.31562C576.681 2.42294 574.238 2.44627 571.687 2.48826L564.153 2.57225L548.933 2.67023L510.702 2.79154L517.698 2.8802H518.979C526.901 2.97351 524.113 3.14615 526.513 3.28146C537.47 3.88802 528.816 4.07465 496.052 3.97201C488.916 3.97201 481.36 3.97201 474.084 3.97201L411.796 4L349.82 3.89735L230.195 3.95334L170.394 3.98134H140.428C130.472 3.98134 120.494 3.98134 110.517 3.93468C98.964 3.88802 87.4113 3.82114 75.8585 3.73405L58.5186 3.57541L49.8325 3.4541L47.6798 3.4121L46.6035 3.38411L46.0007 3.36078H45.6563H45.398L45.1181 3.32812C45.6132 3.0575 43.5036 3.97201 44.257 1.8817C45.032 1.60642 45.1935 1.66241 45.258 1.63908H45.4733H45.7209H46.0653H46.6573H47.7336H49.8863C61.5324 1.55976 73.0277 1.56908 84.5984 1.55509H97.2885C82.2197 1.53642 67.1509 1.50843 52.0821 1.4711C36.5074 1.42911 23.6451 1.2938 14.593 1.09783C5.54094 0.901868 0.320672 0.659244 0.00853217 0.383959C-0.583457 -0.157281 29.7695 0.0246868 47.6152 0.0480161C104.733 0.17866 161.912 0.209764 219.152 0.141332L390.915 0.0386825C440.427 0.00602126 517.612 0.0386815 539.451 0.118001L551.29 0.169326C556.199 0.169326 561.15 0.169328 566.133 0.229984C568.623 0.251758 571.135 0.285975 573.668 0.332634C574.927 0.332634 576.186 0.379293 577.467 0.421286C578.113 0.421286 578.737 0.458615 579.448 0.495942C579.598 0.495942 579.824 0.519272 580.04 0.533269H580.19H580.276L580.524 0.561264C580.679 0.584431 580.83 0.612498 580.976 0.645246L581.191 0.69657C581.385 0.77589 582.171 0.803884 581.966 1.60641ZM278.276 1.48977C253.262 1.4711 228.172 1.4711 203.007 1.48977H257.901H291.655H278.276Z" fill="#2C5DFE"/>
</svg>
