<svg width="219" height="8" viewBox="0 0 219 8" fill="none" xmlns="http://www.w3.org/2000/svg">
<path d="M218.987 3.21282C218.93 3.66072 218.8 4.03932 218.623 4.26731C218.579 4.32372 218.533 4.37057 218.485 4.40728C218.447 4.44329 218.408 4.47141 218.368 4.49128L218.222 4.55659L218.007 4.63125C216.999 4.84588 216.079 4.89253 215.119 4.97652L212.284 5.1445L206.557 5.34045L192.171 5.58309L194.804 5.76039H195.286C198.267 5.94703 197.218 6.29229 198.121 6.56291C202.244 7.77604 198.988 8.14931 186.659 7.94401C183.974 7.94401 181.13 7.94401 178.393 7.94401L154.954 8L131.633 7.7947L86.6199 7.90668L64.1173 7.96267H52.8416C49.0952 7.96267 45.3407 7.96267 41.5862 7.86936C37.239 7.77604 32.8919 7.64228 28.5447 7.46809L22.0199 7.15081L18.7514 6.90819L17.9414 6.8242L17.5364 6.76821L17.3095 6.72155H17.1799H17.0827L16.9774 6.65623C17.1637 6.11499 16.3699 7.94402 16.6534 3.76341C16.945 3.21283 17.0058 3.32481 17.0301 3.27815H17.1111H17.2042H17.3338H17.5566H17.9616H18.7717C23.1539 3.11951 27.4795 3.13817 31.8334 3.11017H36.6086C30.9383 3.07285 25.2681 3.01686 19.5979 2.94221C13.7373 2.85822 8.89737 2.5876 5.49118 2.19567C2.08499 1.80374 0.120665 1.31849 0.00321056 0.767917C-0.219548 -0.314563 11.2019 0.0493736 17.9171 0.0960321C39.4099 0.35732 60.9257 0.419529 82.4645 0.282664L147.097 0.0773649C165.728 0.0120425 194.771 0.077363 202.989 0.236002L207.444 0.338652C209.291 0.338652 211.154 0.338656 213.03 0.459969C213.966 0.503517 214.911 0.57195 215.865 0.665267C216.339 0.665267 216.812 0.758587 217.294 0.842573C217.537 0.842573 217.772 0.91723 218.04 0.991883C218.096 0.991883 218.181 1.03854 218.262 1.06654H218.319H218.351L218.445 1.12253C218.503 1.16886 218.56 1.225 218.615 1.29049L218.696 1.39314C218.769 1.55178 219.064 1.60777 218.987 3.21282ZM104.712 2.97953C95.2995 2.9422 85.8585 2.9422 76.3893 2.97953H97.0451H109.746H104.712Z" fill="#2C5DFE"/>
</svg>
